<svg width="444" height="117" viewBox="0 0 444 117" fill="none" xmlns="http://www.w3.org/2000/svg">
<g opacity="0.3">
<path d="M100.727 42.3811H84.4351L76.9083 61.6054H90.6992L86.3875 81.8764H67.8528L58.8056 104H38.95L47.7978 81.8764H34.2893L25.4415 104H5.17051L14.0931 81.8764H1L5.31174 61.6054H23.0738L30.5924 42.3811H15.4805L19.8005 22.2514H39.5066L47.8643 1.00003H68.1353L59.8441 22.2514H73.2861L81.652 1.00003H101.915L93.5571 22.2514H105.047L100.727 42.3811ZM64.6543 42.2482H50.8634L43.0623 61.8878H56.9197L64.6543 42.2482Z" stroke="#E10613" stroke-miterlimit="10"/>
</g>
<path d="M93.7109 97H82.3828V50.9844C82.3828 47.7812 83.0078 45.0859 84.2578 42.8984C85.5339 40.6849 87.3177 39.0182 89.6094 37.8984C91.9271 36.7526 94.6745 36.1797 97.8516 36.1797C98.8932 36.1797 99.8958 36.2578 100.859 36.4141C101.823 36.5443 102.76 36.7135 103.672 36.9219L103.555 45.3984C103.06 45.2682 102.539 45.1771 101.992 45.125C101.445 45.0729 100.807 45.0469 100.078 45.0469C98.724 45.0469 97.5651 45.2812 96.6016 45.75C95.6641 46.1927 94.9479 46.8568 94.4531 47.7422C93.9583 48.6276 93.7109 49.7083 93.7109 50.9844V97ZM102.148 54.7344V62.7031H76.0938V54.7344H102.148ZM130.859 87.4688V68.6406C130.859 67.2865 130.638 66.1276 130.195 65.1641C129.753 64.1745 129.062 63.4062 128.125 62.8594C127.214 62.3125 126.029 62.0391 124.57 62.0391C123.32 62.0391 122.24 62.2604 121.328 62.7031C120.417 63.1198 119.714 63.7318 119.219 64.5391C118.724 65.3203 118.477 66.2448 118.477 67.3125H107.227C107.227 65.5156 107.643 63.8099 108.477 62.1953C109.31 60.5807 110.521 59.1615 112.109 57.9375C113.698 56.6875 115.586 55.7109 117.773 55.0078C119.987 54.3047 122.461 53.9531 125.195 53.9531C128.477 53.9531 131.393 54.5 133.945 55.5938C136.497 56.6875 138.503 58.3281 139.961 60.5156C141.445 62.7031 142.188 65.4375 142.188 68.7188V86.8047C142.188 89.1224 142.331 91.0234 142.617 92.5078C142.904 93.9661 143.32 95.2422 143.867 96.3359V97H132.5C131.953 95.8542 131.536 94.4219 131.25 92.7031C130.99 90.9583 130.859 89.2135 130.859 87.4688ZM132.344 71.2578L132.422 77.625H126.133C124.648 77.625 123.359 77.7943 122.266 78.1328C121.172 78.4714 120.273 78.9531 119.57 79.5781C118.867 80.1771 118.346 80.8802 118.008 81.6875C117.695 82.4948 117.539 83.3802 117.539 84.3438C117.539 85.3073 117.76 86.1797 118.203 86.9609C118.646 87.7161 119.284 88.3151 120.117 88.7578C120.951 89.1745 121.927 89.3828 123.047 89.3828C124.74 89.3828 126.211 89.0443 127.461 88.3672C128.711 87.6901 129.674 86.8568 130.352 85.8672C131.055 84.8776 131.419 83.9401 131.445 83.0547L134.414 87.8203C133.997 88.888 133.424 89.9948 132.695 91.1406C131.992 92.2865 131.094 93.3672 130 94.3828C128.906 95.3724 127.591 96.1927 126.055 96.8438C124.518 97.4688 122.695 97.7812 120.586 97.7812C117.904 97.7812 115.469 97.2474 113.281 96.1797C111.12 95.0859 109.401 93.5885 108.125 91.6875C106.875 89.7604 106.25 87.5729 106.25 85.125C106.25 82.9115 106.667 80.9453 107.5 79.2266C108.333 77.5078 109.557 76.0625 111.172 74.8906C112.812 73.6927 114.857 72.7943 117.305 72.1953C119.753 71.5703 122.591 71.2578 125.82 71.2578H132.344ZM173.711 85.3203C173.711 84.513 173.477 83.7839 173.008 83.1328C172.539 82.4818 171.667 81.8828 170.391 81.3359C169.141 80.763 167.331 80.2422 164.961 79.7734C162.826 79.3047 160.833 78.7188 158.984 78.0156C157.161 77.2865 155.573 76.4141 154.219 75.3984C152.891 74.3828 151.849 73.1849 151.094 71.8047C150.339 70.3984 149.961 68.7969 149.961 67C149.961 65.2292 150.339 63.5625 151.094 62C151.875 60.4375 152.982 59.0573 154.414 57.8594C155.872 56.6354 157.643 55.6849 159.727 55.0078C161.836 54.3047 164.206 53.9531 166.836 53.9531C170.508 53.9531 173.659 54.5391 176.289 55.7109C178.945 56.8828 180.977 58.4974 182.383 60.5547C183.815 62.5859 184.531 64.9036 184.531 67.5078H173.281C173.281 66.4141 173.047 65.4375 172.578 64.5781C172.135 63.6927 171.432 63.0026 170.469 62.5078C169.531 61.987 168.307 61.7266 166.797 61.7266C165.547 61.7266 164.466 61.9479 163.555 62.3906C162.643 62.8073 161.94 63.3802 161.445 64.1094C160.977 64.8125 160.742 65.5938 160.742 66.4531C160.742 67.1042 160.872 67.6901 161.133 68.2109C161.419 68.7057 161.875 69.1615 162.5 69.5781C163.125 69.9948 163.932 70.3854 164.922 70.75C165.938 71.0885 167.188 71.401 168.672 71.6875C171.719 72.3125 174.44 73.1328 176.836 74.1484C179.232 75.138 181.133 76.4922 182.539 78.2109C183.945 79.9036 184.648 82.1302 184.648 84.8906C184.648 86.7656 184.232 88.4844 183.398 90.0469C182.565 91.6094 181.367 92.9766 179.805 94.1484C178.242 95.2943 176.367 96.1927 174.18 96.8438C172.018 97.4688 169.583 97.7812 166.875 97.7812C162.943 97.7812 159.609 97.0781 156.875 95.6719C154.167 94.2656 152.109 92.4818 150.703 90.3203C149.323 88.1328 148.633 85.8932 148.633 83.6016H159.297C159.349 85.138 159.74 86.375 160.469 87.3125C161.224 88.25 162.174 88.9271 163.32 89.3438C164.492 89.7604 165.755 89.9688 167.109 89.9688C168.568 89.9688 169.779 89.7734 170.742 89.3828C171.706 88.9661 172.435 88.4193 172.93 87.7422C173.451 87.0391 173.711 86.2318 173.711 85.3203ZM212.656 54.7344V62.7031H188.047V54.7344H212.656ZM194.141 44.3047H205.391V84.2656C205.391 85.4896 205.547 86.4271 205.859 87.0781C206.198 87.7292 206.693 88.1849 207.344 88.4453C207.995 88.6797 208.815 88.7969 209.805 88.7969C210.508 88.7969 211.133 88.7708 211.68 88.7188C212.253 88.6406 212.734 88.5625 213.125 88.4844L213.164 96.7656C212.201 97.0781 211.159 97.3255 210.039 97.5078C208.919 97.6901 207.682 97.7812 206.328 97.7812C203.854 97.7812 201.693 97.3776 199.844 96.5703C198.021 95.737 196.615 94.4089 195.625 92.5859C194.635 90.763 194.141 88.3672 194.141 85.3984V44.3047ZM244.023 87.7812V37H255.352V97H245.156L244.023 87.7812ZM217.305 76.375V75.5547C217.305 72.3255 217.669 69.3958 218.398 66.7656C219.128 64.1094 220.195 61.8307 221.602 59.9297C223.008 58.0286 224.74 56.5573 226.797 55.5156C228.854 54.474 231.198 53.9531 233.828 53.9531C236.302 53.9531 238.464 54.474 240.312 55.5156C242.188 56.5573 243.776 58.0417 245.078 59.9688C246.406 61.8698 247.474 64.1224 248.281 66.7266C249.089 69.3047 249.674 72.1302 250.039 75.2031V77C249.674 79.9427 249.089 82.6771 248.281 85.2031C247.474 87.7292 246.406 89.9427 245.078 91.8438C243.776 93.7188 242.188 95.1771 240.312 96.2188C238.438 97.2604 236.25 97.7812 233.75 97.7812C231.12 97.7812 228.776 97.2474 226.719 96.1797C224.688 95.112 222.969 93.6146 221.562 91.6875C220.182 89.7604 219.128 87.4948 218.398 84.8906C217.669 82.2865 217.305 79.4479 217.305 76.375ZM228.555 75.5547V76.375C228.555 78.1198 228.685 79.7474 228.945 81.2578C229.232 82.7682 229.688 84.1094 230.312 85.2812C230.964 86.4271 231.797 87.3255 232.812 87.9766C233.854 88.6016 235.117 88.9141 236.602 88.9141C238.529 88.9141 240.117 88.4844 241.367 87.625C242.617 86.7396 243.568 85.5286 244.219 83.9922C244.896 82.4557 245.286 80.6849 245.391 78.6797V73.5625C245.312 71.9219 245.078 70.4505 244.688 69.1484C244.323 67.8203 243.776 66.6875 243.047 65.75C242.344 64.8125 241.458 64.0833 240.391 63.5625C239.349 63.0417 238.112 62.7812 236.68 62.7812C235.221 62.7812 233.971 63.1198 232.93 63.7969C231.888 64.4479 231.042 65.3464 230.391 66.4922C229.766 67.638 229.297 68.9922 228.984 70.5547C228.698 72.0911 228.555 73.7578 228.555 75.5547ZM286.953 87.4688V68.6406C286.953 67.2865 286.732 66.1276 286.289 65.1641C285.846 64.1745 285.156 63.4062 284.219 62.8594C283.307 62.3125 282.122 62.0391 280.664 62.0391C279.414 62.0391 278.333 62.2604 277.422 62.7031C276.51 63.1198 275.807 63.7318 275.312 64.5391C274.818 65.3203 274.57 66.2448 274.57 67.3125H263.32C263.32 65.5156 263.737 63.8099 264.57 62.1953C265.404 60.5807 266.615 59.1615 268.203 57.9375C269.792 56.6875 271.68 55.7109 273.867 55.0078C276.081 54.3047 278.555 53.9531 281.289 53.9531C284.57 53.9531 287.487 54.5 290.039 55.5938C292.591 56.6875 294.596 58.3281 296.055 60.5156C297.539 62.7031 298.281 65.4375 298.281 68.7188V86.8047C298.281 89.1224 298.424 91.0234 298.711 92.5078C298.997 93.9661 299.414 95.2422 299.961 96.3359V97H288.594C288.047 95.8542 287.63 94.4219 287.344 92.7031C287.083 90.9583 286.953 89.2135 286.953 87.4688ZM288.438 71.2578L288.516 77.625H282.227C280.742 77.625 279.453 77.7943 278.359 78.1328C277.266 78.4714 276.367 78.9531 275.664 79.5781C274.961 80.1771 274.44 80.8802 274.102 81.6875C273.789 82.4948 273.633 83.3802 273.633 84.3438C273.633 85.3073 273.854 86.1797 274.297 86.9609C274.74 87.7161 275.378 88.3151 276.211 88.7578C277.044 89.1745 278.021 89.3828 279.141 89.3828C280.833 89.3828 282.305 89.0443 283.555 88.3672C284.805 87.6901 285.768 86.8568 286.445 85.8672C287.148 84.8776 287.513 83.9401 287.539 83.0547L290.508 87.8203C290.091 88.888 289.518 89.9948 288.789 91.1406C288.086 92.2865 287.188 93.3672 286.094 94.3828C285 95.3724 283.685 96.1927 282.148 96.8438C280.612 97.4688 278.789 97.7812 276.68 97.7812C273.997 97.7812 271.562 97.2474 269.375 96.1797C267.214 95.0859 265.495 93.5885 264.219 91.6875C262.969 89.7604 262.344 87.5729 262.344 85.125C262.344 82.9115 262.76 80.9453 263.594 79.2266C264.427 77.5078 265.651 76.0625 267.266 74.8906C268.906 73.6927 270.951 72.7943 273.398 72.1953C275.846 71.5703 278.685 71.2578 281.914 71.2578H288.438ZM327.656 54.7344V62.7031H303.047V54.7344H327.656ZM309.141 44.3047H320.391V84.2656C320.391 85.4896 320.547 86.4271 320.859 87.0781C321.198 87.7292 321.693 88.1849 322.344 88.4453C322.995 88.6797 323.815 88.7969 324.805 88.7969C325.508 88.7969 326.133 88.7708 326.68 88.7188C327.253 88.6406 327.734 88.5625 328.125 88.4844L328.164 96.7656C327.201 97.0781 326.159 97.3255 325.039 97.5078C323.919 97.6901 322.682 97.7812 321.328 97.7812C318.854 97.7812 316.693 97.3776 314.844 96.5703C313.021 95.737 311.615 94.4089 310.625 92.5859C309.635 90.763 309.141 88.3672 309.141 85.3984V44.3047ZM345.938 54.7344V97H334.648V54.7344H345.938ZM333.945 43.7188C333.945 42.0781 334.518 40.724 335.664 39.6562C336.81 38.5885 338.346 38.0547 340.273 38.0547C342.174 38.0547 343.698 38.5885 344.844 39.6562C346.016 40.724 346.602 42.0781 346.602 43.7188C346.602 45.3594 346.016 46.7135 344.844 47.7812C343.698 48.849 342.174 49.3828 340.273 49.3828C338.346 49.3828 336.81 48.849 335.664 47.7812C334.518 46.7135 333.945 45.3594 333.945 43.7188ZM366.25 63.7578V97H355V54.7344H365.547L366.25 63.7578ZM364.609 74.3828H361.562C361.562 71.2578 361.966 68.4453 362.773 65.9453C363.581 63.4193 364.714 61.2708 366.172 59.5C367.63 57.7031 369.362 56.3359 371.367 55.3984C373.398 54.4349 375.664 53.9531 378.164 53.9531C380.143 53.9531 381.953 54.2396 383.594 54.8125C385.234 55.3854 386.641 56.2969 387.812 57.5469C389.01 58.7969 389.922 60.4505 390.547 62.5078C391.198 64.5651 391.523 67.0781 391.523 70.0469V97H380.195V70.0078C380.195 68.1328 379.935 66.6745 379.414 65.6328C378.893 64.5911 378.125 63.862 377.109 63.4453C376.12 63.0026 374.896 62.7812 373.438 62.7812C371.927 62.7812 370.612 63.0807 369.492 63.6797C368.398 64.2786 367.487 65.112 366.758 66.1797C366.055 67.2214 365.521 68.4453 365.156 69.8516C364.792 71.2578 364.609 72.7682 364.609 74.3828ZM426.836 54.7344H437.031V95.5938C437.031 99.4479 436.172 102.716 434.453 105.398C432.76 108.107 430.391 110.151 427.344 111.531C424.297 112.938 420.755 113.641 416.719 113.641C414.948 113.641 413.073 113.406 411.094 112.938C409.141 112.469 407.266 111.74 405.469 110.75C403.698 109.76 402.214 108.51 401.016 107L405.977 100.359C407.279 101.87 408.789 103.042 410.508 103.875C412.227 104.734 414.128 105.164 416.211 105.164C418.242 105.164 419.961 104.786 421.367 104.031C422.773 103.302 423.854 102.221 424.609 100.789C425.365 99.3828 425.742 97.6771 425.742 95.6719V64.5L426.836 54.7344ZM398.398 76.375V75.5547C398.398 72.3255 398.789 69.3958 399.57 66.7656C400.378 64.1094 401.51 61.8307 402.969 59.9297C404.453 58.0286 406.25 56.5573 408.359 55.5156C410.469 54.474 412.852 53.9531 415.508 53.9531C418.32 53.9531 420.677 54.474 422.578 55.5156C424.479 56.5573 426.042 58.0417 427.266 59.9688C428.49 61.8698 429.44 64.1224 430.117 66.7266C430.82 69.3047 431.367 72.1302 431.758 75.2031V77C431.367 79.9427 430.781 82.6771 430 85.2031C429.219 87.7292 428.19 89.9427 426.914 91.8438C425.638 93.7188 424.049 95.1771 422.148 96.2188C420.273 97.2604 418.034 97.7812 415.43 97.7812C412.826 97.7812 410.469 97.2474 408.359 96.1797C406.276 95.112 404.492 93.6146 403.008 91.6875C401.523 89.7604 400.378 87.4948 399.57 84.8906C398.789 82.2865 398.398 79.4479 398.398 76.375ZM409.648 75.5547V76.375C409.648 78.1198 409.818 79.7474 410.156 81.2578C410.495 82.7682 411.016 84.1094 411.719 85.2812C412.448 86.4271 413.346 87.3255 414.414 87.9766C415.508 88.6016 416.797 88.9141 418.281 88.9141C420.339 88.9141 422.018 88.4844 423.32 87.625C424.622 86.7396 425.599 85.5286 426.25 83.9922C426.901 82.4557 427.279 80.6849 427.383 78.6797V73.5625C427.331 71.9219 427.109 70.4505 426.719 69.1484C426.328 67.8203 425.781 66.6875 425.078 65.75C424.375 64.8125 423.464 64.0833 422.344 63.5625C421.224 63.0417 419.896 62.7812 418.359 62.7812C416.875 62.7812 415.586 63.1198 414.492 63.7969C413.424 64.4479 412.526 65.3464 411.797 66.4922C411.094 67.638 410.56 68.9922 410.195 70.5547C409.831 72.0911 409.648 73.7578 409.648 75.5547Z" fill="#004695"/>
</svg>
