<svg width="74.6" height="74.6" viewBox="0 0 74.6 74.6" class="icon-steps svg-icon" xmlns="http://www.w3.org/2000/svg">
    <defs>
        <style>.a{fill:#cee1f2;}.b{fill:#03519c;}.c{fill:#ec1d24;}</style>
    </defs>
    <path class="a" d="M77.573,64.1a9.471,9.471,0,1,1,0-16.8,9.47,9.47,0,0,0,0,16.8ZM27.888,74.207V34.564A14.547,14.547,0,0,1,42.417,20H33.57A14.57,14.57,0,0,0,19,34.57V74.2a14.57,14.57,0,0,0,14.57,14.57h8.847A14.547,14.547,0,0,1,27.888,74.207Z" transform="translate(-16.232 -17.086)"></path>
    <path class="b" d="M56.97,51A12.385,12.385,0,1,1,69.355,38.611,12.4,12.4,0,0,1,56.97,51Zm0-18.941a6.557,6.557,0,1,0,6.557,6.557A6.564,6.564,0,0,0,56.97,32.055ZM33.8,71.686a2.914,2.914,0,0,0-2.914-2.914H17.481A11.666,11.666,0,0,1,5.828,57.119V17.481A11.666,11.666,0,0,1,17.481,5.828H44.3A11.666,11.666,0,0,1,55.953,17.481a2.914,2.914,0,0,0,5.828,0A17.5,17.5,0,0,0,44.3,0H17.481A17.5,17.5,0,0,0,0,17.481V57.119A17.5,17.5,0,0,0,17.481,74.6H30.889A2.914,2.914,0,0,0,33.8,71.686Zm4.808-38.611A2.914,2.914,0,0,0,35.7,30.161H21.418a2.914,2.914,0,0,0,0,5.828H35.7A2.914,2.914,0,0,0,38.611,33.075Zm0,22.293A2.914,2.914,0,0,0,35.7,52.453H21.418a2.914,2.914,0,0,0,0,5.828H35.7A2.914,2.914,0,0,0,38.611,55.367Zm0-11.219A2.914,2.914,0,0,0,35.7,41.234H21.418a2.914,2.914,0,1,0,0,5.828H35.7A2.914,2.914,0,0,0,38.611,44.148Z"></path>
    <path class="c" d="M180.182,185.659a2.914,2.914,0,0,1-2.914-2.914,10.468,10.468,0,0,0-10.421-10.491h-2.47a10.468,10.468,0,0,0-10.422,10.491,2.914,2.914,0,1,1-5.828,0,16.3,16.3,0,0,1,16.25-16.319h2.47a16.3,16.3,0,0,1,16.25,16.319A2.914,2.914,0,0,1,180.182,185.659Zm-27.246-52.745A2.914,2.914,0,0,0,150.021,130H129.914a2.914,2.914,0,0,0,0,5.828h20.107A2.914,2.914,0,0,0,152.935,132.914Z" transform="translate(-108.496 -111.059)"></path>
</svg>