<svg width="74.6" height="74.6" viewBox="0 0 74.6 74.6" class="icon-steps svg-icon" xmlns="http://www.w3.org/2000/svg">
    <defs>
        <style>.a{fill:#cee1f2;}.b{fill:#03519c;}.c{fill:#ec1d24;}</style>
    </defs>
    <g transform="translate(-99)">
        <path class="a" d="M138.4,36.459A16.466,16.466,0,0,1,149.779,20.8a16.459,16.459,0,1,0,0,31.318A16.466,16.466,0,0,1,138.4,36.459Z" transform="translate(-19.329 -17.137)"></path>
        <path class="b" d="M112.529,74.6a2.862,2.862,0,0,1-2.863-2.863A20.347,20.347,0,0,0,89.343,50.094H85.049A20.347,20.347,0,0,0,64.725,70.418a2.863,2.863,0,1,1-5.725,0A26.078,26.078,0,0,1,85.049,44.369h4.294a26.078,26.078,0,0,1,26.049,26.049A2.862,2.862,0,0,1,112.529,74.6Zm-6.3-53.958A19.322,19.322,0,1,0,86.909,38.644,19.344,19.344,0,0,0,106.231,19.322Zm-5.725,0a13.6,13.6,0,1,1-13.6-13.6A13.612,13.612,0,0,1,100.506,19.322Z" transform="translate(40)"></path>
        <path class="c" d="M168.456,395.463a2.861,2.861,0,0,1-1.437-.387l-11.593-6.727a2.862,2.862,0,0,1-1-3.971l4.294-7.013a2.862,2.862,0,1,1,4.882,2.989l-2.763,4.514,7.639,4.432,7.836-4.437-2.83-4.473a2.863,2.863,0,0,1,4.838-3.061l4.437,7.013a2.862,2.862,0,0,1-1.009,4.021l-11.879,6.727a2.861,2.861,0,0,1-1.41.372Z" transform="translate(-41.403 -322.183)"></path>
    </g>
</svg>