<svg width="74.6" height="74.6" viewBox="0 0 74.6 74.6" class="icon-steps svg-icon" xmlns="http://www.w3.org/2000/svg">
    <defs>
        <style>.a{fill:#cee1f2;}.b{fill:#03519c;}.c{fill:#ec1d24;}</style>
    </defs>
    <g transform="translate(-0.196)">
        <path class="a" d="M32.271,49.458a29.464,29.464,0,0,1,24.985-29.12,29.458,29.458,0,1,0,0,58.24,29.465,29.465,0,0,1-24.985-29.12Z" transform="translate(-19.563 -16.916)"></path>
        <path class="b" d="M32.738,65.084A32.542,32.542,0,1,1,65.28,32.542,32.579,32.579,0,0,1,32.738,65.084Zm0-58.915A26.373,26.373,0,1,0,59.111,32.542,26.4,26.4,0,0,0,32.738,6.169Z"></path>
        <path class="c" d="M163.19,209.274a3.076,3.076,0,0,1-2.181-.9l-13.8-13.8a3.085,3.085,0,0,1,4.362-4.362l13.8,13.8a3.084,3.084,0,0,1-2.181,5.266Zm-39.614-37.749,12.19-12.266a3.085,3.085,0,0,0-4.376-4.348L119.2,167.179a3.385,3.385,0,0,1-4.824,0l-5.9-5.955a3.085,3.085,0,0,0-4.381,4.343l5.9,5.955a9.554,9.554,0,0,0,13.583,0Z" transform="translate(-87.114 -130.249)"></path>
    </g>
</svg>