<svg width="74.6" height="74.6" viewBox="0 0 74.6 74.6" class="icon-steps svg-icon" xmlns="http://www.w3.org/2000/svg">
    <defs>
        <style>.a{fill:#cee1f2;}.b{fill:#03519c;}.c{fill:#ec1d24;}</style>
    </defs>
    <path class="a" d="M90.736,52.054a16.426,16.426,0,1,1,0-31.255,16.431,16.431,0,0,0,0,31.255Zm14.892,18.8a16.433,16.433,0,0,1,11.356-15.628,16.426,16.426,0,1,0,0,31.255,16.433,16.433,0,0,1-11.356-15.628Z" transform="translate(-59.349 -17.143)"></path>
    <path class="b" d="M79.283,38.566A19.283,19.283,0,1,1,98.566,19.283,19.305,19.305,0,0,1,79.283,38.566Zm0-32.853a13.57,13.57,0,1,0,13.57,13.57A13.585,13.585,0,0,0,79.283,5.714Zm26,67.277a19.283,19.283,0,1,1,19.283-19.283A19.305,19.305,0,0,1,105.28,72.99Zm0-32.853a13.57,13.57,0,1,0,13.57,13.57A13.585,13.585,0,0,0,105.28,40.138Z" transform="translate(-51.43)"></path>
    <g transform="translate(0 44.28)">
        <path class="c" d="M364.711,320.856h-2v-3a2.857,2.857,0,1,0-5.714,0v5.856a2.857,2.857,0,0,0,2.857,2.857h4.855a2.857,2.857,0,0,0,0-5.714Z" transform="translate(-306.007 -314.286)"></path>
        <path class="c" d="M26.425,310h-.037C11.24,310,0,321.662,0,336a2.857,2.857,0,1,0,5.714,0c0-11.184,8.57-20.283,20.712-20.283a2.857,2.857,0,1,0,0-5.714Z" transform="translate(0 -310)"></path>
    </g>
</svg>