<svg width="286" height="117" viewBox="0 0 286 117" fill="none" xmlns="http://www.w3.org/2000/svg">
<g opacity="0.3">
<path d="M100.727 42.3811H84.4351L76.9083 61.6054H90.6992L86.3875 81.8764H67.8528L58.8056 104H38.95L47.7978 81.8764H34.2893L25.4415 104H5.17051L14.0931 81.8764H1L5.31174 61.6054H23.0738L30.5924 42.3811H15.4805L19.8005 22.2514H39.5066L47.8643 1.00002H68.1353L59.8441 22.2514H73.2861L81.652 1.00002H101.915L93.5571 22.2514H105.047L100.727 42.3811ZM64.6543 42.2482H50.8634L43.0623 61.8878H56.9197L64.6543 42.2482Z" stroke="#E10613" stroke-miterlimit="10"/>
</g>
<path d="M103.203 49.8516L87.7344 97H75.2734L96.4062 40.125H104.336L103.203 49.8516ZM116.055 97L100.547 49.8516L99.2969 40.125H107.305L128.555 97H116.055ZM115.352 75.8281V85.0078H85.3125V75.8281H115.352ZM145 37V97H133.711V37H145ZM173.75 97.7812C170.469 97.7812 167.526 97.2604 164.922 96.2188C162.318 95.151 160.104 93.6797 158.281 91.8047C156.484 89.9297 155.104 87.7552 154.141 85.2812C153.177 82.7812 152.695 80.125 152.695 77.3125V75.75C152.695 72.5469 153.151 69.6172 154.062 66.9609C154.974 64.3047 156.276 62 157.969 60.0469C159.688 58.0938 161.771 56.5964 164.219 55.5547C166.667 54.487 169.427 53.9531 172.5 53.9531C175.495 53.9531 178.151 54.4479 180.469 55.4375C182.786 56.4271 184.727 57.8333 186.289 59.6562C187.878 61.4792 189.076 63.6667 189.883 66.2188C190.69 68.7448 191.094 71.5573 191.094 74.6562V79.3438H157.5V71.8438H180.039V70.9844C180.039 69.4219 179.753 68.0286 179.18 66.8047C178.633 65.5547 177.799 64.5651 176.68 63.8359C175.56 63.1068 174.128 62.7422 172.383 62.7422C170.898 62.7422 169.622 63.0677 168.555 63.7188C167.487 64.3698 166.615 65.2812 165.938 66.4531C165.286 67.625 164.792 69.0052 164.453 70.5938C164.141 72.1562 163.984 73.875 163.984 75.75V77.3125C163.984 79.0052 164.219 80.5677 164.688 82C165.182 83.4323 165.872 84.6693 166.758 85.7109C167.669 86.7526 168.763 87.5599 170.039 88.1328C171.341 88.7057 172.812 88.9922 174.453 88.9922C176.484 88.9922 178.372 88.6016 180.117 87.8203C181.888 87.013 183.411 85.8021 184.688 84.1875L190.156 90.125C189.271 91.401 188.06 92.625 186.523 93.7969C185.013 94.9688 183.19 95.9323 181.055 96.6875C178.919 97.4167 176.484 97.7812 173.75 97.7812ZM206.562 54.7344L213.555 67.5859L220.742 54.7344H232.734L220.781 75.3984L233.281 97H221.25L213.633 83.4062L206.016 97H193.984L206.484 75.3984L194.531 54.7344H206.562ZM261.016 87.4688V68.6406C261.016 67.2865 260.794 66.1276 260.352 65.1641C259.909 64.1745 259.219 63.4062 258.281 62.8594C257.37 62.3125 256.185 62.0391 254.727 62.0391C253.477 62.0391 252.396 62.2604 251.484 62.7031C250.573 63.1198 249.87 63.7318 249.375 64.5391C248.88 65.3203 248.633 66.2448 248.633 67.3125H237.383C237.383 65.5156 237.799 63.8099 238.633 62.1953C239.466 60.5807 240.677 59.1615 242.266 57.9375C243.854 56.6875 245.742 55.7109 247.93 55.0078C250.143 54.3047 252.617 53.9531 255.352 53.9531C258.633 53.9531 261.549 54.5 264.102 55.5938C266.654 56.6875 268.659 58.3281 270.117 60.5156C271.602 62.7031 272.344 65.4375 272.344 68.7188V86.8047C272.344 89.1224 272.487 91.0234 272.773 92.5078C273.06 93.9661 273.477 95.2422 274.023 96.3359V97H262.656C262.109 95.8542 261.693 94.4219 261.406 92.7031C261.146 90.9583 261.016 89.2135 261.016 87.4688ZM262.5 71.2578L262.578 77.625H256.289C254.805 77.625 253.516 77.7943 252.422 78.1328C251.328 78.4714 250.43 78.9531 249.727 79.5781C249.023 80.1771 248.503 80.8802 248.164 81.6875C247.852 82.4948 247.695 83.3802 247.695 84.3438C247.695 85.3073 247.917 86.1797 248.359 86.9609C248.802 87.7161 249.44 88.3151 250.273 88.7578C251.107 89.1745 252.083 89.3828 253.203 89.3828C254.896 89.3828 256.367 89.0443 257.617 88.3672C258.867 87.6901 259.831 86.8568 260.508 85.8672C261.211 84.8776 261.576 83.9401 261.602 83.0547L264.57 87.8203C264.154 88.888 263.581 89.9948 262.852 91.1406C262.148 92.2865 261.25 93.3672 260.156 94.3828C259.062 95.3724 257.747 96.1927 256.211 96.8438C254.674 97.4688 252.852 97.7812 250.742 97.7812C248.06 97.7812 245.625 97.2474 243.438 96.1797C241.276 95.0859 239.557 93.5885 238.281 91.6875C237.031 89.7604 236.406 87.5729 236.406 85.125C236.406 82.9115 236.823 80.9453 237.656 79.2266C238.49 77.5078 239.714 76.0625 241.328 74.8906C242.969 73.6927 245.013 72.7943 247.461 72.1953C249.909 71.5703 252.747 71.2578 255.977 71.2578H262.5Z" fill="#004695"/>
</svg>
