<svg width="452" height="117" viewBox="0 0 452 117" fill="none" xmlns="http://www.w3.org/2000/svg">
<g opacity="0.3">
<path d="M100.727 42.3811H84.4351L76.9083 61.6053H90.6992L86.3875 81.8764H67.8528L58.8056 104H38.95L47.7978 81.8764H34.2893L25.4415 104H5.17051L14.0931 81.8764H1L5.31174 61.6053H23.0738L30.5924 42.3811H15.4805L19.8005 22.2513H39.5066L47.8643 1H68.1353L59.8441 22.2513H73.2861L81.652 1H101.915L93.5571 22.2513H105.047L100.727 42.3811ZM64.6543 42.2482H50.8634L43.0623 61.8878H56.9197L64.6543 42.2482Z" stroke="#E10613" stroke-miterlimit="10"/>
</g>
<path d="M113.047 78.1328H124.727C124.492 81.9609 123.438 85.3594 121.562 88.3281C119.714 91.2969 117.122 93.6146 113.789 95.2812C110.482 96.9479 106.497 97.7812 101.836 97.7812C98.1901 97.7812 94.9219 97.1562 92.0312 95.9062C89.1406 94.6302 86.6667 92.8073 84.6094 90.4375C82.5781 88.0677 81.0286 85.2031 79.9609 81.8438C78.8932 78.4844 78.3594 74.7214 78.3594 70.5547V66.6094C78.3594 62.4427 78.9062 58.6797 80 55.3203C81.1198 51.9349 82.7083 49.0573 84.7656 46.6875C86.849 44.3177 89.3359 42.4948 92.2266 41.2188C95.1172 39.9427 98.3464 39.3047 101.914 39.3047C106.654 39.3047 110.651 40.1641 113.906 41.8828C117.188 43.6016 119.727 45.9714 121.523 48.9922C123.346 52.013 124.44 55.4505 124.805 59.3047H113.086C112.956 57.013 112.5 55.0729 111.719 53.4844C110.938 51.8698 109.753 50.6589 108.164 49.8516C106.602 49.0182 104.518 48.6016 101.914 48.6016C99.9609 48.6016 98.2552 48.9661 96.7969 49.6953C95.3385 50.4245 94.1146 51.5312 93.125 53.0156C92.1354 54.5 91.3932 56.375 90.8984 58.6406C90.4297 60.8802 90.1953 63.5104 90.1953 66.5312V70.5547C90.1953 73.4974 90.4167 76.0885 90.8594 78.3281C91.3021 80.5417 91.9792 82.4167 92.8906 83.9531C93.8281 85.4635 95.026 86.6094 96.4844 87.3906C97.9688 88.1458 99.7526 88.5234 101.836 88.5234C104.284 88.5234 106.302 88.1328 107.891 87.3516C109.479 86.5703 110.69 85.4115 111.523 83.875C112.383 82.3385 112.891 80.4245 113.047 78.1328ZM129.922 76.2969V75.4766C129.922 72.3776 130.365 69.526 131.25 66.9219C132.135 64.2917 133.424 62.013 135.117 60.0859C136.81 58.1589 138.893 56.6615 141.367 55.5938C143.841 54.5 146.68 53.9531 149.883 53.9531C153.086 53.9531 155.938 54.5 158.438 55.5938C160.938 56.6615 163.034 58.1589 164.727 60.0859C166.445 62.013 167.747 64.2917 168.633 66.9219C169.518 69.526 169.961 72.3776 169.961 75.4766V76.2969C169.961 79.3698 169.518 82.2214 168.633 84.8516C167.747 87.4557 166.445 89.7344 164.727 91.6875C163.034 93.6146 160.951 95.112 158.477 96.1797C156.003 97.2474 153.164 97.7812 149.961 97.7812C146.758 97.7812 143.906 97.2474 141.406 96.1797C138.932 95.112 136.836 93.6146 135.117 91.6875C133.424 89.7344 132.135 87.4557 131.25 84.8516C130.365 82.2214 129.922 79.3698 129.922 76.2969ZM141.172 75.4766V76.2969C141.172 78.0677 141.328 79.7214 141.641 81.2578C141.953 82.7943 142.448 84.1484 143.125 85.3203C143.828 86.4661 144.74 87.3646 145.859 88.0156C146.979 88.6667 148.346 88.9922 149.961 88.9922C151.523 88.9922 152.865 88.6667 153.984 88.0156C155.104 87.3646 156.003 86.4661 156.68 85.3203C157.357 84.1484 157.852 82.7943 158.164 81.2578C158.503 79.7214 158.672 78.0677 158.672 76.2969V75.4766C158.672 73.7578 158.503 72.1432 158.164 70.6328C157.852 69.0964 157.344 67.7422 156.641 66.5703C155.964 65.3724 155.065 64.4349 153.945 63.7578C152.826 63.0807 151.471 62.7422 149.883 62.7422C148.294 62.7422 146.94 63.0807 145.82 63.7578C144.727 64.4349 143.828 65.3724 143.125 66.5703C142.448 67.7422 141.953 69.0964 141.641 70.6328C141.328 72.1432 141.172 73.7578 141.172 75.4766ZM187.891 63.7578V97H176.641V54.7344H187.188L187.891 63.7578ZM186.25 74.3828H183.203C183.203 71.2578 183.607 68.4453 184.414 65.9453C185.221 63.4193 186.354 61.2708 187.812 59.5C189.271 57.7031 191.003 56.3359 193.008 55.3984C195.039 54.4349 197.305 53.9531 199.805 53.9531C201.784 53.9531 203.594 54.2396 205.234 54.8125C206.875 55.3854 208.281 56.2969 209.453 57.5469C210.651 58.7969 211.562 60.4505 212.188 62.5078C212.839 64.5651 213.164 67.0781 213.164 70.0469V97H201.836V70.0078C201.836 68.1328 201.576 66.6745 201.055 65.6328C200.534 64.5911 199.766 63.862 198.75 63.4453C197.76 63.0026 196.536 62.7812 195.078 62.7812C193.568 62.7812 192.253 63.0807 191.133 63.6797C190.039 64.2786 189.128 65.112 188.398 66.1797C187.695 67.2214 187.161 68.4453 186.797 69.8516C186.432 71.2578 186.25 72.7682 186.25 74.3828ZM239.18 88.9922C240.56 88.9922 241.784 88.7318 242.852 88.2109C243.919 87.6641 244.753 86.9089 245.352 85.9453C245.977 84.9557 246.302 83.7969 246.328 82.4688H256.914C256.888 85.4375 256.094 88.0807 254.531 90.3984C252.969 92.6901 250.872 94.5 248.242 95.8281C245.612 97.1302 242.669 97.7812 239.414 97.7812C236.133 97.7812 233.268 97.2344 230.82 96.1406C228.398 95.0469 226.38 93.5365 224.766 91.6094C223.151 89.6562 221.94 87.3906 221.133 84.8125C220.326 82.2083 219.922 79.4219 219.922 76.4531V75.3203C219.922 72.3255 220.326 69.5391 221.133 66.9609C221.94 64.3568 223.151 62.0911 224.766 60.1641C226.38 58.2109 228.398 56.6875 230.82 55.5938C233.242 54.5 236.081 53.9531 239.336 53.9531C242.799 53.9531 245.833 54.6172 248.438 55.9453C251.068 57.2734 253.125 59.1745 254.609 61.6484C256.12 64.0964 256.888 67 256.914 70.3594H246.328C246.302 68.9531 246.003 67.6771 245.43 66.5312C244.883 65.3854 244.076 64.474 243.008 63.7969C241.966 63.0938 240.677 62.7422 239.141 62.7422C237.5 62.7422 236.159 63.0938 235.117 63.7969C234.076 64.474 233.268 65.4115 232.695 66.6094C232.122 67.7812 231.719 69.1224 231.484 70.6328C231.276 72.1172 231.172 73.6797 231.172 75.3203V76.4531C231.172 78.0938 231.276 79.6693 231.484 81.1797C231.693 82.6901 232.083 84.0312 232.656 85.2031C233.255 86.375 234.076 87.2995 235.117 87.9766C236.159 88.6536 237.513 88.9922 239.18 88.9922ZM275.312 54.7344V97H264.023V54.7344H275.312ZM263.32 43.7188C263.32 42.0781 263.893 40.724 265.039 39.6562C266.185 38.5885 267.721 38.0547 269.648 38.0547C271.549 38.0547 273.073 38.5885 274.219 39.6562C275.391 40.724 275.977 42.0781 275.977 43.7188C275.977 45.3594 275.391 46.7135 274.219 47.7812C273.073 48.849 271.549 49.3828 269.648 49.3828C267.721 49.3828 266.185 48.849 265.039 47.7812C263.893 46.7135 263.32 45.3594 263.32 43.7188ZM304.062 97.7812C300.781 97.7812 297.839 97.2604 295.234 96.2188C292.63 95.151 290.417 93.6797 288.594 91.8047C286.797 89.9297 285.417 87.7552 284.453 85.2812C283.49 82.7812 283.008 80.125 283.008 77.3125V75.75C283.008 72.5469 283.464 69.6172 284.375 66.9609C285.286 64.3047 286.589 62 288.281 60.0469C290 58.0938 292.083 56.5964 294.531 55.5547C296.979 54.487 299.74 53.9531 302.812 53.9531C305.807 53.9531 308.464 54.4479 310.781 55.4375C313.099 56.4271 315.039 57.8333 316.602 59.6562C318.19 61.4792 319.388 63.6667 320.195 66.2188C321.003 68.7448 321.406 71.5573 321.406 74.6562V79.3438H287.812V71.8438H310.352V70.9844C310.352 69.4219 310.065 68.0286 309.492 66.8047C308.945 65.5547 308.112 64.5651 306.992 63.8359C305.872 63.1068 304.44 62.7422 302.695 62.7422C301.211 62.7422 299.935 63.0677 298.867 63.7188C297.799 64.3698 296.927 65.2812 296.25 66.4531C295.599 67.625 295.104 69.0052 294.766 70.5938C294.453 72.1562 294.297 73.875 294.297 75.75V77.3125C294.297 79.0052 294.531 80.5677 295 82C295.495 83.4323 296.185 84.6693 297.07 85.7109C297.982 86.7526 299.076 87.5599 300.352 88.1328C301.654 88.7057 303.125 88.9922 304.766 88.9922C306.797 88.9922 308.685 88.6016 310.43 87.8203C312.201 87.013 313.724 85.8021 315 84.1875L320.469 90.125C319.583 91.401 318.372 92.625 316.836 93.7969C315.326 94.9688 313.503 95.9323 311.367 96.6875C309.232 97.4167 306.797 97.7812 304.062 97.7812ZM339.062 63.9531V97H327.812V54.7344H338.398L339.062 63.9531ZM351.797 54.4609L351.602 64.8906C351.055 64.8125 350.391 64.7474 349.609 64.6953C348.854 64.6172 348.164 64.5781 347.539 64.5781C345.951 64.5781 344.57 64.7865 343.398 65.2031C342.253 65.5938 341.289 66.1797 340.508 66.9609C339.753 67.7422 339.18 68.6927 338.789 69.8125C338.424 70.9323 338.216 72.2083 338.164 73.6406L335.898 72.9375C335.898 70.2031 336.172 67.6901 336.719 65.3984C337.266 63.0807 338.06 61.0625 339.102 59.3438C340.169 57.625 341.471 56.2969 343.008 55.3594C344.544 54.4219 346.302 53.9531 348.281 53.9531C348.906 53.9531 349.544 54.0052 350.195 54.1094C350.846 54.1875 351.38 54.3047 351.797 54.4609ZM383.086 54.7344H393.281V95.5938C393.281 99.4479 392.422 102.716 390.703 105.398C389.01 108.107 386.641 110.151 383.594 111.531C380.547 112.938 377.005 113.641 372.969 113.641C371.198 113.641 369.323 113.406 367.344 112.938C365.391 112.469 363.516 111.74 361.719 110.75C359.948 109.76 358.464 108.51 357.266 107L362.227 100.359C363.529 101.87 365.039 103.042 366.758 103.875C368.477 104.734 370.378 105.164 372.461 105.164C374.492 105.164 376.211 104.786 377.617 104.031C379.023 103.302 380.104 102.221 380.859 100.789C381.615 99.3828 381.992 97.6771 381.992 95.6719V64.5L383.086 54.7344ZM354.648 76.375V75.5547C354.648 72.3255 355.039 69.3958 355.82 66.7656C356.628 64.1094 357.76 61.8307 359.219 59.9297C360.703 58.0286 362.5 56.5573 364.609 55.5156C366.719 54.474 369.102 53.9531 371.758 53.9531C374.57 53.9531 376.927 54.474 378.828 55.5156C380.729 56.5573 382.292 58.0417 383.516 59.9688C384.74 61.8698 385.69 64.1224 386.367 66.7266C387.07 69.3047 387.617 72.1302 388.008 75.2031V77C387.617 79.9427 387.031 82.6771 386.25 85.2031C385.469 87.7292 384.44 89.9427 383.164 91.8438C381.888 93.7188 380.299 95.1771 378.398 96.2188C376.523 97.2604 374.284 97.7812 371.68 97.7812C369.076 97.7812 366.719 97.2474 364.609 96.1797C362.526 95.112 360.742 93.6146 359.258 91.6875C357.773 89.7604 356.628 87.4948 355.82 84.8906C355.039 82.2865 354.648 79.4479 354.648 76.375ZM365.898 75.5547V76.375C365.898 78.1198 366.068 79.7474 366.406 81.2578C366.745 82.7682 367.266 84.1094 367.969 85.2812C368.698 86.4271 369.596 87.3255 370.664 87.9766C371.758 88.6016 373.047 88.9141 374.531 88.9141C376.589 88.9141 378.268 88.4844 379.57 87.625C380.872 86.7396 381.849 85.5286 382.5 83.9922C383.151 82.4557 383.529 80.6849 383.633 78.6797V73.5625C383.581 71.9219 383.359 70.4505 382.969 69.1484C382.578 67.8203 382.031 66.6875 381.328 65.75C380.625 64.8125 379.714 64.0833 378.594 63.5625C377.474 63.0417 376.146 62.7812 374.609 62.7812C373.125 62.7812 371.836 63.1198 370.742 63.7969C369.674 64.4479 368.776 65.3464 368.047 66.4922C367.344 67.638 366.81 68.9922 366.445 70.5547C366.081 72.0911 365.898 73.7578 365.898 75.5547ZM421.484 97.7812C418.203 97.7812 415.26 97.2604 412.656 96.2188C410.052 95.151 407.839 93.6797 406.016 91.8047C404.219 89.9297 402.839 87.7552 401.875 85.2812C400.911 82.7812 400.43 80.125 400.43 77.3125V75.75C400.43 72.5469 400.885 69.6172 401.797 66.9609C402.708 64.3047 404.01 62 405.703 60.0469C407.422 58.0938 409.505 56.5964 411.953 55.5547C414.401 54.487 417.161 53.9531 420.234 53.9531C423.229 53.9531 425.885 54.4479 428.203 55.4375C430.521 56.4271 432.461 57.8333 434.023 59.6562C435.612 61.4792 436.81 63.6667 437.617 66.2188C438.424 68.7448 438.828 71.5573 438.828 74.6562V79.3438H405.234V71.8438H427.773V70.9844C427.773 69.4219 427.487 68.0286 426.914 66.8047C426.367 65.5547 425.534 64.5651 424.414 63.8359C423.294 63.1068 421.862 62.7422 420.117 62.7422C418.633 62.7422 417.357 63.0677 416.289 63.7188C415.221 64.3698 414.349 65.2812 413.672 66.4531C413.021 67.625 412.526 69.0052 412.188 70.5938C411.875 72.1562 411.719 73.875 411.719 75.75V77.3125C411.719 79.0052 411.953 80.5677 412.422 82C412.917 83.4323 413.607 84.6693 414.492 85.7109C415.404 86.7526 416.497 87.5599 417.773 88.1328C419.076 88.7057 420.547 88.9922 422.188 88.9922C424.219 88.9922 426.107 88.6016 427.852 87.8203C429.622 87.013 431.146 85.8021 432.422 84.1875L437.891 90.125C437.005 91.401 435.794 92.625 434.258 93.7969C432.747 94.9688 430.924 95.9323 428.789 96.6875C426.654 97.4167 424.219 97.7812 421.484 97.7812Z" fill="#004695"/>
</svg>
