<svg width="665" height="117" viewBox="0 0 665 117" fill="none" xmlns="http://www.w3.org/2000/svg">
<g opacity="0.3">
<path d="M100.727 42.3811H84.4351L76.9083 61.6053H90.6992L86.3875 81.8764H67.8528L58.8056 104H38.95L47.7978 81.8764H34.2893L25.4415 104H5.17051L14.0931 81.8764H1L5.31174 61.6053H23.0738L30.5924 42.3811H15.4805L19.8005 22.2513H39.5066L47.8643 1H68.1353L59.8441 22.2513H73.2861L81.652 1H101.915L93.5571 22.2513H105.047L100.727 42.3811ZM64.6543 42.2482H50.8634L43.0623 61.8878H56.9197L64.6543 42.2482Z" stroke="#E10613" stroke-miterlimit="10"/>
</g>
<path d="M85.4297 40.125H95.3516L109.961 81.8828L124.57 40.125H134.492L113.945 97H105.977L85.4297 40.125ZM80.0781 40.125H89.9609L91.7578 80.8281V97H80.0781V40.125ZM129.961 40.125H139.883V97H128.164V80.8281L129.961 40.125ZM172.266 87.4688V68.6406C172.266 67.2865 172.044 66.1276 171.602 65.1641C171.159 64.1745 170.469 63.4062 169.531 62.8594C168.62 62.3125 167.435 62.0391 165.977 62.0391C164.727 62.0391 163.646 62.2604 162.734 62.7031C161.823 63.1198 161.12 63.7318 160.625 64.5391C160.13 65.3203 159.883 66.2448 159.883 67.3125H148.633C148.633 65.5156 149.049 63.8099 149.883 62.1953C150.716 60.5807 151.927 59.1615 153.516 57.9375C155.104 56.6875 156.992 55.7109 159.18 55.0078C161.393 54.3047 163.867 53.9531 166.602 53.9531C169.883 53.9531 172.799 54.5 175.352 55.5938C177.904 56.6875 179.909 58.3281 181.367 60.5156C182.852 62.7031 183.594 65.4375 183.594 68.7188V86.8047C183.594 89.1224 183.737 91.0234 184.023 92.5078C184.31 93.9661 184.727 95.2422 185.273 96.3359V97H173.906C173.359 95.8542 172.943 94.4219 172.656 92.7031C172.396 90.9583 172.266 89.2135 172.266 87.4688ZM173.75 71.2578L173.828 77.625H167.539C166.055 77.625 164.766 77.7943 163.672 78.1328C162.578 78.4714 161.68 78.9531 160.977 79.5781C160.273 80.1771 159.753 80.8802 159.414 81.6875C159.102 82.4948 158.945 83.3802 158.945 84.3438C158.945 85.3073 159.167 86.1797 159.609 86.9609C160.052 87.7161 160.69 88.3151 161.523 88.7578C162.357 89.1745 163.333 89.3828 164.453 89.3828C166.146 89.3828 167.617 89.0443 168.867 88.3672C170.117 87.6901 171.081 86.8568 171.758 85.8672C172.461 84.8776 172.826 83.9401 172.852 83.0547L175.82 87.8203C175.404 88.888 174.831 89.9948 174.102 91.1406C173.398 92.2865 172.5 93.3672 171.406 94.3828C170.312 95.3724 168.997 96.1927 167.461 96.8438C165.924 97.4688 164.102 97.7812 161.992 97.7812C159.31 97.7812 156.875 97.2474 154.688 96.1797C152.526 95.0859 150.807 93.5885 149.531 91.6875C148.281 89.7604 147.656 87.5729 147.656 85.125C147.656 82.9115 148.073 80.9453 148.906 79.2266C149.74 77.5078 150.964 76.0625 152.578 74.8906C154.219 73.6927 156.263 72.7943 158.711 72.1953C161.159 71.5703 163.997 71.2578 167.227 71.2578H173.75ZM203.516 63.9531V97H192.266V54.7344H202.852L203.516 63.9531ZM216.25 54.4609L216.055 64.8906C215.508 64.8125 214.844 64.7474 214.062 64.6953C213.307 64.6172 212.617 64.5781 211.992 64.5781C210.404 64.5781 209.023 64.7865 207.852 65.2031C206.706 65.5938 205.742 66.1797 204.961 66.9609C204.206 67.7422 203.633 68.6927 203.242 69.8125C202.878 70.9323 202.669 72.2083 202.617 73.6406L200.352 72.9375C200.352 70.2031 200.625 67.6901 201.172 65.3984C201.719 63.0807 202.513 61.0625 203.555 59.3438C204.622 57.625 205.924 56.2969 207.461 55.3594C208.997 54.4219 210.755 53.9531 212.734 53.9531C213.359 53.9531 213.997 54.0052 214.648 54.1094C215.299 54.1875 215.833 54.3047 216.25 54.4609ZM232.812 36.9609V97H221.562V36.9609H232.812ZM259.453 54.7344L241.094 75.6719L231.25 85.6328L227.148 77.5078L234.961 67.5859L245.938 54.7344H259.453ZM247.773 97L235.273 77.4688L243.047 70.6719L260.742 97H247.773ZM282.969 97.7812C279.688 97.7812 276.745 97.2604 274.141 96.2188C271.536 95.151 269.323 93.6797 267.5 91.8047C265.703 89.9297 264.323 87.7552 263.359 85.2812C262.396 82.7812 261.914 80.125 261.914 77.3125V75.75C261.914 72.5469 262.37 69.6172 263.281 66.9609C264.193 64.3047 265.495 62 267.188 60.0469C268.906 58.0938 270.99 56.5964 273.438 55.5547C275.885 54.487 278.646 53.9531 281.719 53.9531C284.714 53.9531 287.37 54.4479 289.688 55.4375C292.005 56.4271 293.945 57.8333 295.508 59.6562C297.096 61.4792 298.294 63.6667 299.102 66.2188C299.909 68.7448 300.312 71.5573 300.312 74.6562V79.3438H266.719V71.8438H289.258V70.9844C289.258 69.4219 288.971 68.0286 288.398 66.8047C287.852 65.5547 287.018 64.5651 285.898 63.8359C284.779 63.1068 283.346 62.7422 281.602 62.7422C280.117 62.7422 278.841 63.0677 277.773 63.7188C276.706 64.3698 275.833 65.2812 275.156 66.4531C274.505 67.625 274.01 69.0052 273.672 70.5938C273.359 72.1562 273.203 73.875 273.203 75.75V77.3125C273.203 79.0052 273.438 80.5677 273.906 82C274.401 83.4323 275.091 84.6693 275.977 85.7109C276.888 86.7526 277.982 87.5599 279.258 88.1328C280.56 88.7057 282.031 88.9922 283.672 88.9922C285.703 88.9922 287.591 88.6016 289.336 87.8203C291.107 87.013 292.63 85.8021 293.906 84.1875L299.375 90.125C298.49 91.401 297.279 92.625 295.742 93.7969C294.232 94.9688 292.409 95.9323 290.273 96.6875C288.138 97.4167 285.703 97.7812 282.969 97.7812ZM327.422 54.7344V62.7031H302.812V54.7344H327.422ZM308.906 44.3047H320.156V84.2656C320.156 85.4896 320.312 86.4271 320.625 87.0781C320.964 87.7292 321.458 88.1849 322.109 88.4453C322.76 88.6797 323.581 88.7969 324.57 88.7969C325.273 88.7969 325.898 88.7708 326.445 88.7188C327.018 88.6406 327.5 88.5625 327.891 88.4844L327.93 96.7656C326.966 97.0781 325.924 97.3255 324.805 97.5078C323.685 97.6901 322.448 97.7812 321.094 97.7812C318.62 97.7812 316.458 97.3776 314.609 96.5703C312.786 95.737 311.38 94.4089 310.391 92.5859C309.401 90.763 308.906 88.3672 308.906 85.3984V44.3047ZM345.078 62.8594V113.25H333.828V54.7344H344.258L345.078 62.8594ZM371.836 75.3984V76.2188C371.836 79.2917 371.471 82.1432 370.742 84.7734C370.039 87.4036 368.997 89.6953 367.617 91.6484C366.237 93.5755 364.518 95.0859 362.461 96.1797C360.43 97.2474 358.086 97.7812 355.43 97.7812C352.852 97.7812 350.612 97.2604 348.711 96.2188C346.81 95.1771 345.208 93.7188 343.906 91.8438C342.63 89.9427 341.602 87.7422 340.82 85.2422C340.039 82.7422 339.44 80.0599 339.023 77.1953V75.0469C339.44 71.974 340.039 69.1615 340.82 66.6094C341.602 64.0312 342.63 61.8047 343.906 59.9297C345.208 58.0286 346.797 56.5573 348.672 55.5156C350.573 54.474 352.799 53.9531 355.352 53.9531C358.034 53.9531 360.391 54.4609 362.422 55.4766C364.479 56.4922 366.198 57.9505 367.578 59.8516C368.984 61.7526 370.039 64.0182 370.742 66.6484C371.471 69.2786 371.836 72.1953 371.836 75.3984ZM360.547 76.2188V75.3984C360.547 73.6016 360.391 71.9479 360.078 70.4375C359.792 68.901 359.323 67.5599 358.672 66.4141C358.047 65.2682 357.214 64.3828 356.172 63.7578C355.156 63.1068 353.919 62.7812 352.461 62.7812C350.924 62.7812 349.609 63.0286 348.516 63.5234C347.448 64.0182 346.576 64.7344 345.898 65.6719C345.221 66.6094 344.714 67.7292 344.375 69.0312C344.036 70.3333 343.828 71.8047 343.75 73.4453V78.875C343.88 80.8021 344.245 82.5339 344.844 84.0703C345.443 85.5807 346.367 86.7786 347.617 87.6641C348.867 88.5495 350.508 88.9922 352.539 88.9922C354.023 88.9922 355.273 88.6667 356.289 88.0156C357.305 87.3385 358.125 86.4141 358.75 85.2422C359.401 84.0703 359.857 82.7161 360.117 81.1797C360.404 79.6432 360.547 77.9896 360.547 76.2188ZM390.703 37V97H379.414V37H390.703ZM422.812 87.4688V68.6406C422.812 67.2865 422.591 66.1276 422.148 65.1641C421.706 64.1745 421.016 63.4062 420.078 62.8594C419.167 62.3125 417.982 62.0391 416.523 62.0391C415.273 62.0391 414.193 62.2604 413.281 62.7031C412.37 63.1198 411.667 63.7318 411.172 64.5391C410.677 65.3203 410.43 66.2448 410.43 67.3125H399.18C399.18 65.5156 399.596 63.8099 400.43 62.1953C401.263 60.5807 402.474 59.1615 404.062 57.9375C405.651 56.6875 407.539 55.7109 409.727 55.0078C411.94 54.3047 414.414 53.9531 417.148 53.9531C420.43 53.9531 423.346 54.5 425.898 55.5938C428.451 56.6875 430.456 58.3281 431.914 60.5156C433.398 62.7031 434.141 65.4375 434.141 68.7188V86.8047C434.141 89.1224 434.284 91.0234 434.57 92.5078C434.857 93.9661 435.273 95.2422 435.82 96.3359V97H424.453C423.906 95.8542 423.49 94.4219 423.203 92.7031C422.943 90.9583 422.812 89.2135 422.812 87.4688ZM424.297 71.2578L424.375 77.625H418.086C416.602 77.625 415.312 77.7943 414.219 78.1328C413.125 78.4714 412.227 78.9531 411.523 79.5781C410.82 80.1771 410.299 80.8802 409.961 81.6875C409.648 82.4948 409.492 83.3802 409.492 84.3438C409.492 85.3073 409.714 86.1797 410.156 86.9609C410.599 87.7161 411.237 88.3151 412.07 88.7578C412.904 89.1745 413.88 89.3828 415 89.3828C416.693 89.3828 418.164 89.0443 419.414 88.3672C420.664 87.6901 421.628 86.8568 422.305 85.8672C423.008 84.8776 423.372 83.9401 423.398 83.0547L426.367 87.8203C425.951 88.888 425.378 89.9948 424.648 91.1406C423.945 92.2865 423.047 93.3672 421.953 94.3828C420.859 95.3724 419.544 96.1927 418.008 96.8438C416.471 97.4688 414.648 97.7812 412.539 97.7812C409.857 97.7812 407.422 97.2474 405.234 96.1797C403.073 95.0859 401.354 93.5885 400.078 91.6875C398.828 89.7604 398.203 87.5729 398.203 85.125C398.203 82.9115 398.62 80.9453 399.453 79.2266C400.286 77.5078 401.51 76.0625 403.125 74.8906C404.766 73.6927 406.81 72.7943 409.258 72.1953C411.706 71.5703 414.544 71.2578 417.773 71.2578H424.297ZM460.273 88.9922C461.654 88.9922 462.878 88.7318 463.945 88.2109C465.013 87.6641 465.846 86.9089 466.445 85.9453C467.07 84.9557 467.396 83.7969 467.422 82.4688H478.008C477.982 85.4375 477.188 88.0807 475.625 90.3984C474.062 92.6901 471.966 94.5 469.336 95.8281C466.706 97.1302 463.763 97.7812 460.508 97.7812C457.227 97.7812 454.362 97.2344 451.914 96.1406C449.492 95.0469 447.474 93.5365 445.859 91.6094C444.245 89.6562 443.034 87.3906 442.227 84.8125C441.419 82.2083 441.016 79.4219 441.016 76.4531V75.3203C441.016 72.3255 441.419 69.5391 442.227 66.9609C443.034 64.3568 444.245 62.0911 445.859 60.1641C447.474 58.2109 449.492 56.6875 451.914 55.5938C454.336 54.5 457.174 53.9531 460.43 53.9531C463.893 53.9531 466.927 54.6172 469.531 55.9453C472.161 57.2734 474.219 59.1745 475.703 61.6484C477.214 64.0964 477.982 67 478.008 70.3594H467.422C467.396 68.9531 467.096 67.6771 466.523 66.5312C465.977 65.3854 465.169 64.474 464.102 63.7969C463.06 63.0938 461.771 62.7422 460.234 62.7422C458.594 62.7422 457.253 63.0938 456.211 63.7969C455.169 64.474 454.362 65.4115 453.789 66.6094C453.216 67.7812 452.812 69.1224 452.578 70.6328C452.37 72.1172 452.266 73.6797 452.266 75.3203V76.4531C452.266 78.0938 452.37 79.6693 452.578 81.1797C452.786 82.6901 453.177 84.0312 453.75 85.2031C454.349 86.375 455.169 87.2995 456.211 87.9766C457.253 88.6536 458.607 88.9922 460.273 88.9922ZM503.984 97.7812C500.703 97.7812 497.76 97.2604 495.156 96.2188C492.552 95.151 490.339 93.6797 488.516 91.8047C486.719 89.9297 485.339 87.7552 484.375 85.2812C483.411 82.7812 482.93 80.125 482.93 77.3125V75.75C482.93 72.5469 483.385 69.6172 484.297 66.9609C485.208 64.3047 486.51 62 488.203 60.0469C489.922 58.0938 492.005 56.5964 494.453 55.5547C496.901 54.487 499.661 53.9531 502.734 53.9531C505.729 53.9531 508.385 54.4479 510.703 55.4375C513.021 56.4271 514.961 57.8333 516.523 59.6562C518.112 61.4792 519.31 63.6667 520.117 66.2188C520.924 68.7448 521.328 71.5573 521.328 74.6562V79.3438H487.734V71.8438H510.273V70.9844C510.273 69.4219 509.987 68.0286 509.414 66.8047C508.867 65.5547 508.034 64.5651 506.914 63.8359C505.794 63.1068 504.362 62.7422 502.617 62.7422C501.133 62.7422 499.857 63.0677 498.789 63.7188C497.721 64.3698 496.849 65.2812 496.172 66.4531C495.521 67.625 495.026 69.0052 494.688 70.5938C494.375 72.1562 494.219 73.875 494.219 75.75V77.3125C494.219 79.0052 494.453 80.5677 494.922 82C495.417 83.4323 496.107 84.6693 496.992 85.7109C497.904 86.7526 498.997 87.5599 500.273 88.1328C501.576 88.7057 503.047 88.9922 504.688 88.9922C506.719 88.9922 508.607 88.6016 510.352 87.8203C512.122 87.013 513.646 85.8021 514.922 84.1875L520.391 90.125C519.505 91.401 518.294 92.625 516.758 93.7969C515.247 94.9688 513.424 95.9323 511.289 96.6875C509.154 97.4167 506.719 97.7812 503.984 97.7812Z" fill="#004695"/>
</svg>
