<svg width="549" height="105" viewBox="0 0 549 105" fill="none" xmlns="http://www.w3.org/2000/svg">
<g opacity="0.3">
<path d="M100.727 42.3811H84.4351L76.9083 61.6054H90.6992L86.3875 81.8764H67.8528L58.8056 104H38.95L47.7978 81.8764H34.2893L25.4415 104H5.17051L14.0931 81.8764H1L5.31174 61.6054H23.0738L30.5924 42.3811H15.4805L19.8005 22.2514H39.5066L47.8643 1.00003H68.1353L59.8441 22.2514H73.2861L81.652 1.00003H101.915L93.5571 22.2514H105.047L100.727 42.3811ZM64.6543 42.2482H50.8634L43.0623 61.8878H56.9197L64.6543 42.2482Z" stroke="#E10613" stroke-miterlimit="10"/>
</g>
<path d="M92.625 49.8594V100.25H81.375V41.7344H91.8047L92.625 49.8594ZM119.383 62.3984V63.2188C119.383 66.2917 119.018 69.1432 118.289 71.7734C117.586 74.4036 116.544 76.6953 115.164 78.6484C113.784 80.5755 112.065 82.0859 110.008 83.1797C107.977 84.2474 105.633 84.7812 102.977 84.7812C100.398 84.7812 98.1589 84.2604 96.2578 83.2188C94.3568 82.1771 92.7552 80.7188 91.4531 78.8438C90.1771 76.9427 89.1484 74.7422 88.3672 72.2422C87.5859 69.7422 86.987 67.0599 86.5703 64.1953V62.0469C86.987 58.974 87.5859 56.1615 88.3672 53.6094C89.1484 51.0312 90.1771 48.8047 91.4531 46.9297C92.7552 45.0286 94.3438 43.5573 96.2188 42.5156C98.1198 41.474 100.346 40.9531 102.898 40.9531C105.581 40.9531 107.938 41.4609 109.969 42.4766C112.026 43.4922 113.745 44.9505 115.125 46.8516C116.531 48.7526 117.586 51.0182 118.289 53.6484C119.018 56.2786 119.383 59.1953 119.383 62.3984ZM108.094 63.2188V62.3984C108.094 60.6016 107.938 58.9479 107.625 57.4375C107.339 55.901 106.87 54.5599 106.219 53.4141C105.594 52.2682 104.76 51.3828 103.719 50.7578C102.703 50.1068 101.466 49.7812 100.008 49.7812C98.4714 49.7812 97.1562 50.0286 96.0625 50.5234C94.9948 51.0182 94.1224 51.7344 93.4453 52.6719C92.7682 53.6094 92.2604 54.7292 91.9219 56.0312C91.5833 57.3333 91.375 58.8047 91.2969 60.4453V65.875C91.4271 67.8021 91.7917 69.5339 92.3906 71.0703C92.9896 72.5807 93.9141 73.7786 95.1641 74.6641C96.4141 75.5495 98.0547 75.9922 100.086 75.9922C101.57 75.9922 102.82 75.6667 103.836 75.0156C104.852 74.3385 105.672 73.4141 106.297 72.2422C106.948 71.0703 107.404 69.7161 107.664 68.1797C107.951 66.6432 108.094 64.9896 108.094 63.2188ZM137.625 50.4844V84H126.336V41.7344H136.922L137.625 50.4844ZM136.062 61.3828H132.938C132.938 58.4401 133.289 55.7318 133.992 53.2578C134.721 50.7578 135.776 48.5964 137.156 46.7734C138.562 44.9245 140.294 43.4922 142.352 42.4766C144.409 41.4609 146.792 40.9531 149.5 40.9531C151.375 40.9531 153.094 41.2396 154.656 41.8125C156.219 42.3594 157.56 43.2318 158.68 44.4297C159.826 45.6016 160.711 47.138 161.336 49.0391C161.961 50.9141 162.273 53.1667 162.273 55.7969V84H151.023V57.0469C151.023 55.1198 150.763 53.6354 150.242 52.5938C149.721 51.5521 148.979 50.8229 148.016 50.4062C147.078 49.9896 145.945 49.7812 144.617 49.7812C143.159 49.7812 141.883 50.0807 140.789 50.6797C139.721 51.2786 138.836 52.112 138.133 53.1797C137.43 54.2214 136.909 55.4453 136.57 56.8516C136.232 58.2578 136.062 59.7682 136.062 61.3828ZM161.219 60.0938L157.195 60.6016C157.195 57.8411 157.534 55.276 158.211 52.9062C158.914 50.5365 159.943 48.4531 161.297 46.6562C162.677 44.8594 164.383 43.4661 166.414 42.4766C168.445 41.4609 170.789 40.9531 173.445 40.9531C175.477 40.9531 177.326 41.2526 178.992 41.8516C180.659 42.4245 182.078 43.349 183.25 44.625C184.448 45.875 185.359 47.5156 185.984 49.5469C186.635 51.5781 186.961 54.0651 186.961 57.0078V84H175.672V57.0078C175.672 55.0547 175.411 53.5703 174.891 52.5547C174.396 51.513 173.667 50.7969 172.703 50.4062C171.766 49.9896 170.646 49.7812 169.344 49.7812C167.99 49.7812 166.805 50.0547 165.789 50.6016C164.773 51.1224 163.927 51.8516 163.25 52.7891C162.573 53.7266 162.065 54.8203 161.727 56.0703C161.388 57.2943 161.219 58.6354 161.219 60.0938ZM215.125 84.7812C211.844 84.7812 208.901 84.2604 206.297 83.2188C203.693 82.151 201.479 80.6797 199.656 78.8047C197.859 76.9297 196.479 74.7552 195.516 72.2812C194.552 69.7812 194.07 67.125 194.07 64.3125V62.75C194.07 59.5469 194.526 56.6172 195.438 53.9609C196.349 51.3047 197.651 49 199.344 47.0469C201.062 45.0938 203.146 43.5964 205.594 42.5547C208.042 41.487 210.802 40.9531 213.875 40.9531C216.87 40.9531 219.526 41.4479 221.844 42.4375C224.161 43.4271 226.102 44.8333 227.664 46.6562C229.253 48.4792 230.451 50.6667 231.258 53.2188C232.065 55.7448 232.469 58.5573 232.469 61.6562V66.3438H198.875V58.8438H221.414V57.9844C221.414 56.4219 221.128 55.0286 220.555 53.8047C220.008 52.5547 219.174 51.5651 218.055 50.8359C216.935 50.1068 215.503 49.7422 213.758 49.7422C212.273 49.7422 210.997 50.0677 209.93 50.7188C208.862 51.3698 207.99 52.2812 207.312 53.4531C206.661 54.625 206.167 56.0052 205.828 57.5938C205.516 59.1562 205.359 60.875 205.359 62.75V64.3125C205.359 66.0052 205.594 67.5677 206.062 69C206.557 70.4323 207.247 71.6693 208.133 72.7109C209.044 73.7526 210.138 74.5599 211.414 75.1328C212.716 75.7057 214.188 75.9922 215.828 75.9922C217.859 75.9922 219.747 75.6016 221.492 74.8203C223.263 74.013 224.786 72.8021 226.062 71.1875L231.531 77.125C230.646 78.401 229.435 79.625 227.898 80.7969C226.388 81.9688 224.565 82.9323 222.43 83.6875C220.294 84.4167 217.859 84.7812 215.125 84.7812ZM249.891 50.7578V84H238.641V41.7344H249.188L249.891 50.7578ZM248.25 61.3828H245.203C245.203 58.2578 245.607 55.4453 246.414 52.9453C247.221 50.4193 248.354 48.2708 249.812 46.5C251.271 44.7031 253.003 43.3359 255.008 42.3984C257.039 41.4349 259.305 40.9531 261.805 40.9531C263.784 40.9531 265.594 41.2396 267.234 41.8125C268.875 42.3854 270.281 43.2969 271.453 44.5469C272.651 45.7969 273.562 47.4505 274.188 49.5078C274.839 51.5651 275.164 54.0781 275.164 57.0469V84H263.836V57.0078C263.836 55.1328 263.576 53.6745 263.055 52.6328C262.534 51.5911 261.766 50.862 260.75 50.4453C259.76 50.0026 258.536 49.7812 257.078 49.7812C255.568 49.7812 254.253 50.0807 253.133 50.6797C252.039 51.2786 251.128 52.112 250.398 53.1797C249.695 54.2214 249.161 55.4453 248.797 56.8516C248.432 58.2578 248.25 59.7682 248.25 61.3828ZM281.922 63.2969V62.4766C281.922 59.3776 282.365 56.526 283.25 53.9219C284.135 51.2917 285.424 49.013 287.117 47.0859C288.81 45.1589 290.893 43.6615 293.367 42.5938C295.841 41.5 298.68 40.9531 301.883 40.9531C305.086 40.9531 307.938 41.5 310.438 42.5938C312.938 43.6615 315.034 45.1589 316.727 47.0859C318.445 49.013 319.747 51.2917 320.633 53.9219C321.518 56.526 321.961 59.3776 321.961 62.4766V63.2969C321.961 66.3698 321.518 69.2214 320.633 71.8516C319.747 74.4557 318.445 76.7344 316.727 78.6875C315.034 80.6146 312.951 82.112 310.477 83.1797C308.003 84.2474 305.164 84.7812 301.961 84.7812C298.758 84.7812 295.906 84.2474 293.406 83.1797C290.932 82.112 288.836 80.6146 287.117 78.6875C285.424 76.7344 284.135 74.4557 283.25 71.8516C282.365 69.2214 281.922 66.3698 281.922 63.2969ZM293.172 62.4766V63.2969C293.172 65.0677 293.328 66.7214 293.641 68.2578C293.953 69.7943 294.448 71.1484 295.125 72.3203C295.828 73.4661 296.74 74.3646 297.859 75.0156C298.979 75.6667 300.346 75.9922 301.961 75.9922C303.523 75.9922 304.865 75.6667 305.984 75.0156C307.104 74.3646 308.003 73.4661 308.68 72.3203C309.357 71.1484 309.852 69.7943 310.164 68.2578C310.503 66.7214 310.672 65.0677 310.672 63.2969V62.4766C310.672 60.7578 310.503 59.1432 310.164 57.6328C309.852 56.0964 309.344 54.7422 308.641 53.5703C307.964 52.3724 307.065 51.4349 305.945 50.7578C304.826 50.0807 303.471 49.7422 301.883 49.7422C300.294 49.7422 298.94 50.0807 297.82 50.7578C296.727 51.4349 295.828 52.3724 295.125 53.5703C294.448 54.7422 293.953 56.0964 293.641 57.6328C293.328 59.1432 293.172 60.7578 293.172 62.4766ZM351.727 72.3203C351.727 71.513 351.492 70.7839 351.023 70.1328C350.555 69.4818 349.682 68.8828 348.406 68.3359C347.156 67.763 345.346 67.2422 342.977 66.7734C340.841 66.3047 338.849 65.7188 337 65.0156C335.177 64.2865 333.589 63.4141 332.234 62.3984C330.906 61.3828 329.865 60.1849 329.109 58.8047C328.354 57.3984 327.977 55.7969 327.977 54C327.977 52.2292 328.354 50.5625 329.109 49C329.891 47.4375 330.997 46.0573 332.43 44.8594C333.888 43.6354 335.659 42.6849 337.742 42.0078C339.852 41.3047 342.221 40.9531 344.852 40.9531C348.523 40.9531 351.674 41.5391 354.305 42.7109C356.961 43.8828 358.992 45.4974 360.398 47.5547C361.831 49.5859 362.547 51.9036 362.547 54.5078H351.297C351.297 53.4141 351.062 52.4375 350.594 51.5781C350.151 50.6927 349.448 50.0026 348.484 49.5078C347.547 48.987 346.323 48.7266 344.812 48.7266C343.562 48.7266 342.482 48.9479 341.57 49.3906C340.659 49.8073 339.956 50.3802 339.461 51.1094C338.992 51.8125 338.758 52.5938 338.758 53.4531C338.758 54.1042 338.888 54.6901 339.148 55.2109C339.435 55.7057 339.891 56.1615 340.516 56.5781C341.141 56.9948 341.948 57.3854 342.938 57.75C343.953 58.0885 345.203 58.401 346.688 58.6875C349.734 59.3125 352.456 60.1328 354.852 61.1484C357.247 62.138 359.148 63.4922 360.555 65.2109C361.961 66.9036 362.664 69.1302 362.664 71.8906C362.664 73.7656 362.247 75.4844 361.414 77.0469C360.581 78.6094 359.383 79.9766 357.82 81.1484C356.258 82.2943 354.383 83.1927 352.195 83.8438C350.034 84.4688 347.599 84.7812 344.891 84.7812C340.958 84.7812 337.625 84.0781 334.891 82.6719C332.182 81.2656 330.125 79.4818 328.719 77.3203C327.339 75.1328 326.648 72.8932 326.648 70.6016H337.312C337.365 72.138 337.755 73.375 338.484 74.3125C339.24 75.25 340.19 75.9271 341.336 76.3438C342.508 76.7604 343.771 76.9688 345.125 76.9688C346.583 76.9688 347.794 76.7734 348.758 76.3828C349.721 75.9661 350.451 75.4193 350.945 74.7422C351.466 74.0391 351.727 73.2318 351.727 72.3203ZM390.672 41.7344V49.7031H366.062V41.7344H390.672ZM372.156 31.3047H383.406V71.2656C383.406 72.4896 383.562 73.4271 383.875 74.0781C384.214 74.7292 384.708 75.1849 385.359 75.4453C386.01 75.6797 386.831 75.7969 387.82 75.7969C388.523 75.7969 389.148 75.7708 389.695 75.7188C390.268 75.6406 390.75 75.5625 391.141 75.4844L391.18 83.7656C390.216 84.0781 389.174 84.3255 388.055 84.5078C386.935 84.6901 385.698 84.7812 384.344 84.7812C381.87 84.7812 379.708 84.3776 377.859 83.5703C376.036 82.737 374.63 81.4089 373.641 79.5859C372.651 77.763 372.156 75.3672 372.156 72.3984V31.3047ZM419.891 74.4688V55.6406C419.891 54.2865 419.669 53.1276 419.227 52.1641C418.784 51.1745 418.094 50.4062 417.156 49.8594C416.245 49.3125 415.06 49.0391 413.602 49.0391C412.352 49.0391 411.271 49.2604 410.359 49.7031C409.448 50.1198 408.745 50.7318 408.25 51.5391C407.755 52.3203 407.508 53.2448 407.508 54.3125H396.258C396.258 52.5156 396.674 50.8099 397.508 49.1953C398.341 47.5807 399.552 46.1615 401.141 44.9375C402.729 43.6875 404.617 42.7109 406.805 42.0078C409.018 41.3047 411.492 40.9531 414.227 40.9531C417.508 40.9531 420.424 41.5 422.977 42.5938C425.529 43.6875 427.534 45.3281 428.992 47.5156C430.477 49.7031 431.219 52.4375 431.219 55.7188V73.8047C431.219 76.1224 431.362 78.0234 431.648 79.5078C431.935 80.9661 432.352 82.2422 432.898 83.3359V84H421.531C420.984 82.8542 420.568 81.4219 420.281 79.7031C420.021 77.9583 419.891 76.2135 419.891 74.4688ZM421.375 58.2578L421.453 64.625H415.164C413.68 64.625 412.391 64.7943 411.297 65.1328C410.203 65.4714 409.305 65.9531 408.602 66.5781C407.898 67.1771 407.378 67.8802 407.039 68.6875C406.727 69.4948 406.57 70.3802 406.57 71.3438C406.57 72.3073 406.792 73.1797 407.234 73.9609C407.677 74.7161 408.315 75.3151 409.148 75.7578C409.982 76.1745 410.958 76.3828 412.078 76.3828C413.771 76.3828 415.242 76.0443 416.492 75.3672C417.742 74.6901 418.706 73.8568 419.383 72.8672C420.086 71.8776 420.451 70.9401 420.477 70.0547L423.445 74.8203C423.029 75.888 422.456 76.9948 421.727 78.1406C421.023 79.2865 420.125 80.3672 419.031 81.3828C417.938 82.3724 416.622 83.1927 415.086 83.8438C413.549 84.4688 411.727 84.7812 409.617 84.7812C406.935 84.7812 404.5 84.2474 402.312 83.1797C400.151 82.0859 398.432 80.5885 397.156 78.6875C395.906 76.7604 395.281 74.5729 395.281 72.125C395.281 69.9115 395.698 67.9453 396.531 66.2266C397.365 64.5078 398.589 63.0625 400.203 61.8906C401.844 60.6927 403.888 59.7943 406.336 59.1953C408.784 58.5703 411.622 58.2578 414.852 58.2578H421.375ZM451.766 24V84H440.477V24H451.766ZM472.312 23.9609V84H461.062V23.9609H472.312ZM498.953 41.7344L480.594 62.6719L470.75 72.6328L466.648 64.5078L474.461 54.5859L485.438 41.7344H498.953ZM487.273 84L474.773 64.4688L482.547 57.6719L500.242 84H487.273Z" fill="#004695"/>
</svg>
