<svg width="357" height="105" viewBox="0 0 357 105" fill="none" xmlns="http://www.w3.org/2000/svg">
<g opacity="0.3">
<path d="M100.727 42.3811H84.4351L76.9083 61.6054H90.6992L86.3875 81.8764H67.8528L58.8056 104H38.95L47.7978 81.8764H34.2893L25.4415 104H5.17051L14.0931 81.8764H1L5.31174 61.6054H23.0738L30.5924 42.3811H15.4805L19.8005 22.2514H39.5066L47.8643 1.00003H68.1353L59.8441 22.2514H73.2861L81.652 1.00003H101.915L93.5571 22.2514H105.047L100.727 42.3811ZM64.6543 42.2482H50.8634L43.0623 61.8878H56.9197L64.6543 42.2482Z" stroke="#E10613" stroke-miterlimit="10"/>
</g>
<path d="M106.375 73.8828V41.7344H117.625V84H107.039L106.375 73.8828ZM107.625 65.2109L110.945 65.1328C110.945 67.9453 110.62 70.5625 109.969 72.9844C109.318 75.3802 108.341 77.4635 107.039 79.2344C105.737 80.9792 104.096 82.3464 102.117 83.3359C100.138 84.2995 97.8073 84.7812 95.125 84.7812C93.0677 84.7812 91.1667 84.4948 89.4219 83.9219C87.7031 83.3229 86.2188 82.3984 84.9688 81.1484C83.7448 79.8724 82.7812 78.2448 82.0781 76.2656C81.401 74.2604 81.0625 71.8516 81.0625 69.0391V41.7344H92.3125V69.1172C92.3125 70.3672 92.4557 71.4219 92.7422 72.2812C93.0547 73.1406 93.4844 73.8438 94.0312 74.3906C94.5781 74.9375 95.2161 75.3281 95.9453 75.5625C96.7005 75.7969 97.5339 75.9141 98.4453 75.9141C100.763 75.9141 102.586 75.4453 103.914 74.5078C105.268 73.5703 106.219 72.2943 106.766 70.6797C107.339 69.0391 107.625 67.2161 107.625 65.2109ZM137.469 49.8594V100.25H126.219V41.7344H136.648L137.469 49.8594ZM164.227 62.3984V63.2188C164.227 66.2917 163.862 69.1432 163.133 71.7734C162.43 74.4036 161.388 76.6953 160.008 78.6484C158.628 80.5755 156.909 82.0859 154.852 83.1797C152.82 84.2474 150.477 84.7812 147.82 84.7812C145.242 84.7812 143.003 84.2604 141.102 83.2188C139.201 82.1771 137.599 80.7188 136.297 78.8438C135.021 76.9427 133.992 74.7422 133.211 72.2422C132.43 69.7422 131.831 67.0599 131.414 64.1953V62.0469C131.831 58.974 132.43 56.1615 133.211 53.6094C133.992 51.0312 135.021 48.8047 136.297 46.9297C137.599 45.0286 139.188 43.5573 141.062 42.5156C142.964 41.474 145.19 40.9531 147.742 40.9531C150.424 40.9531 152.781 41.4609 154.812 42.4766C156.87 43.4922 158.589 44.9505 159.969 46.8516C161.375 48.7526 162.43 51.0182 163.133 53.6484C163.862 56.2786 164.227 59.1953 164.227 62.3984ZM152.938 63.2188V62.3984C152.938 60.6016 152.781 58.9479 152.469 57.4375C152.182 55.901 151.714 54.5599 151.062 53.4141C150.438 52.2682 149.604 51.3828 148.562 50.7578C147.547 50.1068 146.31 49.7812 144.852 49.7812C143.315 49.7812 142 50.0286 140.906 50.5234C139.839 51.0182 138.966 51.7344 138.289 52.6719C137.612 53.6094 137.104 54.7292 136.766 56.0312C136.427 57.3333 136.219 58.8047 136.141 60.4453V65.875C136.271 67.8021 136.635 69.5339 137.234 71.0703C137.833 72.5807 138.758 73.7786 140.008 74.6641C141.258 75.5495 142.898 75.9922 144.93 75.9922C146.414 75.9922 147.664 75.6667 148.68 75.0156C149.695 74.3385 150.516 73.4141 151.141 72.2422C151.792 71.0703 152.247 69.7161 152.508 68.1797C152.794 66.6432 152.938 64.9896 152.938 63.2188ZM188.68 75.9922C190.06 75.9922 191.284 75.7318 192.352 75.2109C193.419 74.6641 194.253 73.9089 194.852 72.9453C195.477 71.9557 195.802 70.7969 195.828 69.4688H206.414C206.388 72.4375 205.594 75.0807 204.031 77.3984C202.469 79.6901 200.372 81.5 197.742 82.8281C195.112 84.1302 192.169 84.7812 188.914 84.7812C185.633 84.7812 182.768 84.2344 180.32 83.1406C177.898 82.0469 175.88 80.5365 174.266 78.6094C172.651 76.6562 171.44 74.3906 170.633 71.8125C169.826 69.2083 169.422 66.4219 169.422 63.4531V62.3203C169.422 59.3255 169.826 56.5391 170.633 53.9609C171.44 51.3568 172.651 49.0911 174.266 47.1641C175.88 45.2109 177.898 43.6875 180.32 42.5938C182.742 41.5 185.581 40.9531 188.836 40.9531C192.299 40.9531 195.333 41.6172 197.938 42.9453C200.568 44.2734 202.625 46.1745 204.109 48.6484C205.62 51.0964 206.388 54 206.414 57.3594H195.828C195.802 55.9531 195.503 54.6771 194.93 53.5312C194.383 52.3854 193.576 51.474 192.508 50.7969C191.466 50.0938 190.177 49.7422 188.641 49.7422C187 49.7422 185.659 50.0938 184.617 50.7969C183.576 51.474 182.768 52.4115 182.195 53.6094C181.622 54.7812 181.219 56.1224 180.984 57.6328C180.776 59.1172 180.672 60.6797 180.672 62.3203V63.4531C180.672 65.0938 180.776 66.6693 180.984 68.1797C181.193 69.6901 181.583 71.0312 182.156 72.2031C182.755 73.375 183.576 74.2995 184.617 74.9766C185.659 75.6536 187.013 75.9922 188.68 75.9922ZM211.141 63.2969V62.4766C211.141 59.3776 211.583 56.526 212.469 53.9219C213.354 51.2917 214.643 49.013 216.336 47.0859C218.029 45.1589 220.112 43.6615 222.586 42.5938C225.06 41.5 227.898 40.9531 231.102 40.9531C234.305 40.9531 237.156 41.5 239.656 42.5938C242.156 43.6615 244.253 45.1589 245.945 47.0859C247.664 49.013 248.966 51.2917 249.852 53.9219C250.737 56.526 251.18 59.3776 251.18 62.4766V63.2969C251.18 66.3698 250.737 69.2214 249.852 71.8516C248.966 74.4557 247.664 76.7344 245.945 78.6875C244.253 80.6146 242.169 82.112 239.695 83.1797C237.221 84.2474 234.383 84.7812 231.18 84.7812C227.977 84.7812 225.125 84.2474 222.625 83.1797C220.151 82.112 218.055 80.6146 216.336 78.6875C214.643 76.7344 213.354 74.4557 212.469 71.8516C211.583 69.2214 211.141 66.3698 211.141 63.2969ZM222.391 62.4766V63.2969C222.391 65.0677 222.547 66.7214 222.859 68.2578C223.172 69.7943 223.667 71.1484 224.344 72.3203C225.047 73.4661 225.958 74.3646 227.078 75.0156C228.198 75.6667 229.565 75.9922 231.18 75.9922C232.742 75.9922 234.083 75.6667 235.203 75.0156C236.323 74.3646 237.221 73.4661 237.898 72.3203C238.576 71.1484 239.07 69.7943 239.383 68.2578C239.721 66.7214 239.891 65.0677 239.891 63.2969V62.4766C239.891 60.7578 239.721 59.1432 239.383 57.6328C239.07 56.0964 238.562 54.7422 237.859 53.5703C237.182 52.3724 236.284 51.4349 235.164 50.7578C234.044 50.0807 232.69 49.7422 231.102 49.7422C229.513 49.7422 228.159 50.0807 227.039 50.7578C225.945 51.4349 225.047 52.3724 224.344 53.5703C223.667 54.7422 223.172 56.0964 222.859 57.6328C222.547 59.1432 222.391 60.7578 222.391 62.4766ZM283.055 74.7812V24H294.383V84H284.188L283.055 74.7812ZM256.336 63.375V62.5547C256.336 59.3255 256.701 56.3958 257.43 53.7656C258.159 51.1094 259.227 48.8307 260.633 46.9297C262.039 45.0286 263.771 43.5573 265.828 42.5156C267.885 41.474 270.229 40.9531 272.859 40.9531C275.333 40.9531 277.495 41.474 279.344 42.5156C281.219 43.5573 282.807 45.0417 284.109 46.9688C285.438 48.8698 286.505 51.1224 287.312 53.7266C288.12 56.3047 288.706 59.1302 289.07 62.2031V64C288.706 66.9427 288.12 69.6771 287.312 72.2031C286.505 74.7292 285.438 76.9427 284.109 78.8438C282.807 80.7188 281.219 82.1771 279.344 83.2188C277.469 84.2604 275.281 84.7812 272.781 84.7812C270.151 84.7812 267.807 84.2474 265.75 83.1797C263.719 82.112 262 80.6146 260.594 78.6875C259.214 76.7604 258.159 74.4948 257.43 71.8906C256.701 69.2865 256.336 66.4479 256.336 63.375ZM267.586 62.5547V63.375C267.586 65.1198 267.716 66.7474 267.977 68.2578C268.263 69.7682 268.719 71.1094 269.344 72.2812C269.995 73.4271 270.828 74.3255 271.844 74.9766C272.885 75.6016 274.148 75.9141 275.633 75.9141C277.56 75.9141 279.148 75.4844 280.398 74.625C281.648 73.7396 282.599 72.5286 283.25 70.9922C283.927 69.4557 284.318 67.6849 284.422 65.6797V60.5625C284.344 58.9219 284.109 57.4505 283.719 56.1484C283.354 54.8203 282.807 53.6875 282.078 52.75C281.375 51.8125 280.49 51.0833 279.422 50.5625C278.38 50.0417 277.143 49.7812 275.711 49.7812C274.253 49.7812 273.003 50.1198 271.961 50.7969C270.919 51.4479 270.073 52.3464 269.422 53.4922C268.797 54.638 268.328 55.9922 268.016 57.5547C267.729 59.0911 267.586 60.7578 267.586 62.5547ZM322.625 84.7812C319.344 84.7812 316.401 84.2604 313.797 83.2188C311.193 82.151 308.979 80.6797 307.156 78.8047C305.359 76.9297 303.979 74.7552 303.016 72.2812C302.052 69.7812 301.57 67.125 301.57 64.3125V62.75C301.57 59.5469 302.026 56.6172 302.938 53.9609C303.849 51.3047 305.151 49 306.844 47.0469C308.562 45.0938 310.646 43.5964 313.094 42.5547C315.542 41.487 318.302 40.9531 321.375 40.9531C324.37 40.9531 327.026 41.4479 329.344 42.4375C331.661 43.4271 333.602 44.8333 335.164 46.6562C336.753 48.4792 337.951 50.6667 338.758 53.2188C339.565 55.7448 339.969 58.5573 339.969 61.6562V66.3438H306.375V58.8438H328.914V57.9844C328.914 56.4219 328.628 55.0286 328.055 53.8047C327.508 52.5547 326.674 51.5651 325.555 50.8359C324.435 50.1068 323.003 49.7422 321.258 49.7422C319.773 49.7422 318.497 50.0677 317.43 50.7188C316.362 51.3698 315.49 52.2812 314.812 53.4531C314.161 54.625 313.667 56.0052 313.328 57.5938C313.016 59.1562 312.859 60.875 312.859 62.75V64.3125C312.859 66.0052 313.094 67.5677 313.562 69C314.057 70.4323 314.747 71.6693 315.633 72.7109C316.544 73.7526 317.638 74.5599 318.914 75.1328C320.216 75.7057 321.688 75.9922 323.328 75.9922C325.359 75.9922 327.247 75.6016 328.992 74.8203C330.763 74.013 332.286 72.8021 333.562 71.1875L339.031 77.125C338.146 78.401 336.935 79.625 335.398 80.7969C333.888 81.9688 332.065 82.9323 329.93 83.6875C327.794 84.4167 325.359 84.7812 322.625 84.7812Z" fill="#004695"/>
</svg>
