<svg width="665" height="117" viewBox="0 0 665 117" fill="none" xmlns="http://www.w3.org/2000/svg">
<g opacity="0.3">
<path d="M100.727 42.3811H84.4351L76.9083 61.6053H90.6992L86.3875 81.8764H67.8528L58.8056 104H38.95L47.7978 81.8764H34.2893L25.4415 104H5.17051L14.0931 81.8764H1L5.31174 61.6053H23.0738L30.5924 42.3811H15.4805L19.8005 22.2513H39.5066L47.8643 1H68.1353L59.8441 22.2513H73.2861L81.652 1H101.915L93.5571 22.2513H105.047L100.727 42.3811ZM64.6543 42.2482H50.8634L43.0623 61.8878H56.9197L64.6543 42.2482Z" stroke="#E10613" stroke-miterlimit="10"/>
</g>
<path d="M118.008 63.2891V72.4297H88.3203V63.2891H118.008ZM91.7969 40.125V97H80.0781V40.125H91.7969ZM126.367 40.125V97H114.688V40.125H126.367ZM160.859 86.8828V54.7344H172.109V97H161.523L160.859 86.8828ZM162.109 78.2109L165.43 78.1328C165.43 80.9453 165.104 83.5625 164.453 85.9844C163.802 88.3802 162.826 90.4635 161.523 92.2344C160.221 93.9792 158.581 95.3464 156.602 96.3359C154.622 97.2995 152.292 97.7812 149.609 97.7812C147.552 97.7812 145.651 97.4948 143.906 96.9219C142.188 96.3229 140.703 95.3984 139.453 94.1484C138.229 92.8724 137.266 91.2448 136.562 89.2656C135.885 87.2604 135.547 84.8516 135.547 82.0391V54.7344H146.797V82.1172C146.797 83.3672 146.94 84.4219 147.227 85.2812C147.539 86.1406 147.969 86.8438 148.516 87.3906C149.062 87.9375 149.701 88.3281 150.43 88.5625C151.185 88.7969 152.018 88.9141 152.93 88.9141C155.247 88.9141 157.07 88.4453 158.398 87.5078C159.753 86.5703 160.703 85.2943 161.25 83.6797C161.823 82.0391 162.109 80.2161 162.109 78.2109ZM180.703 37H191.953V87.3125L190.82 97H180.703V37ZM218.711 75.4375V76.2578C218.711 79.4089 218.372 82.2995 217.695 84.9297C217.044 87.5599 216.029 89.8385 214.648 91.7656C213.268 93.6667 211.549 95.151 209.492 96.2188C207.461 97.2604 205.065 97.7812 202.305 97.7812C199.727 97.7812 197.487 97.2604 195.586 96.2188C193.711 95.1771 192.135 93.7057 190.859 91.8047C189.583 89.9036 188.555 87.6771 187.773 85.125C186.992 82.5729 186.406 79.7865 186.016 76.7656V74.9688C186.406 71.9479 186.992 69.1615 187.773 66.6094C188.555 64.0573 189.583 61.8307 190.859 59.9297C192.135 58.0286 193.711 56.5573 195.586 55.5156C197.461 54.474 199.674 53.9531 202.227 53.9531C205.013 53.9531 207.435 54.487 209.492 55.5547C211.576 56.5964 213.294 58.0807 214.648 60.0078C216.029 61.9089 217.044 64.1745 217.695 66.8047C218.372 69.4089 218.711 72.2865 218.711 75.4375ZM207.461 76.2578V75.4375C207.461 73.7188 207.331 72.1042 207.07 70.5938C206.836 69.0573 206.419 67.7161 205.82 66.5703C205.221 65.3984 204.401 64.474 203.359 63.7969C202.344 63.1198 201.029 62.7812 199.414 62.7812C197.878 62.7812 196.576 63.0417 195.508 63.5625C194.44 64.0833 193.555 64.8125 192.852 65.75C192.174 66.6875 191.667 67.8073 191.328 69.1094C190.99 70.3854 190.781 71.7917 190.703 73.3281V78.4453C190.781 80.5026 191.12 82.3255 191.719 83.9141C192.344 85.4766 193.281 86.7135 194.531 87.625C195.807 88.5104 197.461 88.9531 199.492 88.9531C201.081 88.9531 202.396 88.6406 203.438 88.0156C204.479 87.3906 205.286 86.5052 205.859 85.3594C206.458 84.2135 206.875 82.8724 207.109 81.3359C207.344 79.7734 207.461 78.0807 207.461 76.2578ZM270.586 87.7812V37H281.914V97H271.719L270.586 87.7812ZM243.867 76.375V75.5547C243.867 72.3255 244.232 69.3958 244.961 66.7656C245.69 64.1094 246.758 61.8307 248.164 59.9297C249.57 58.0286 251.302 56.5573 253.359 55.5156C255.417 54.474 257.76 53.9531 260.391 53.9531C262.865 53.9531 265.026 54.474 266.875 55.5156C268.75 56.5573 270.339 58.0417 271.641 59.9688C272.969 61.8698 274.036 64.1224 274.844 66.7266C275.651 69.3047 276.237 72.1302 276.602 75.2031V77C276.237 79.9427 275.651 82.6771 274.844 85.2031C274.036 87.7292 272.969 89.9427 271.641 91.8438C270.339 93.7188 268.75 95.1771 266.875 96.2188C265 97.2604 262.812 97.7812 260.312 97.7812C257.682 97.7812 255.339 97.2474 253.281 96.1797C251.25 95.112 249.531 93.6146 248.125 91.6875C246.745 89.7604 245.69 87.4948 244.961 84.8906C244.232 82.2865 243.867 79.4479 243.867 76.375ZM255.117 75.5547V76.375C255.117 78.1198 255.247 79.7474 255.508 81.2578C255.794 82.7682 256.25 84.1094 256.875 85.2812C257.526 86.4271 258.359 87.3255 259.375 87.9766C260.417 88.6016 261.68 88.9141 263.164 88.9141C265.091 88.9141 266.68 88.4844 267.93 87.625C269.18 86.7396 270.13 85.5286 270.781 83.9922C271.458 82.4557 271.849 80.6849 271.953 78.6797V73.5625C271.875 71.9219 271.641 70.4505 271.25 69.1484C270.885 67.8203 270.339 66.6875 269.609 65.75C268.906 64.8125 268.021 64.0833 266.953 63.5625C265.911 63.0417 264.674 62.7812 263.242 62.7812C261.784 62.7812 260.534 63.1198 259.492 63.7969C258.451 64.4479 257.604 65.3464 256.953 66.4922C256.328 67.638 255.859 68.9922 255.547 70.5547C255.26 72.0911 255.117 73.7578 255.117 75.5547ZM310.156 97.7812C306.875 97.7812 303.932 97.2604 301.328 96.2188C298.724 95.151 296.51 93.6797 294.688 91.8047C292.891 89.9297 291.51 87.7552 290.547 85.2812C289.583 82.7812 289.102 80.125 289.102 77.3125V75.75C289.102 72.5469 289.557 69.6172 290.469 66.9609C291.38 64.3047 292.682 62 294.375 60.0469C296.094 58.0938 298.177 56.5964 300.625 55.5547C303.073 54.487 305.833 53.9531 308.906 53.9531C311.901 53.9531 314.557 54.4479 316.875 55.4375C319.193 56.4271 321.133 57.8333 322.695 59.6562C324.284 61.4792 325.482 63.6667 326.289 66.2188C327.096 68.7448 327.5 71.5573 327.5 74.6562V79.3438H293.906V71.8438H316.445V70.9844C316.445 69.4219 316.159 68.0286 315.586 66.8047C315.039 65.5547 314.206 64.5651 313.086 63.8359C311.966 63.1068 310.534 62.7422 308.789 62.7422C307.305 62.7422 306.029 63.0677 304.961 63.7188C303.893 64.3698 303.021 65.2812 302.344 66.4531C301.693 67.625 301.198 69.0052 300.859 70.5938C300.547 72.1562 300.391 73.875 300.391 75.75V77.3125C300.391 79.0052 300.625 80.5677 301.094 82C301.589 83.4323 302.279 84.6693 303.164 85.7109C304.076 86.7526 305.169 87.5599 306.445 88.1328C307.747 88.7057 309.219 88.9922 310.859 88.9922C312.891 88.9922 314.779 88.6016 316.523 87.8203C318.294 87.013 319.818 85.8021 321.094 84.1875L326.562 90.125C325.677 91.401 324.466 92.625 322.93 93.7969C321.419 94.9688 319.596 95.9323 317.461 96.6875C315.326 97.4167 312.891 97.7812 310.156 97.7812ZM384.141 82.1172C384.141 81.1016 383.984 80.1901 383.672 79.3828C383.385 78.5495 382.839 77.7943 382.031 77.1172C381.224 76.4141 380.091 75.724 378.633 75.0469C377.174 74.3698 375.286 73.6667 372.969 72.9375C370.391 72.1042 367.943 71.1667 365.625 70.125C363.333 69.0833 361.302 67.8724 359.531 66.4922C357.786 65.0859 356.406 63.4583 355.391 61.6094C354.401 59.7604 353.906 57.612 353.906 55.1641C353.906 52.7943 354.427 50.6458 355.469 48.7188C356.51 46.7656 357.969 45.099 359.844 43.7188C361.719 42.3125 363.932 41.2318 366.484 40.4766C369.062 39.7214 371.888 39.3438 374.961 39.3438C379.154 39.3438 382.812 40.099 385.938 41.6094C389.062 43.1198 391.484 45.1901 393.203 47.8203C394.948 50.4505 395.82 53.4583 395.82 56.8438H384.18C384.18 55.1771 383.828 53.7188 383.125 52.4688C382.448 51.1927 381.406 50.1901 380 49.4609C378.62 48.7318 376.875 48.3672 374.766 48.3672C372.734 48.3672 371.042 48.6797 369.688 49.3047C368.333 49.9036 367.318 50.724 366.641 51.7656C365.964 52.7812 365.625 53.9271 365.625 55.2031C365.625 56.1667 365.859 57.0391 366.328 57.8203C366.823 58.6016 367.552 59.3307 368.516 60.0078C369.479 60.6849 370.664 61.3229 372.07 61.9219C373.477 62.5208 375.104 63.1068 376.953 63.6797C380.052 64.6172 382.773 65.6719 385.117 66.8438C387.487 68.0156 389.466 69.3307 391.055 70.7891C392.643 72.2474 393.841 73.901 394.648 75.75C395.456 77.599 395.859 79.6953 395.859 82.0391C395.859 84.513 395.378 86.7266 394.414 88.6797C393.451 90.6328 392.057 92.2865 390.234 93.6406C388.411 94.9948 386.237 96.0234 383.711 96.7266C381.185 97.4297 378.359 97.7812 375.234 97.7812C372.422 97.7812 369.648 97.4167 366.914 96.6875C364.18 95.9323 361.693 94.7995 359.453 93.2891C357.24 91.7786 355.469 89.8516 354.141 87.5078C352.812 85.1641 352.148 82.3906 352.148 79.1875H363.906C363.906 80.9583 364.18 82.4557 364.727 83.6797C365.273 84.9036 366.042 85.8932 367.031 86.6484C368.047 87.4036 369.245 87.9505 370.625 88.2891C372.031 88.6276 373.568 88.7969 375.234 88.7969C377.266 88.7969 378.932 88.5104 380.234 87.9375C381.562 87.3646 382.539 86.5703 383.164 85.5547C383.815 84.5391 384.141 83.3932 384.141 82.1172ZM422.578 97.7812C419.297 97.7812 416.354 97.2604 413.75 96.2188C411.146 95.151 408.932 93.6797 407.109 91.8047C405.312 89.9297 403.932 87.7552 402.969 85.2812C402.005 82.7812 401.523 80.125 401.523 77.3125V75.75C401.523 72.5469 401.979 69.6172 402.891 66.9609C403.802 64.3047 405.104 62 406.797 60.0469C408.516 58.0938 410.599 56.5964 413.047 55.5547C415.495 54.487 418.255 53.9531 421.328 53.9531C424.323 53.9531 426.979 54.4479 429.297 55.4375C431.615 56.4271 433.555 57.8333 435.117 59.6562C436.706 61.4792 437.904 63.6667 438.711 66.2188C439.518 68.7448 439.922 71.5573 439.922 74.6562V79.3438H406.328V71.8438H428.867V70.9844C428.867 69.4219 428.581 68.0286 428.008 66.8047C427.461 65.5547 426.628 64.5651 425.508 63.8359C424.388 63.1068 422.956 62.7422 421.211 62.7422C419.727 62.7422 418.451 63.0677 417.383 63.7188C416.315 64.3698 415.443 65.2812 414.766 66.4531C414.115 67.625 413.62 69.0052 413.281 70.5938C412.969 72.1562 412.812 73.875 412.812 75.75V77.3125C412.812 79.0052 413.047 80.5677 413.516 82C414.01 83.4323 414.701 84.6693 415.586 85.7109C416.497 86.7526 417.591 87.5599 418.867 88.1328C420.169 88.7057 421.641 88.9922 423.281 88.9922C425.312 88.9922 427.201 88.6016 428.945 87.8203C430.716 87.013 432.24 85.8021 433.516 84.1875L438.984 90.125C438.099 91.401 436.888 92.625 435.352 93.7969C433.841 94.9688 432.018 95.9323 429.883 96.6875C427.747 97.4167 425.312 97.7812 422.578 97.7812ZM457.578 63.9531V97H446.328V54.7344H456.914L457.578 63.9531ZM470.312 54.4609L470.117 64.8906C469.57 64.8125 468.906 64.7474 468.125 64.6953C467.37 64.6172 466.68 64.5781 466.055 64.5781C464.466 64.5781 463.086 64.7865 461.914 65.2031C460.768 65.5938 459.805 66.1797 459.023 66.9609C458.268 67.7422 457.695 68.6927 457.305 69.8125C456.94 70.9323 456.732 72.2083 456.68 73.6406L454.414 72.9375C454.414 70.2031 454.688 67.6901 455.234 65.3984C455.781 63.0807 456.576 61.0625 457.617 59.3438C458.685 57.625 459.987 56.2969 461.523 55.3594C463.06 54.4219 464.818 53.9531 466.797 53.9531C467.422 53.9531 468.06 54.0052 468.711 54.1094C469.362 54.1875 469.896 54.3047 470.312 54.4609ZM490.703 88.7969L500.078 54.7344H511.836L497.578 97H490.469L490.703 88.7969ZM484.258 54.7344L493.672 88.8359L493.867 97H486.719L472.461 54.7344H484.258ZM528.75 54.7344V97H517.461V54.7344H528.75ZM516.758 43.7188C516.758 42.0781 517.331 40.724 518.477 39.6562C519.622 38.5885 521.159 38.0547 523.086 38.0547C524.987 38.0547 526.51 38.5885 527.656 39.6562C528.828 40.724 529.414 42.0781 529.414 43.7188C529.414 45.3594 528.828 46.7135 527.656 47.7812C526.51 48.849 524.987 49.3828 523.086 49.3828C521.159 49.3828 519.622 48.849 518.477 47.7812C517.331 46.7135 516.758 45.3594 516.758 43.7188ZM555.508 88.9922C556.888 88.9922 558.112 88.7318 559.18 88.2109C560.247 87.6641 561.081 86.9089 561.68 85.9453C562.305 84.9557 562.63 83.7969 562.656 82.4688H573.242C573.216 85.4375 572.422 88.0807 570.859 90.3984C569.297 92.6901 567.201 94.5 564.57 95.8281C561.94 97.1302 558.997 97.7812 555.742 97.7812C552.461 97.7812 549.596 97.2344 547.148 96.1406C544.727 95.0469 542.708 93.5365 541.094 91.6094C539.479 89.6562 538.268 87.3906 537.461 84.8125C536.654 82.2083 536.25 79.4219 536.25 76.4531V75.3203C536.25 72.3255 536.654 69.5391 537.461 66.9609C538.268 64.3568 539.479 62.0911 541.094 60.1641C542.708 58.2109 544.727 56.6875 547.148 55.5938C549.57 54.5 552.409 53.9531 555.664 53.9531C559.128 53.9531 562.161 54.6172 564.766 55.9453C567.396 57.2734 569.453 59.1745 570.938 61.6484C572.448 64.0964 573.216 67 573.242 70.3594H562.656C562.63 68.9531 562.331 67.6771 561.758 66.5312C561.211 65.3854 560.404 64.474 559.336 63.7969C558.294 63.0938 557.005 62.7422 555.469 62.7422C553.828 62.7422 552.487 63.0938 551.445 63.7969C550.404 64.474 549.596 65.4115 549.023 66.6094C548.451 67.7812 548.047 69.1224 547.812 70.6328C547.604 72.1172 547.5 73.6797 547.5 75.3203V76.4531C547.5 78.0938 547.604 79.6693 547.812 81.1797C548.021 82.6901 548.411 84.0312 548.984 85.2031C549.583 86.375 550.404 87.2995 551.445 87.9766C552.487 88.6536 553.841 88.9922 555.508 88.9922ZM551.289 96.8438H559.766L559.336 99.1484C560.82 99.4089 562.174 100.034 563.398 101.023C564.622 102.013 565.234 103.641 565.234 105.906C565.234 107.286 564.935 108.536 564.336 109.656C563.763 110.776 562.904 111.74 561.758 112.547C560.612 113.38 559.18 114.005 557.461 114.422C555.742 114.865 553.763 115.086 551.523 115.086L551.25 108.836C552.083 108.836 552.839 108.719 553.516 108.484C554.193 108.25 554.727 107.885 555.117 107.391C555.508 106.922 555.703 106.297 555.703 105.516C555.703 104.786 555.508 104.214 555.117 103.797C554.727 103.38 554.115 103.068 553.281 102.859C552.474 102.651 551.406 102.508 550.078 102.43L551.289 96.8438ZM577.969 76.2969V75.4766C577.969 72.3776 578.411 69.526 579.297 66.9219C580.182 64.2917 581.471 62.013 583.164 60.0859C584.857 58.1589 586.94 56.6615 589.414 55.5938C591.888 54.5 594.727 53.9531 597.93 53.9531C601.133 53.9531 603.984 54.5 606.484 55.5938C608.984 56.6615 611.081 58.1589 612.773 60.0859C614.492 62.013 615.794 64.2917 616.68 66.9219C617.565 69.526 618.008 72.3776 618.008 75.4766V76.2969C618.008 79.3698 617.565 82.2214 616.68 84.8516C615.794 87.4557 614.492 89.7344 612.773 91.6875C611.081 93.6146 608.997 95.112 606.523 96.1797C604.049 97.2474 601.211 97.7812 598.008 97.7812C594.805 97.7812 591.953 97.2474 589.453 96.1797C586.979 95.112 584.883 93.6146 583.164 91.6875C581.471 89.7344 580.182 87.4557 579.297 84.8516C578.411 82.2214 577.969 79.3698 577.969 76.2969ZM589.219 75.4766V76.2969C589.219 78.0677 589.375 79.7214 589.688 81.2578C590 82.7943 590.495 84.1484 591.172 85.3203C591.875 86.4661 592.786 87.3646 593.906 88.0156C595.026 88.6667 596.393 88.9922 598.008 88.9922C599.57 88.9922 600.911 88.6667 602.031 88.0156C603.151 87.3646 604.049 86.4661 604.727 85.3203C605.404 84.1484 605.898 82.7943 606.211 81.2578C606.549 79.7214 606.719 78.0677 606.719 76.2969V75.4766C606.719 73.7578 606.549 72.1432 606.211 70.6328C605.898 69.0964 605.391 67.7422 604.688 66.5703C604.01 65.3724 603.112 64.4349 601.992 63.7578C600.872 63.0807 599.518 62.7422 597.93 62.7422C596.341 62.7422 594.987 63.0807 593.867 63.7578C592.773 64.4349 591.875 65.3724 591.172 66.5703C590.495 67.7422 590 69.0964 589.688 70.6328C589.375 72.1432 589.219 73.7578 589.219 75.4766ZM647.773 85.3203C647.773 84.513 647.539 83.7839 647.07 83.1328C646.602 82.4818 645.729 81.8828 644.453 81.3359C643.203 80.763 641.393 80.2422 639.023 79.7734C636.888 79.3047 634.896 78.7188 633.047 78.0156C631.224 77.2865 629.635 76.4141 628.281 75.3984C626.953 74.3828 625.911 73.1849 625.156 71.8047C624.401 70.3984 624.023 68.7969 624.023 67C624.023 65.2292 624.401 63.5625 625.156 62C625.938 60.4375 627.044 59.0573 628.477 57.8594C629.935 56.6354 631.706 55.6849 633.789 55.0078C635.898 54.3047 638.268 53.9531 640.898 53.9531C644.57 53.9531 647.721 54.5391 650.352 55.7109C653.008 56.8828 655.039 58.4974 656.445 60.5547C657.878 62.5859 658.594 64.9036 658.594 67.5078H647.344C647.344 66.4141 647.109 65.4375 646.641 64.5781C646.198 63.6927 645.495 63.0026 644.531 62.5078C643.594 61.987 642.37 61.7266 640.859 61.7266C639.609 61.7266 638.529 61.9479 637.617 62.3906C636.706 62.8073 636.003 63.3802 635.508 64.1094C635.039 64.8125 634.805 65.5938 634.805 66.4531C634.805 67.1042 634.935 67.6901 635.195 68.2109C635.482 68.7057 635.938 69.1615 636.562 69.5781C637.188 69.9948 637.995 70.3854 638.984 70.75C640 71.0885 641.25 71.401 642.734 71.6875C645.781 72.3125 648.503 73.1328 650.898 74.1484C653.294 75.138 655.195 76.4922 656.602 78.2109C658.008 79.9036 658.711 82.1302 658.711 84.8906C658.711 86.7656 658.294 88.4844 657.461 90.0469C656.628 91.6094 655.43 92.9766 653.867 94.1484C652.305 95.2943 650.43 96.1927 648.242 96.8438C646.081 97.4688 643.646 97.7812 640.938 97.7812C637.005 97.7812 633.672 97.0781 630.938 95.6719C628.229 94.2656 626.172 92.4818 624.766 90.3203C623.385 88.1328 622.695 85.8932 622.695 83.6016H633.359C633.411 85.138 633.802 86.375 634.531 87.3125C635.286 88.25 636.237 88.9271 637.383 89.3438C638.555 89.7604 639.818 89.9688 641.172 89.9688C642.63 89.9688 643.841 89.7734 644.805 89.3828C645.768 88.9661 646.497 88.4193 646.992 87.7422C647.513 87.0391 647.773 86.2318 647.773 85.3203Z" fill="#004695"/>
</svg>
