<svg width="549" height="105" viewBox="0 0 549 105" fill="none" xmlns="http://www.w3.org/2000/svg">
<g opacity="0.3">
<path d="M100.727 42.3811H84.4351L76.9083 61.6054H90.6992L86.3875 81.8764H67.8528L58.8056 104H38.95L47.7978 81.8764H34.2893L25.4415 104H5.17051L14.0931 81.8764H1L5.31174 61.6054H23.0738L30.5924 42.3811H15.4805L19.8005 22.2514H39.5066L47.8643 1.00002H68.1353L59.8441 22.2514H73.2861L81.652 1.00002H101.915L93.5571 22.2514H105.047L100.727 42.3811ZM64.6543 42.2482H50.8634L43.0623 61.8878H56.9197L64.6543 42.2482Z" stroke="#E10613" stroke-miterlimit="10"/>
</g>
<path d="M104.227 72.3203C104.227 71.513 103.992 70.7839 103.523 70.1328C103.055 69.4818 102.182 68.8828 100.906 68.3359C99.6562 67.763 97.8464 67.2422 95.4766 66.7734C93.3411 66.3047 91.349 65.7188 89.5 65.0156C87.6771 64.2865 86.0885 63.4141 84.7344 62.3984C83.4062 61.3828 82.3646 60.1849 81.6094 58.8047C80.8542 57.3984 80.4766 55.7969 80.4766 54C80.4766 52.2292 80.8542 50.5625 81.6094 49C82.3906 47.4375 83.4974 46.0573 84.9297 44.8594C86.388 43.6354 88.1589 42.6849 90.2422 42.0078C92.3516 41.3047 94.7214 40.9531 97.3516 40.9531C101.023 40.9531 104.174 41.5391 106.805 42.7109C109.461 43.8828 111.492 45.4974 112.898 47.5547C114.331 49.5859 115.047 51.9036 115.047 54.5078H103.797C103.797 53.4141 103.562 52.4375 103.094 51.5781C102.651 50.6927 101.948 50.0026 100.984 49.5078C100.047 48.987 98.8229 48.7266 97.3125 48.7266C96.0625 48.7266 94.9818 48.9479 94.0703 49.3906C93.1589 49.8073 92.4557 50.3802 91.9609 51.1094C91.4922 51.8125 91.2578 52.5938 91.2578 53.4531C91.2578 54.1042 91.388 54.6901 91.6484 55.2109C91.9349 55.7057 92.3906 56.1615 93.0156 56.5781C93.6406 56.9948 94.4479 57.3854 95.4375 57.75C96.4531 58.0885 97.7031 58.401 99.1875 58.6875C102.234 59.3125 104.956 60.1328 107.352 61.1484C109.747 62.138 111.648 63.4922 113.055 65.2109C114.461 66.9036 115.164 69.1302 115.164 71.8906C115.164 73.7656 114.747 75.4844 113.914 77.0469C113.081 78.6094 111.883 79.9766 110.32 81.1484C108.758 82.2943 106.883 83.1927 104.695 83.8438C102.534 84.4688 100.099 84.7812 97.3906 84.7812C93.4583 84.7812 90.125 84.0781 87.3906 82.6719C84.6823 81.2656 82.625 79.4818 81.2188 77.3203C79.8385 75.1328 79.1484 72.8932 79.1484 70.6016H89.8125C89.8646 72.138 90.2552 73.375 90.9844 74.3125C91.7396 75.25 92.6901 75.9271 93.8359 76.3438C95.0078 76.7604 96.2708 76.9688 97.625 76.9688C99.0833 76.9688 100.294 76.7734 101.258 76.3828C102.221 75.9661 102.951 75.4193 103.445 74.7422C103.966 74.0391 104.227 73.2318 104.227 72.3203ZM143.172 41.7344V49.7031H118.562V41.7344H143.172ZM124.656 31.3047H135.906V71.2656C135.906 72.4896 136.062 73.4271 136.375 74.0781C136.714 74.7292 137.208 75.1849 137.859 75.4453C138.51 75.6797 139.331 75.7969 140.32 75.7969C141.023 75.7969 141.648 75.7708 142.195 75.7188C142.768 75.6406 143.25 75.5625 143.641 75.4844L143.68 83.7656C142.716 84.0781 141.674 84.3255 140.555 84.5078C139.435 84.6901 138.198 84.7812 136.844 84.7812C134.37 84.7812 132.208 84.3776 130.359 83.5703C128.536 82.737 127.13 81.4089 126.141 79.5859C125.151 77.763 124.656 75.3672 124.656 72.3984V31.3047ZM172.391 74.4688V55.6406C172.391 54.2865 172.169 53.1276 171.727 52.1641C171.284 51.1745 170.594 50.4062 169.656 49.8594C168.745 49.3125 167.56 49.0391 166.102 49.0391C164.852 49.0391 163.771 49.2604 162.859 49.7031C161.948 50.1198 161.245 50.7318 160.75 51.5391C160.255 52.3203 160.008 53.2448 160.008 54.3125H148.758C148.758 52.5156 149.174 50.8099 150.008 49.1953C150.841 47.5807 152.052 46.1615 153.641 44.9375C155.229 43.6875 157.117 42.7109 159.305 42.0078C161.518 41.3047 163.992 40.9531 166.727 40.9531C170.008 40.9531 172.924 41.5 175.477 42.5938C178.029 43.6875 180.034 45.3281 181.492 47.5156C182.977 49.7031 183.719 52.4375 183.719 55.7188V73.8047C183.719 76.1224 183.862 78.0234 184.148 79.5078C184.435 80.9661 184.852 82.2422 185.398 83.3359V84H174.031C173.484 82.8542 173.068 81.4219 172.781 79.7031C172.521 77.9583 172.391 76.2135 172.391 74.4688ZM173.875 58.2578L173.953 64.625H167.664C166.18 64.625 164.891 64.7943 163.797 65.1328C162.703 65.4714 161.805 65.9531 161.102 66.5781C160.398 67.1771 159.878 67.8802 159.539 68.6875C159.227 69.4948 159.07 70.3802 159.07 71.3438C159.07 72.3073 159.292 73.1797 159.734 73.9609C160.177 74.7161 160.815 75.3151 161.648 75.7578C162.482 76.1745 163.458 76.3828 164.578 76.3828C166.271 76.3828 167.742 76.0443 168.992 75.3672C170.242 74.6901 171.206 73.8568 171.883 72.8672C172.586 71.8776 172.951 70.9401 172.977 70.0547L175.945 74.8203C175.529 75.888 174.956 76.9948 174.227 78.1406C173.523 79.2865 172.625 80.3672 171.531 81.3828C170.438 82.3724 169.122 83.1927 167.586 83.8438C166.049 84.4688 164.227 84.7812 162.117 84.7812C159.435 84.7812 157 84.2474 154.812 83.1797C152.651 82.0859 150.932 80.5885 149.656 78.6875C148.406 76.7604 147.781 74.5729 147.781 72.125C147.781 69.9115 148.198 67.9453 149.031 66.2266C149.865 64.5078 151.089 63.0625 152.703 61.8906C154.344 60.6927 156.388 59.7943 158.836 59.1953C161.284 58.5703 164.122 58.2578 167.352 58.2578H173.875ZM203.641 50.9531V84H192.391V41.7344H202.977L203.641 50.9531ZM216.375 41.4609L216.18 51.8906C215.633 51.8125 214.969 51.7474 214.188 51.6953C213.432 51.6172 212.742 51.5781 212.117 51.5781C210.529 51.5781 209.148 51.7865 207.977 52.2031C206.831 52.5938 205.867 53.1797 205.086 53.9609C204.331 54.7422 203.758 55.6927 203.367 56.8125C203.003 57.9323 202.794 59.2083 202.742 60.6406L200.477 59.9375C200.477 57.2031 200.75 54.6901 201.297 52.3984C201.844 50.0807 202.638 48.0625 203.68 46.3438C204.747 44.625 206.049 43.2969 207.586 42.3594C209.122 41.4219 210.88 40.9531 212.859 40.9531C213.484 40.9531 214.122 41.0052 214.773 41.1094C215.424 41.1875 215.958 41.3047 216.375 41.4609ZM244.344 41.7344V49.7031H219.734V41.7344H244.344ZM225.828 31.3047H237.078V71.2656C237.078 72.4896 237.234 73.4271 237.547 74.0781C237.885 74.7292 238.38 75.1849 239.031 75.4453C239.682 75.6797 240.503 75.7969 241.492 75.7969C242.195 75.7969 242.82 75.7708 243.367 75.7188C243.94 75.6406 244.422 75.5625 244.812 75.4844L244.852 83.7656C243.888 84.0781 242.846 84.3255 241.727 84.5078C240.607 84.6901 239.37 84.7812 238.016 84.7812C235.542 84.7812 233.38 84.3776 231.531 83.5703C229.708 82.737 228.302 81.4089 227.312 79.5859C226.323 77.763 225.828 75.3672 225.828 72.3984V31.3047ZM275.75 73.8828V41.7344H287V84H276.414L275.75 73.8828ZM277 65.2109L280.32 65.1328C280.32 67.9453 279.995 70.5625 279.344 72.9844C278.693 75.3802 277.716 77.4635 276.414 79.2344C275.112 80.9792 273.471 82.3464 271.492 83.3359C269.513 84.2995 267.182 84.7812 264.5 84.7812C262.443 84.7812 260.542 84.4948 258.797 83.9219C257.078 83.3229 255.594 82.3984 254.344 81.1484C253.12 79.8724 252.156 78.2448 251.453 76.2656C250.776 74.2604 250.438 71.8516 250.438 69.0391V41.7344H261.688V69.1172C261.688 70.3672 261.831 71.4219 262.117 72.2812C262.43 73.1406 262.859 73.8438 263.406 74.3906C263.953 74.9375 264.591 75.3281 265.32 75.5625C266.076 75.7969 266.909 75.9141 267.82 75.9141C270.138 75.9141 271.961 75.4453 273.289 74.5078C274.643 73.5703 275.594 72.2943 276.141 70.6797C276.714 69.0391 277 67.2161 277 65.2109ZM306.844 49.8594V100.25H295.594V41.7344H306.023L306.844 49.8594ZM333.602 62.3984V63.2188C333.602 66.2917 333.237 69.1432 332.508 71.7734C331.805 74.4036 330.763 76.6953 329.383 78.6484C328.003 80.5755 326.284 82.0859 324.227 83.1797C322.195 84.2474 319.852 84.7812 317.195 84.7812C314.617 84.7812 312.378 84.2604 310.477 83.2188C308.576 82.1771 306.974 80.7188 305.672 78.8438C304.396 76.9427 303.367 74.7422 302.586 72.2422C301.805 69.7422 301.206 67.0599 300.789 64.1953V62.0469C301.206 58.974 301.805 56.1615 302.586 53.6094C303.367 51.0312 304.396 48.8047 305.672 46.9297C306.974 45.0286 308.562 43.5573 310.438 42.5156C312.339 41.474 314.565 40.9531 317.117 40.9531C319.799 40.9531 322.156 41.4609 324.188 42.4766C326.245 43.4922 327.964 44.9505 329.344 46.8516C330.75 48.7526 331.805 51.0182 332.508 53.6484C333.237 56.2786 333.602 59.1953 333.602 62.3984ZM322.312 63.2188V62.3984C322.312 60.6016 322.156 58.9479 321.844 57.4375C321.557 55.901 321.089 54.5599 320.438 53.4141C319.812 52.2682 318.979 51.3828 317.938 50.7578C316.922 50.1068 315.685 49.7812 314.227 49.7812C312.69 49.7812 311.375 50.0286 310.281 50.5234C309.214 51.0182 308.341 51.7344 307.664 52.6719C306.987 53.6094 306.479 54.7292 306.141 56.0312C305.802 57.3333 305.594 58.8047 305.516 60.4453V65.875C305.646 67.8021 306.01 69.5339 306.609 71.0703C307.208 72.5807 308.133 73.7786 309.383 74.6641C310.633 75.5495 312.273 75.9922 314.305 75.9922C315.789 75.9922 317.039 75.6667 318.055 75.0156C319.07 74.3385 319.891 73.4141 320.516 72.2422C321.167 71.0703 321.622 69.7161 321.883 68.1797C322.169 66.6432 322.312 64.9896 322.312 63.2188ZM365.555 74.7812V24H376.883V84H366.688L365.555 74.7812ZM338.836 63.375V62.5547C338.836 59.3255 339.201 56.3958 339.93 53.7656C340.659 51.1094 341.727 48.8307 343.133 46.9297C344.539 45.0286 346.271 43.5573 348.328 42.5156C350.385 41.474 352.729 40.9531 355.359 40.9531C357.833 40.9531 359.995 41.474 361.844 42.5156C363.719 43.5573 365.307 45.0417 366.609 46.9688C367.938 48.8698 369.005 51.1224 369.812 53.7266C370.62 56.3047 371.206 59.1302 371.57 62.2031V64C371.206 66.9427 370.62 69.6771 369.812 72.2031C369.005 74.7292 367.938 76.9427 366.609 78.8438C365.307 80.7188 363.719 82.1771 361.844 83.2188C359.969 84.2604 357.781 84.7812 355.281 84.7812C352.651 84.7812 350.307 84.2474 348.25 83.1797C346.219 82.112 344.5 80.6146 343.094 78.6875C341.714 76.7604 340.659 74.4948 339.93 71.8906C339.201 69.2865 338.836 66.4479 338.836 63.375ZM350.086 62.5547V63.375C350.086 65.1198 350.216 66.7474 350.477 68.2578C350.763 69.7682 351.219 71.1094 351.844 72.2812C352.495 73.4271 353.328 74.3255 354.344 74.9766C355.385 75.6016 356.648 75.9141 358.133 75.9141C360.06 75.9141 361.648 75.4844 362.898 74.625C364.148 73.7396 365.099 72.5286 365.75 70.9922C366.427 69.4557 366.818 67.6849 366.922 65.6797V60.5625C366.844 58.9219 366.609 57.4505 366.219 56.1484C365.854 54.8203 365.307 53.6875 364.578 52.75C363.875 51.8125 362.99 51.0833 361.922 50.5625C360.88 50.0417 359.643 49.7812 358.211 49.7812C356.753 49.7812 355.503 50.1198 354.461 50.7969C353.419 51.4479 352.573 52.3464 351.922 53.4922C351.297 54.638 350.828 55.9922 350.516 57.5547C350.229 59.0911 350.086 60.7578 350.086 62.5547ZM408.484 74.4688V55.6406C408.484 54.2865 408.263 53.1276 407.82 52.1641C407.378 51.1745 406.688 50.4062 405.75 49.8594C404.839 49.3125 403.654 49.0391 402.195 49.0391C400.945 49.0391 399.865 49.2604 398.953 49.7031C398.042 50.1198 397.339 50.7318 396.844 51.5391C396.349 52.3203 396.102 53.2448 396.102 54.3125H384.852C384.852 52.5156 385.268 50.8099 386.102 49.1953C386.935 47.5807 388.146 46.1615 389.734 44.9375C391.323 43.6875 393.211 42.7109 395.398 42.0078C397.612 41.3047 400.086 40.9531 402.82 40.9531C406.102 40.9531 409.018 41.5 411.57 42.5938C414.122 43.6875 416.128 45.3281 417.586 47.5156C419.07 49.7031 419.812 52.4375 419.812 55.7188V73.8047C419.812 76.1224 419.956 78.0234 420.242 79.5078C420.529 80.9661 420.945 82.2422 421.492 83.3359V84H410.125C409.578 82.8542 409.161 81.4219 408.875 79.7031C408.615 77.9583 408.484 76.2135 408.484 74.4688ZM409.969 58.2578L410.047 64.625H403.758C402.273 64.625 400.984 64.7943 399.891 65.1328C398.797 65.4714 397.898 65.9531 397.195 66.5781C396.492 67.1771 395.971 67.8802 395.633 68.6875C395.32 69.4948 395.164 70.3802 395.164 71.3438C395.164 72.3073 395.385 73.1797 395.828 73.9609C396.271 74.7161 396.909 75.3151 397.742 75.7578C398.576 76.1745 399.552 76.3828 400.672 76.3828C402.365 76.3828 403.836 76.0443 405.086 75.3672C406.336 74.6901 407.299 73.8568 407.977 72.8672C408.68 71.8776 409.044 70.9401 409.07 70.0547L412.039 74.8203C411.622 75.888 411.049 76.9948 410.32 78.1406C409.617 79.2865 408.719 80.3672 407.625 81.3828C406.531 82.3724 405.216 83.1927 403.68 83.8438C402.143 84.4688 400.32 84.7812 398.211 84.7812C395.529 84.7812 393.094 84.2474 390.906 83.1797C388.745 82.0859 387.026 80.5885 385.75 78.6875C384.5 76.7604 383.875 74.5729 383.875 72.125C383.875 69.9115 384.292 67.9453 385.125 66.2266C385.958 64.5078 387.182 63.0625 388.797 61.8906C390.438 60.6927 392.482 59.7943 394.93 59.1953C397.378 58.5703 400.216 58.2578 403.445 58.2578H409.969ZM440.398 79.2344L451.609 41.7344H463.68L446.688 90.3672C446.323 91.4349 445.828 92.5807 445.203 93.8047C444.604 95.0286 443.784 96.1875 442.742 97.2812C441.727 98.401 440.438 99.3125 438.875 100.016C437.339 100.719 435.451 101.07 433.211 101.07C432.143 101.07 431.271 101.005 430.594 100.875C429.917 100.745 429.109 100.562 428.172 100.328V92.0859C428.458 92.0859 428.758 92.0859 429.07 92.0859C429.383 92.112 429.682 92.125 429.969 92.125C431.453 92.125 432.664 91.9557 433.602 91.6172C434.539 91.2786 435.294 90.7578 435.867 90.0547C436.44 89.3776 436.896 88.4922 437.234 87.3984L440.398 79.2344ZM435.711 41.7344L444.891 72.3594L446.492 84.2734L438.836 85.0938L423.641 41.7344H435.711Z" fill="#004695"/>
</svg>
