<svg width="843" height="105" viewBox="0 0 843 105" fill="none" xmlns="http://www.w3.org/2000/svg">
<g opacity="0.3">
<path d="M100.727 42.3811H84.4351L76.9083 61.6054H90.6992L86.3875 81.8764H67.8528L58.8056 104H38.95L47.7978 81.8764H34.2893L25.4415 104H5.17051L14.0931 81.8764H1L5.31174 61.6054H23.0738L30.5924 42.3811H15.4805L19.8005 22.2514H39.5066L47.8643 1.00002H68.1353L59.8441 22.2514H73.2861L81.652 1.00002H101.915L93.5571 22.2514H105.047L100.727 42.3811ZM64.6543 42.2482H50.8634L43.0623 61.8878H56.9197L64.6543 42.2482Z" stroke="#E10613" stroke-miterlimit="10"/>
</g>
<path d="M104.227 72.3203C104.227 71.513 103.992 70.7839 103.523 70.1328C103.055 69.4818 102.182 68.8828 100.906 68.3359C99.6562 67.763 97.8464 67.2422 95.4766 66.7734C93.3411 66.3047 91.349 65.7188 89.5 65.0156C87.6771 64.2865 86.0885 63.4141 84.7344 62.3984C83.4062 61.3828 82.3646 60.1849 81.6094 58.8047C80.8542 57.3984 80.4766 55.7969 80.4766 54C80.4766 52.2292 80.8542 50.5625 81.6094 49C82.3906 47.4375 83.4974 46.0573 84.9297 44.8594C86.388 43.6354 88.1589 42.6849 90.2422 42.0078C92.3516 41.3047 94.7214 40.9531 97.3516 40.9531C101.023 40.9531 104.174 41.5391 106.805 42.7109C109.461 43.8828 111.492 45.4974 112.898 47.5547C114.331 49.5859 115.047 51.9036 115.047 54.5078H103.797C103.797 53.4141 103.562 52.4375 103.094 51.5781C102.651 50.6927 101.948 50.0026 100.984 49.5078C100.047 48.987 98.8229 48.7266 97.3125 48.7266C96.0625 48.7266 94.9818 48.9479 94.0703 49.3906C93.1589 49.8073 92.4557 50.3802 91.9609 51.1094C91.4922 51.8125 91.2578 52.5938 91.2578 53.4531C91.2578 54.1042 91.388 54.6901 91.6484 55.2109C91.9349 55.7057 92.3906 56.1615 93.0156 56.5781C93.6406 56.9948 94.4479 57.3854 95.4375 57.75C96.4531 58.0885 97.7031 58.401 99.1875 58.6875C102.234 59.3125 104.956 60.1328 107.352 61.1484C109.747 62.138 111.648 63.4922 113.055 65.2109C114.461 66.9036 115.164 69.1302 115.164 71.8906C115.164 73.7656 114.747 75.4844 113.914 77.0469C113.081 78.6094 111.883 79.9766 110.32 81.1484C108.758 82.2943 106.883 83.1927 104.695 83.8438C102.534 84.4688 100.099 84.7812 97.3906 84.7812C93.4583 84.7812 90.125 84.0781 87.3906 82.6719C84.6823 81.2656 82.625 79.4818 81.2188 77.3203C79.8385 75.1328 79.1484 72.8932 79.1484 70.6016H89.8125C89.8646 72.138 90.2552 73.375 90.9844 74.3125C91.7396 75.25 92.6901 75.9271 93.8359 76.3438C95.0078 76.7604 96.2708 76.9688 97.625 76.9688C99.0833 76.9688 100.294 76.7734 101.258 76.3828C102.221 75.9661 102.951 75.4193 103.445 74.7422C103.966 74.0391 104.227 73.2318 104.227 72.3203ZM141.922 84.7812C138.641 84.7812 135.698 84.2604 133.094 83.2188C130.49 82.151 128.276 80.6797 126.453 78.8047C124.656 76.9297 123.276 74.7552 122.312 72.2812C121.349 69.7812 120.867 67.125 120.867 64.3125V62.75C120.867 59.5469 121.323 56.6172 122.234 53.9609C123.146 51.3047 124.448 49 126.141 47.0469C127.859 45.0938 129.943 43.5964 132.391 42.5547C134.839 41.487 137.599 40.9531 140.672 40.9531C143.667 40.9531 146.323 41.4479 148.641 42.4375C150.958 43.4271 152.898 44.8333 154.461 46.6562C156.049 48.4792 157.247 50.6667 158.055 53.2188C158.862 55.7448 159.266 58.5573 159.266 61.6562V66.3438H125.672V58.8438H148.211V57.9844C148.211 56.4219 147.924 55.0286 147.352 53.8047C146.805 52.5547 145.971 51.5651 144.852 50.8359C143.732 50.1068 142.299 49.7422 140.555 49.7422C139.07 49.7422 137.794 50.0677 136.727 50.7188C135.659 51.3698 134.786 52.2812 134.109 53.4531C133.458 54.625 132.964 56.0052 132.625 57.5938C132.312 59.1562 132.156 60.875 132.156 62.75V64.3125C132.156 66.0052 132.391 67.5677 132.859 69C133.354 70.4323 134.044 71.6693 134.93 72.7109C135.841 73.7526 136.935 74.5599 138.211 75.1328C139.513 75.7057 140.984 75.9922 142.625 75.9922C144.656 75.9922 146.544 75.6016 148.289 74.8203C150.06 74.013 151.583 72.8021 152.859 71.1875L158.328 77.125C157.443 78.401 156.232 79.625 154.695 80.7969C153.185 81.9688 151.362 82.9323 149.227 83.6875C147.091 84.4167 144.656 84.7812 141.922 84.7812ZM176.922 50.4844V84H165.633V41.7344H176.219L176.922 50.4844ZM175.359 61.3828H172.234C172.234 58.4401 172.586 55.7318 173.289 53.2578C174.018 50.7578 175.073 48.5964 176.453 46.7734C177.859 44.9245 179.591 43.4922 181.648 42.4766C183.706 41.4609 186.089 40.9531 188.797 40.9531C190.672 40.9531 192.391 41.2396 193.953 41.8125C195.516 42.3594 196.857 43.2318 197.977 44.4297C199.122 45.6016 200.008 47.138 200.633 49.0391C201.258 50.9141 201.57 53.1667 201.57 55.7969V84H190.32V57.0469C190.32 55.1198 190.06 53.6354 189.539 52.5938C189.018 51.5521 188.276 50.8229 187.312 50.4062C186.375 49.9896 185.242 49.7812 183.914 49.7812C182.456 49.7812 181.18 50.0807 180.086 50.6797C179.018 51.2786 178.133 52.112 177.43 53.1797C176.727 54.2214 176.206 55.4453 175.867 56.8516C175.529 58.2578 175.359 59.7682 175.359 61.3828ZM200.516 60.0938L196.492 60.6016C196.492 57.8411 196.831 55.276 197.508 52.9062C198.211 50.5365 199.24 48.4531 200.594 46.6562C201.974 44.8594 203.68 43.4661 205.711 42.4766C207.742 41.4609 210.086 40.9531 212.742 40.9531C214.773 40.9531 216.622 41.2526 218.289 41.8516C219.956 42.4245 221.375 43.349 222.547 44.625C223.745 45.875 224.656 47.5156 225.281 49.5469C225.932 51.5781 226.258 54.0651 226.258 57.0078V84H214.969V57.0078C214.969 55.0547 214.708 53.5703 214.188 52.5547C213.693 51.513 212.964 50.7969 212 50.4062C211.062 49.9896 209.943 49.7812 208.641 49.7812C207.286 49.7812 206.102 50.0547 205.086 50.6016C204.07 51.1224 203.224 51.8516 202.547 52.7891C201.87 53.7266 201.362 54.8203 201.023 56.0703C200.685 57.2943 200.516 58.6354 200.516 60.0938ZM257.781 74.4688V55.6406C257.781 54.2865 257.56 53.1276 257.117 52.1641C256.674 51.1745 255.984 50.4062 255.047 49.8594C254.135 49.3125 252.951 49.0391 251.492 49.0391C250.242 49.0391 249.161 49.2604 248.25 49.7031C247.339 50.1198 246.635 50.7318 246.141 51.5391C245.646 52.3203 245.398 53.2448 245.398 54.3125H234.148C234.148 52.5156 234.565 50.8099 235.398 49.1953C236.232 47.5807 237.443 46.1615 239.031 44.9375C240.62 43.6875 242.508 42.7109 244.695 42.0078C246.909 41.3047 249.383 40.9531 252.117 40.9531C255.398 40.9531 258.315 41.5 260.867 42.5938C263.419 43.6875 265.424 45.3281 266.883 47.5156C268.367 49.7031 269.109 52.4375 269.109 55.7188V73.8047C269.109 76.1224 269.253 78.0234 269.539 79.5078C269.826 80.9661 270.242 82.2422 270.789 83.3359V84H259.422C258.875 82.8542 258.458 81.4219 258.172 79.7031C257.911 77.9583 257.781 76.2135 257.781 74.4688ZM259.266 58.2578L259.344 64.625H253.055C251.57 64.625 250.281 64.7943 249.188 65.1328C248.094 65.4714 247.195 65.9531 246.492 66.5781C245.789 67.1771 245.268 67.8802 244.93 68.6875C244.617 69.4948 244.461 70.3802 244.461 71.3438C244.461 72.3073 244.682 73.1797 245.125 73.9609C245.568 74.7161 246.206 75.3151 247.039 75.7578C247.872 76.1745 248.849 76.3828 249.969 76.3828C251.661 76.3828 253.133 76.0443 254.383 75.3672C255.633 74.6901 256.596 73.8568 257.273 72.8672C257.977 71.8776 258.341 70.9401 258.367 70.0547L261.336 74.8203C260.919 75.888 260.346 76.9948 259.617 78.1406C258.914 79.2865 258.016 80.3672 256.922 81.3828C255.828 82.3724 254.513 83.1927 252.977 83.8438C251.44 84.4688 249.617 84.7812 247.508 84.7812C244.826 84.7812 242.391 84.2474 240.203 83.1797C238.042 82.0859 236.323 80.5885 235.047 78.6875C233.797 76.7604 233.172 74.5729 233.172 72.125C233.172 69.9115 233.589 67.9453 234.422 66.2266C235.255 64.5078 236.479 63.0625 238.094 61.8906C239.734 60.6927 241.779 59.7943 244.227 59.1953C246.674 58.5703 249.513 58.2578 252.742 58.2578H259.266ZM288.797 50.7578V84H277.547V41.7344H288.094L288.797 50.7578ZM287.156 61.3828H284.109C284.109 58.2578 284.513 55.4453 285.32 52.9453C286.128 50.4193 287.26 48.2708 288.719 46.5C290.177 44.7031 291.909 43.3359 293.914 42.3984C295.945 41.4349 298.211 40.9531 300.711 40.9531C302.69 40.9531 304.5 41.2396 306.141 41.8125C307.781 42.3854 309.188 43.2969 310.359 44.5469C311.557 45.7969 312.469 47.4505 313.094 49.5078C313.745 51.5651 314.07 54.0781 314.07 57.0469V84H302.742V57.0078C302.742 55.1328 302.482 53.6745 301.961 52.6328C301.44 51.5911 300.672 50.862 299.656 50.4453C298.667 50.0026 297.443 49.7812 295.984 49.7812C294.474 49.7812 293.159 50.0807 292.039 50.6797C290.945 51.2786 290.034 52.112 289.305 53.1797C288.602 54.2214 288.068 55.4453 287.703 56.8516C287.339 58.2578 287.156 59.7682 287.156 61.3828ZM345.438 74.4688V55.6406C345.438 54.2865 345.216 53.1276 344.773 52.1641C344.331 51.1745 343.641 50.4062 342.703 49.8594C341.792 49.3125 340.607 49.0391 339.148 49.0391C337.898 49.0391 336.818 49.2604 335.906 49.7031C334.995 50.1198 334.292 50.7318 333.797 51.5391C333.302 52.3203 333.055 53.2448 333.055 54.3125H321.805C321.805 52.5156 322.221 50.8099 323.055 49.1953C323.888 47.5807 325.099 46.1615 326.688 44.9375C328.276 43.6875 330.164 42.7109 332.352 42.0078C334.565 41.3047 337.039 40.9531 339.773 40.9531C343.055 40.9531 345.971 41.5 348.523 42.5938C351.076 43.6875 353.081 45.3281 354.539 47.5156C356.023 49.7031 356.766 52.4375 356.766 55.7188V73.8047C356.766 76.1224 356.909 78.0234 357.195 79.5078C357.482 80.9661 357.898 82.2422 358.445 83.3359V84H347.078C346.531 82.8542 346.115 81.4219 345.828 79.7031C345.568 77.9583 345.438 76.2135 345.438 74.4688ZM346.922 58.2578L347 64.625H340.711C339.227 64.625 337.938 64.7943 336.844 65.1328C335.75 65.4714 334.852 65.9531 334.148 66.5781C333.445 67.1771 332.924 67.8802 332.586 68.6875C332.273 69.4948 332.117 70.3802 332.117 71.3438C332.117 72.3073 332.339 73.1797 332.781 73.9609C333.224 74.7161 333.862 75.3151 334.695 75.7578C335.529 76.1745 336.505 76.3828 337.625 76.3828C339.318 76.3828 340.789 76.0443 342.039 75.3672C343.289 74.6901 344.253 73.8568 344.93 72.8672C345.633 71.8776 345.997 70.9401 346.023 70.0547L348.992 74.8203C348.576 75.888 348.003 76.9948 347.273 78.1406C346.57 79.2865 345.672 80.3672 344.578 81.3828C343.484 82.3724 342.169 83.1927 340.633 83.8438C339.096 84.4688 337.273 84.7812 335.164 84.7812C332.482 84.7812 330.047 84.2474 327.859 83.1797C325.698 82.0859 323.979 80.5885 322.703 78.6875C321.453 76.7604 320.828 74.5729 320.828 72.125C320.828 69.9115 321.245 67.9453 322.078 66.2266C322.911 64.5078 324.135 63.0625 325.75 61.8906C327.391 60.6927 329.435 59.7943 331.883 59.1953C334.331 58.5703 337.169 58.2578 340.398 58.2578H346.922ZM410.32 74.7812V24H421.648V84H411.453L410.32 74.7812ZM383.602 63.375V62.5547C383.602 59.3255 383.966 56.3958 384.695 53.7656C385.424 51.1094 386.492 48.8307 387.898 46.9297C389.305 45.0286 391.036 43.5573 393.094 42.5156C395.151 41.474 397.495 40.9531 400.125 40.9531C402.599 40.9531 404.76 41.474 406.609 42.5156C408.484 43.5573 410.073 45.0417 411.375 46.9688C412.703 48.8698 413.771 51.1224 414.578 53.7266C415.385 56.3047 415.971 59.1302 416.336 62.2031V64C415.971 66.9427 415.385 69.6771 414.578 72.2031C413.771 74.7292 412.703 76.9427 411.375 78.8438C410.073 80.7188 408.484 82.1771 406.609 83.2188C404.734 84.2604 402.547 84.7812 400.047 84.7812C397.417 84.7812 395.073 84.2474 393.016 83.1797C390.984 82.112 389.266 80.6146 387.859 78.6875C386.479 76.7604 385.424 74.4948 384.695 71.8906C383.966 69.2865 383.602 66.4479 383.602 63.375ZM394.852 62.5547V63.375C394.852 65.1198 394.982 66.7474 395.242 68.2578C395.529 69.7682 395.984 71.1094 396.609 72.2812C397.26 73.4271 398.094 74.3255 399.109 74.9766C400.151 75.6016 401.414 75.9141 402.898 75.9141C404.826 75.9141 406.414 75.4844 407.664 74.625C408.914 73.7396 409.865 72.5286 410.516 70.9922C411.193 69.4557 411.583 67.6849 411.688 65.6797V60.5625C411.609 58.9219 411.375 57.4505 410.984 56.1484C410.62 54.8203 410.073 53.6875 409.344 52.75C408.641 51.8125 407.755 51.0833 406.688 50.5625C405.646 50.0417 404.409 49.7812 402.977 49.7812C401.518 49.7812 400.268 50.1198 399.227 50.7969C398.185 51.4479 397.339 52.3464 396.688 53.4922C396.062 54.638 395.594 55.9922 395.281 57.5547C394.995 59.0911 394.852 60.7578 394.852 62.5547ZM453.25 74.4688V55.6406C453.25 54.2865 453.029 53.1276 452.586 52.1641C452.143 51.1745 451.453 50.4062 450.516 49.8594C449.604 49.3125 448.419 49.0391 446.961 49.0391C445.711 49.0391 444.63 49.2604 443.719 49.7031C442.807 50.1198 442.104 50.7318 441.609 51.5391C441.115 52.3203 440.867 53.2448 440.867 54.3125H429.617C429.617 52.5156 430.034 50.8099 430.867 49.1953C431.701 47.5807 432.911 46.1615 434.5 44.9375C436.089 43.6875 437.977 42.7109 440.164 42.0078C442.378 41.3047 444.852 40.9531 447.586 40.9531C450.867 40.9531 453.784 41.5 456.336 42.5938C458.888 43.6875 460.893 45.3281 462.352 47.5156C463.836 49.7031 464.578 52.4375 464.578 55.7188V73.8047C464.578 76.1224 464.721 78.0234 465.008 79.5078C465.294 80.9661 465.711 82.2422 466.258 83.3359V84H454.891C454.344 82.8542 453.927 81.4219 453.641 79.7031C453.38 77.9583 453.25 76.2135 453.25 74.4688ZM454.734 58.2578L454.812 64.625H448.523C447.039 64.625 445.75 64.7943 444.656 65.1328C443.562 65.4714 442.664 65.9531 441.961 66.5781C441.258 67.1771 440.737 67.8802 440.398 68.6875C440.086 69.4948 439.93 70.3802 439.93 71.3438C439.93 72.3073 440.151 73.1797 440.594 73.9609C441.036 74.7161 441.674 75.3151 442.508 75.7578C443.341 76.1745 444.318 76.3828 445.438 76.3828C447.13 76.3828 448.602 76.0443 449.852 75.3672C451.102 74.6901 452.065 73.8568 452.742 72.8672C453.445 71.8776 453.81 70.9401 453.836 70.0547L456.805 74.8203C456.388 75.888 455.815 76.9948 455.086 78.1406C454.383 79.2865 453.484 80.3672 452.391 81.3828C451.297 82.3724 449.982 83.1927 448.445 83.8438C446.909 84.4688 445.086 84.7812 442.977 84.7812C440.294 84.7812 437.859 84.2474 435.672 83.1797C433.51 82.0859 431.792 80.5885 430.516 78.6875C429.266 76.7604 428.641 74.5729 428.641 72.125C428.641 69.9115 429.057 67.9453 429.891 66.2266C430.724 64.5078 431.948 63.0625 433.562 61.8906C435.203 60.6927 437.247 59.7943 439.695 59.1953C442.143 58.5703 444.982 58.2578 448.211 58.2578H454.734ZM505.047 41.7344V84H493.758V41.7344H505.047ZM493.055 30.7188C493.055 29.0781 493.628 27.724 494.773 26.6562C495.919 25.5885 497.456 25.0547 499.383 25.0547C501.284 25.0547 502.807 25.5885 503.953 26.6562C505.125 27.724 505.711 29.0781 505.711 30.7188C505.711 32.3594 505.125 33.7135 503.953 34.7812C502.807 35.849 501.284 36.3828 499.383 36.3828C497.456 36.3828 495.919 35.849 494.773 34.7812C493.628 33.7135 493.055 32.3594 493.055 30.7188ZM525.359 50.7578V84H514.109V41.7344H524.656L525.359 50.7578ZM523.719 61.3828H520.672C520.672 58.2578 521.076 55.4453 521.883 52.9453C522.69 50.4193 523.823 48.2708 525.281 46.5C526.74 44.7031 528.471 43.3359 530.477 42.3984C532.508 41.4349 534.773 40.9531 537.273 40.9531C539.253 40.9531 541.062 41.2396 542.703 41.8125C544.344 42.3854 545.75 43.2969 546.922 44.5469C548.12 45.7969 549.031 47.4505 549.656 49.5078C550.307 51.5651 550.633 54.0781 550.633 57.0469V84H539.305V57.0078C539.305 55.1328 539.044 53.6745 538.523 52.6328C538.003 51.5911 537.234 50.862 536.219 50.4453C535.229 50.0026 534.005 49.7812 532.547 49.7812C531.036 49.7812 529.721 50.0807 528.602 50.6797C527.508 51.2786 526.596 52.112 525.867 53.1797C525.164 54.2214 524.63 55.4453 524.266 56.8516C523.901 58.2578 523.719 59.7682 523.719 61.3828ZM557.391 63.2969V62.4766C557.391 59.3776 557.833 56.526 558.719 53.9219C559.604 51.2917 560.893 49.013 562.586 47.0859C564.279 45.1589 566.362 43.6615 568.836 42.5938C571.31 41.5 574.148 40.9531 577.352 40.9531C580.555 40.9531 583.406 41.5 585.906 42.5938C588.406 43.6615 590.503 45.1589 592.195 47.0859C593.914 49.013 595.216 51.2917 596.102 53.9219C596.987 56.526 597.43 59.3776 597.43 62.4766V63.2969C597.43 66.3698 596.987 69.2214 596.102 71.8516C595.216 74.4557 593.914 76.7344 592.195 78.6875C590.503 80.6146 588.419 82.112 585.945 83.1797C583.471 84.2474 580.633 84.7812 577.43 84.7812C574.227 84.7812 571.375 84.2474 568.875 83.1797C566.401 82.112 564.305 80.6146 562.586 78.6875C560.893 76.7344 559.604 74.4557 558.719 71.8516C557.833 69.2214 557.391 66.3698 557.391 63.2969ZM568.641 62.4766V63.2969C568.641 65.0677 568.797 66.7214 569.109 68.2578C569.422 69.7943 569.917 71.1484 570.594 72.3203C571.297 73.4661 572.208 74.3646 573.328 75.0156C574.448 75.6667 575.815 75.9922 577.43 75.9922C578.992 75.9922 580.333 75.6667 581.453 75.0156C582.573 74.3646 583.471 73.4661 584.148 72.3203C584.826 71.1484 585.32 69.7943 585.633 68.2578C585.971 66.7214 586.141 65.0677 586.141 63.2969V62.4766C586.141 60.7578 585.971 59.1432 585.633 57.6328C585.32 56.0964 584.812 54.7422 584.109 53.5703C583.432 52.3724 582.534 51.4349 581.414 50.7578C580.294 50.0807 578.94 49.7422 577.352 49.7422C575.763 49.7422 574.409 50.0807 573.289 50.7578C572.195 51.4349 571.297 52.3724 570.594 53.5703C569.917 54.7422 569.422 56.0964 569.109 57.6328C568.797 59.1432 568.641 60.7578 568.641 62.4766ZM618.094 75.7969L627.469 41.7344H639.227L624.969 84H617.859L618.094 75.7969ZM611.648 41.7344L621.062 75.8359L621.258 84H614.109L599.852 41.7344H611.648ZM666.453 74.4688V55.6406C666.453 54.2865 666.232 53.1276 665.789 52.1641C665.346 51.1745 664.656 50.4062 663.719 49.8594C662.807 49.3125 661.622 49.0391 660.164 49.0391C658.914 49.0391 657.833 49.2604 656.922 49.7031C656.01 50.1198 655.307 50.7318 654.812 51.5391C654.318 52.3203 654.07 53.2448 654.07 54.3125H642.82C642.82 52.5156 643.237 50.8099 644.07 49.1953C644.904 47.5807 646.115 46.1615 647.703 44.9375C649.292 43.6875 651.18 42.7109 653.367 42.0078C655.581 41.3047 658.055 40.9531 660.789 40.9531C664.07 40.9531 666.987 41.5 669.539 42.5938C672.091 43.6875 674.096 45.3281 675.555 47.5156C677.039 49.7031 677.781 52.4375 677.781 55.7188V73.8047C677.781 76.1224 677.924 78.0234 678.211 79.5078C678.497 80.9661 678.914 82.2422 679.461 83.3359V84H668.094C667.547 82.8542 667.13 81.4219 666.844 79.7031C666.583 77.9583 666.453 76.2135 666.453 74.4688ZM667.938 58.2578L668.016 64.625H661.727C660.242 64.625 658.953 64.7943 657.859 65.1328C656.766 65.4714 655.867 65.9531 655.164 66.5781C654.461 67.1771 653.94 67.8802 653.602 68.6875C653.289 69.4948 653.133 70.3802 653.133 71.3438C653.133 72.3073 653.354 73.1797 653.797 73.9609C654.24 74.7161 654.878 75.3151 655.711 75.7578C656.544 76.1745 657.521 76.3828 658.641 76.3828C660.333 76.3828 661.805 76.0443 663.055 75.3672C664.305 74.6901 665.268 73.8568 665.945 72.8672C666.648 71.8776 667.013 70.9401 667.039 70.0547L670.008 74.8203C669.591 75.888 669.018 76.9948 668.289 78.1406C667.586 79.2865 666.688 80.3672 665.594 81.3828C664.5 82.3724 663.185 83.1927 661.648 83.8438C660.112 84.4688 658.289 84.7812 656.18 84.7812C653.497 84.7812 651.062 84.2474 648.875 83.1797C646.714 82.0859 644.995 80.5885 643.719 78.6875C642.469 76.7604 641.844 74.5729 641.844 72.125C641.844 69.9115 642.26 67.9453 643.094 66.2266C643.927 64.5078 645.151 63.0625 646.766 61.8906C648.406 60.6927 650.451 59.7943 652.898 59.1953C655.346 58.5703 658.185 58.2578 661.414 58.2578H667.938ZM703.914 75.9922C705.294 75.9922 706.518 75.7318 707.586 75.2109C708.654 74.6641 709.487 73.9089 710.086 72.9453C710.711 71.9557 711.036 70.7969 711.062 69.4688H721.648C721.622 72.4375 720.828 75.0807 719.266 77.3984C717.703 79.6901 715.607 81.5 712.977 82.8281C710.346 84.1302 707.404 84.7812 704.148 84.7812C700.867 84.7812 698.003 84.2344 695.555 83.1406C693.133 82.0469 691.115 80.5365 689.5 78.6094C687.885 76.6562 686.674 74.3906 685.867 71.8125C685.06 69.2083 684.656 66.4219 684.656 63.4531V62.3203C684.656 59.3255 685.06 56.5391 685.867 53.9609C686.674 51.3568 687.885 49.0911 689.5 47.1641C691.115 45.2109 693.133 43.6875 695.555 42.5938C697.977 41.5 700.815 40.9531 704.07 40.9531C707.534 40.9531 710.568 41.6172 713.172 42.9453C715.802 44.2734 717.859 46.1745 719.344 48.6484C720.854 51.0964 721.622 54 721.648 57.3594H711.062C711.036 55.9531 710.737 54.6771 710.164 53.5312C709.617 52.3854 708.81 51.474 707.742 50.7969C706.701 50.0938 705.411 49.7422 703.875 49.7422C702.234 49.7422 700.893 50.0938 699.852 50.7969C698.81 51.474 698.003 52.4115 697.43 53.6094C696.857 54.7812 696.453 56.1224 696.219 57.6328C696.01 59.1172 695.906 60.6797 695.906 62.3203V63.4531C695.906 65.0938 696.01 66.6693 696.219 68.1797C696.427 69.6901 696.818 71.0312 697.391 72.2031C697.99 73.375 698.81 74.2995 699.852 74.9766C700.893 75.6536 702.247 75.9922 703.914 75.9922ZM699.695 83.8438H708.172L707.742 86.1484C709.227 86.4089 710.581 87.0339 711.805 88.0234C713.029 89.013 713.641 90.6406 713.641 92.9062C713.641 94.2865 713.341 95.5365 712.742 96.6562C712.169 97.776 711.31 98.7396 710.164 99.5469C709.018 100.38 707.586 101.005 705.867 101.422C704.148 101.865 702.169 102.086 699.93 102.086L699.656 95.8359C700.49 95.8359 701.245 95.7188 701.922 95.4844C702.599 95.25 703.133 94.8854 703.523 94.3906C703.914 93.9219 704.109 93.2969 704.109 92.5156C704.109 91.7865 703.914 91.2135 703.523 90.7969C703.133 90.3802 702.521 90.0677 701.688 89.8594C700.88 89.651 699.812 89.5078 698.484 89.4297L699.695 83.8438ZM750.984 74.4688V55.6406C750.984 54.2865 750.763 53.1276 750.32 52.1641C749.878 51.1745 749.188 50.4062 748.25 49.8594C747.339 49.3125 746.154 49.0391 744.695 49.0391C743.445 49.0391 742.365 49.2604 741.453 49.7031C740.542 50.1198 739.839 50.7318 739.344 51.5391C738.849 52.3203 738.602 53.2448 738.602 54.3125H727.352C727.352 52.5156 727.768 50.8099 728.602 49.1953C729.435 47.5807 730.646 46.1615 732.234 44.9375C733.823 43.6875 735.711 42.7109 737.898 42.0078C740.112 41.3047 742.586 40.9531 745.32 40.9531C748.602 40.9531 751.518 41.5 754.07 42.5938C756.622 43.6875 758.628 45.3281 760.086 47.5156C761.57 49.7031 762.312 52.4375 762.312 55.7188V73.8047C762.312 76.1224 762.456 78.0234 762.742 79.5078C763.029 80.9661 763.445 82.2422 763.992 83.3359V84H752.625C752.078 82.8542 751.661 81.4219 751.375 79.7031C751.115 77.9583 750.984 76.2135 750.984 74.4688ZM752.469 58.2578L752.547 64.625H746.258C744.773 64.625 743.484 64.7943 742.391 65.1328C741.297 65.4714 740.398 65.9531 739.695 66.5781C738.992 67.1771 738.471 67.8802 738.133 68.6875C737.82 69.4948 737.664 70.3802 737.664 71.3438C737.664 72.3073 737.885 73.1797 738.328 73.9609C738.771 74.7161 739.409 75.3151 740.242 75.7578C741.076 76.1745 742.052 76.3828 743.172 76.3828C744.865 76.3828 746.336 76.0443 747.586 75.3672C748.836 74.6901 749.799 73.8568 750.477 72.8672C751.18 71.8776 751.544 70.9401 751.57 70.0547L754.539 74.8203C754.122 75.888 753.549 76.9948 752.82 78.1406C752.117 79.2865 751.219 80.3672 750.125 81.3828C749.031 82.3724 747.716 83.1927 746.18 83.8438C744.643 84.4688 742.82 84.7812 740.711 84.7812C738.029 84.7812 735.594 84.2474 733.406 83.1797C731.245 82.0859 729.526 80.5885 728.25 78.6875C727 76.7604 726.375 74.5729 726.375 72.125C726.375 69.9115 726.792 67.9453 727.625 66.2266C728.458 64.5078 729.682 63.0625 731.297 61.8906C732.938 60.6927 734.982 59.7943 737.43 59.1953C739.878 58.5703 742.716 58.2578 745.945 58.2578H752.469ZM753.484 24.1953L759.969 24.625C759.969 26.526 759.591 28.2578 758.836 29.8203C758.081 31.3568 757.039 32.5938 755.711 33.5312C754.383 34.4427 752.859 34.8984 751.141 34.8984C749.891 34.8984 748.81 34.7292 747.898 34.3906C747.013 34.0521 746.193 33.6615 745.438 33.2188C744.682 32.75 743.901 32.3464 743.094 32.0078C742.312 31.6693 741.414 31.5 740.398 31.5C739.487 31.5 738.706 31.8255 738.055 32.4766C737.43 33.1276 737.117 34.0651 737.117 35.2891L730.594 34.9375C730.594 33.0625 730.971 31.3438 731.727 29.7812C732.482 28.2188 733.523 26.9688 734.852 26.0312C736.18 25.0677 737.69 24.5859 739.383 24.5859C740.451 24.5859 741.427 24.7682 742.312 25.1328C743.198 25.4714 744.044 25.862 744.852 26.3047C745.685 26.7474 746.531 27.138 747.391 27.4766C748.25 27.8151 749.161 27.9844 750.125 27.9844C751.036 27.9844 751.818 27.6589 752.469 27.0078C753.146 26.3307 753.484 25.3932 753.484 24.1953ZM769.188 63.2969V62.4766C769.188 59.3776 769.63 56.526 770.516 53.9219C771.401 51.2917 772.69 49.013 774.383 47.0859C776.076 45.1589 778.159 43.6615 780.633 42.5938C783.107 41.5 785.945 40.9531 789.148 40.9531C792.352 40.9531 795.203 41.5 797.703 42.5938C800.203 43.6615 802.299 45.1589 803.992 47.0859C805.711 49.013 807.013 51.2917 807.898 53.9219C808.784 56.526 809.227 59.3776 809.227 62.4766V63.2969C809.227 66.3698 808.784 69.2214 807.898 71.8516C807.013 74.4557 805.711 76.7344 803.992 78.6875C802.299 80.6146 800.216 82.112 797.742 83.1797C795.268 84.2474 792.43 84.7812 789.227 84.7812C786.023 84.7812 783.172 84.2474 780.672 83.1797C778.198 82.112 776.102 80.6146 774.383 78.6875C772.69 76.7344 771.401 74.4557 770.516 71.8516C769.63 69.2214 769.188 66.3698 769.188 63.2969ZM780.438 62.4766V63.2969C780.438 65.0677 780.594 66.7214 780.906 68.2578C781.219 69.7943 781.714 71.1484 782.391 72.3203C783.094 73.4661 784.005 74.3646 785.125 75.0156C786.245 75.6667 787.612 75.9922 789.227 75.9922C790.789 75.9922 792.13 75.6667 793.25 75.0156C794.37 74.3646 795.268 73.4661 795.945 72.3203C796.622 71.1484 797.117 69.7943 797.43 68.2578C797.768 66.7214 797.938 65.0677 797.938 63.2969V62.4766C797.938 60.7578 797.768 59.1432 797.43 57.6328C797.117 56.0964 796.609 54.7422 795.906 53.5703C795.229 52.3724 794.331 51.4349 793.211 50.7578C792.091 50.0807 790.737 49.7422 789.148 49.7422C787.56 49.7422 786.206 50.0807 785.086 50.7578C783.992 51.4349 783.094 52.3724 782.391 53.5703C781.714 54.7422 781.219 56.0964 780.906 57.6328C780.594 59.1432 780.438 60.7578 780.438 62.4766Z" fill="#004695"/>
</svg>
