<svg width="260" height="83" viewBox="0 0 260 83" fill="none" xmlns="http://www.w3.org/2000/svg">
<path d="M17.5147 38.8194C14.2831 38.8194 11.1025 37.1105 9.85265 34.0553V49.4356H0.208871V18.8825C0.208871 15.7245 0.105285 13.8603 0 12.0991H9.12245L9.27868 16.3959C10.79 13.1855 14.2305 11.5795 17.7745 11.5795C25.6981 11.5795 28.8244 18.0525 28.8244 25.0434C28.8261 32.2941 25.7524 38.8194 17.5147 38.8194ZM14.1269 17.899C10.2687 17.899 9.59284 22.0423 9.59284 25.0451C9.59284 27.945 10.2704 32.5016 14.0759 32.5016C18.036 32.5016 18.5574 28.0479 18.5574 25.0451C18.5574 22.0929 17.9851 17.899 14.1269 17.899Z" fill="white"/>
<path d="M63.8538 38.2492V22.5585C63.8538 20.2794 63.3851 18.1065 60.6222 18.1065C57.7031 18.1065 57.0255 21.0587 57.0255 23.5437V38.2492H47.487V22.5585C47.487 20.3316 47.0167 18.1065 44.3064 18.1065C41.4926 18.1065 40.6571 21.0587 40.6571 23.5437V38.2492H31.0133V17.7438C31.0133 15.8797 31.0133 13.9633 30.8044 12.0991H39.9269L40.0322 16.3976C41.5435 13.2901 44.6189 11.5812 48.5806 11.5812C52.3862 11.5812 55.3563 13.3424 56.4516 16.5528C57.8067 13.2901 61.4034 11.5812 64.7402 11.5812C71.5685 11.5812 73.4976 15.8274 73.4976 21.9377V38.2492H63.8538Z" fill="white"/>
<path d="M85.118 27.53C85.1707 31.621 88.8183 33.3822 92.5202 33.3822C95.1778 33.3822 98.3585 32.9689 100.756 31.6733L101.069 37.3703C97.7845 38.4584 93.7701 38.8211 90.2787 38.8211C81.3125 38.8211 75.6831 34.2628 75.6831 25.0451C75.6831 16.5022 81.6776 11.5812 89.6521 11.5812C98.8255 11.5812 102.424 17.3288 102.424 25.9257V27.5317H85.118V27.53ZM89.7047 16.7586C86.159 16.7586 85.0654 20.3317 85.0654 23.0241H93.9263C93.9263 20.281 93.1452 16.7586 89.7047 16.7586Z" fill="white"/>
<path d="M121.448 38.2492V23.1287C121.448 20.7467 121.187 18.1065 118.111 18.1065C114.985 18.1065 114.202 21.0064 114.202 23.5943V38.2492H104.558V17.7438C104.558 15.8797 104.558 13.9633 104.349 12.0991H113.472L113.575 16.3976C115.192 13.1349 118.58 11.5812 122.124 11.5812C128.171 11.5812 131.09 14.9468 131.09 20.8512V38.2509H121.448V38.2492Z" fill="white"/>
<path d="M148.133 38.8194C139.063 38.8194 133.33 34.0553 133.33 25.0434C133.33 15.8257 139.793 11.5795 148.133 11.5795C156.838 11.5795 162.936 15.7228 162.936 25.0434C162.937 34.1076 156.995 38.8194 148.133 38.8194ZM148.133 17.6392C144.483 17.6392 143.599 21.8331 143.599 25.0434C143.599 28.824 144.538 32.7074 148.133 32.7074C151.833 32.7074 152.669 28.8763 152.669 25.0434C152.669 21.8331 151.938 17.6392 148.133 17.6392Z" fill="white"/>
<path d="M173.673 38.8194C170.389 38.8194 167.105 38.3538 163.977 37.4732L164.289 31.4658C166.739 32.7597 169.71 33.3822 172.472 33.3822C174.142 33.3822 177.373 32.9166 177.373 30.7927C177.373 26.1838 163.715 28.6182 163.715 19.8154C163.715 13.3425 171.17 11.5306 176.382 11.5306C179.25 11.5306 182.22 12.0485 185.035 12.7216L184.723 18.4169C182.325 17.5363 179.615 16.9678 177.008 16.9678C175.392 16.9678 172.63 17.2782 172.63 19.4527C172.63 23.181 186.34 20.9542 186.34 29.9644C186.34 36.8507 179.406 38.8194 173.673 38.8194Z" fill="white"/>
<path d="M199.004 0H195.088V38.4263H199.004V0Z" fill="white"/>
<path d="M219.229 38.4263L219.068 34.1616C217.565 37.2538 214.079 39.0117 210.752 39.0117C205.977 39.0117 202.007 36.6128 202.007 31.4961C202.007 24.6739 208.551 22.275 216.76 22.275H218.852V20.9963C218.852 16.9458 217.242 14.4406 212.844 14.4406C210.108 14.4406 207.532 15.0277 205.172 16.573L204.849 13.1096C207.103 12.0974 210.536 11.3501 213.004 11.3501C219.657 11.3501 222.714 14.6549 222.714 21.2628V32.7749C222.714 34.747 222.766 36.6128 223.036 38.4246H219.229V38.4263ZM218.854 25.1024H218.103C213.328 25.1024 206.031 25.4753 206.031 31.3392C206.031 34.4298 208.553 35.8688 211.45 35.8688C217.137 35.8688 218.854 31.6581 218.854 26.7017V25.1024Z" fill="white"/>
<path d="M239.936 39.0134C236.234 39.0134 233.283 37.3618 231.568 34.003L231.461 38.4263H227.866V0H231.782V16.3621C233.123 13.2716 236.664 11.3535 239.991 11.3535C248.145 11.3535 250.827 18.0154 250.827 25.0501C250.827 31.9246 247.877 39.0134 239.936 39.0134ZM239.186 14.6566C233.606 14.6566 231.622 20.4126 231.622 25.0501C231.622 29.6877 233.5 35.7086 239.186 35.7086C245.141 35.7086 246.59 29.9002 246.59 25.0501C246.59 20.1461 245.248 14.6566 239.186 14.6566Z" fill="white"/>
<path d="M260 33.6842H255.386V38.428H260V33.6842Z" fill="white"/>
<path d="M260 52.8939H0V83H260V52.8939Z" fill="#ED1C24"/>
<path d="M17.7762 73.3066V68.8715H13.5834V73.3066H11.24V62.8185H13.5834V67.0006H17.7762V62.8185H20.1196V73.3066H17.7762Z" fill="white"/>
<path d="M23.0474 73.3066V62.8185H29.9317V64.4229H25.3416V67.1744H29.7262V68.7618H25.3416V71.7022H30.0743V73.3066H23.0474Z" fill="white"/>
<path d="M40.0117 73.3049L39.0777 70.6799H34.5827L33.6335 73.3049H31.324L35.3435 62.8185H38.4137L42.4485 73.3049H40.0117ZM36.848 64.2964L35.0599 69.0925H38.5886L36.848 64.2964Z" fill="white"/>
<path d="M44.2063 73.3066V62.8185H46.5497V71.4509H51.0906V73.3066H44.2063Z" fill="white"/>
<path d="M57.0102 64.6742V73.3066H54.6515V64.6742H51.3435V62.8185H60.3182V64.6742H57.0102Z" fill="white"/>
<path d="M68.8006 73.3066V68.8715H64.6061V73.3066H62.2644V62.8185H64.6061V67.0006H68.8006V62.8185H71.144V73.3066H68.8006Z" fill="white"/>
<path d="M82.8544 70.6175C81.6351 70.6175 80.6553 69.6424 80.6553 68.4328C80.6553 67.2216 81.6351 66.2482 82.8544 66.2482C84.0736 66.2482 85.0705 67.2216 85.0705 68.4328C85.0688 69.6424 84.0719 70.6175 82.8544 70.6175Z" fill="white"/>
<path d="M99.25 64.6742V73.3066H96.8912V64.6742H93.5833V62.8185H102.558V64.6742H99.25Z" fill="white"/>
<path d="M104.504 73.3066V62.8185H111.388V64.4229H106.798V67.1744H111.183V68.7618H106.798V71.7022H111.531V73.3066H104.504Z" fill="white"/>
<path d="M119.222 73.4786C115.819 73.4786 113.445 71.5453 113.445 68.0701C113.445 64.7839 115.992 62.6616 119.222 62.6616C120.061 62.6616 121.073 62.8033 121.864 63.0395L121.771 64.7839C121.122 64.5156 120.299 64.3587 119.587 64.3587C117.339 64.3587 115.899 65.8838 115.899 68.0701C115.899 70.3172 117.244 71.7798 119.539 71.7798C120.316 71.7798 121.09 71.6533 121.801 71.3395L121.897 73.0383C121.105 73.3538 120.093 73.4786 119.222 73.4786Z" fill="white"/>
<path d="M129.73 73.3066V68.8715H125.537V73.3066H123.194V62.8185H125.537V67.0006H129.73V62.8185H132.073V73.3066H129.73Z" fill="white"/>
<path d="M143.784 70.6175C142.565 70.6175 141.585 69.6424 141.585 68.4328C141.585 67.2216 142.566 66.2482 143.784 66.2482C145.003 66.2482 146 67.2216 146 68.4328C146 69.6424 145.003 70.6175 143.784 70.6175Z" fill="white"/>
<path d="M155.511 73.3066V62.8185H162.395V64.4229H157.805V67.1744H162.19V68.7618H157.805V71.7022H162.538V73.3066H155.511Z" fill="white"/>
<path d="M171.779 73.3066L169.122 69.0604L166.417 73.3066H163.851L167.712 67.8492L164.263 62.8185H166.938L169.358 66.6548L171.749 62.8185H174.233L170.72 67.8492L174.551 73.3066H171.779Z" fill="white"/>
<path d="M180.739 69.4383H178.65V73.3065H176.354V62.8202H180.802C182.828 62.8202 184.363 63.9842 184.363 66.0913C184.363 68.3215 182.78 69.4383 180.739 69.4383ZM179.915 64.3756H178.633V67.866H179.457C180.739 67.866 182.006 67.6939 182.006 66.1048C182.004 64.8631 181.039 64.3756 179.915 64.3756Z" fill="white"/>
<path d="M186.53 73.3066V62.8185H193.414V64.4229H188.826V67.1744H193.209V68.7618H188.826V71.7022H193.557V73.3066H186.53Z" fill="white"/>
<path d="M201.359 73.3065L200.268 70.3037C199.904 69.2814 199.666 68.9676 198.512 68.9676H197.657V73.3065H195.363V62.8202H199.668C201.472 62.8202 203.26 63.5119 203.26 65.6037C203.26 67.0495 202.183 67.9149 200.823 68.1511C201.772 68.34 202.168 68.8276 202.501 69.7065L203.861 73.3065H201.359ZM198.765 64.3756H197.641V67.4105H198.702C199.778 67.4105 200.901 67.0799 200.901 65.8382C200.901 64.6101 199.902 64.3756 198.765 64.3756Z" fill="white"/>
<path d="M208.291 62.8185H205.95V73.3049H208.291V62.8185Z" fill="white"/>
<path d="M211.221 73.3066V62.8185H218.105V64.4229H213.515V67.1744H217.898V68.7618H213.515V71.7022H218.248V73.3066H211.221Z" fill="white"/>
<path d="M226.334 73.3066L222.44 64.7367V73.3066H220.367V62.8185H223.785L227.694 71.4036V62.8185H229.768V73.3066H226.334Z" fill="white"/>
<path d="M237.951 73.4786C234.548 73.4786 232.174 71.5453 232.174 68.0701C232.174 64.7839 234.721 62.6616 237.951 62.6616C238.79 62.6616 239.802 62.8033 240.593 63.0395L240.498 64.7855C239.85 64.5173 239.026 64.3604 238.315 64.3604C236.066 64.3604 234.626 65.8855 234.626 68.0718C234.626 70.3189 235.971 71.7815 238.267 71.7815C239.043 71.7815 239.817 71.655 240.529 71.3412L240.624 73.04C239.833 73.3538 238.821 73.4786 237.951 73.4786Z" fill="white"/>
<path d="M242.239 73.3066V62.8185H249.123V64.4229H244.535V67.1744H248.918V68.7618H244.535V71.7022H249.266V73.3066H242.239Z" fill="white"/>
</svg>
