<svg width="1200" height="534" viewBox="0 0 1200 534" fill="none" xmlns="http://www.w3.org/2000/svg">
<g clip-path="url(#clip0_175_472)">
<rect width="1200" height="534" fill="white"/>
<path d="M456.842 5.59883C456.436 5.59883 456.107 5.25158 456.107 4.82322C456.107 4.39486 456.436 4.04761 456.842 4.04761C457.247 4.04761 457.576 4.39486 457.576 4.82322C457.576 5.25158 457.247 5.59883 456.842 5.59883Z" fill="#05498B"/>
<path d="M450.766 5.59883C450.36 5.59883 450.031 5.25158 450.031 4.82322C450.031 4.39486 450.36 4.04761 450.766 4.04761C451.171 4.04761 451.5 4.39486 451.5 4.82322C451.5 5.25158 451.171 5.59883 450.766 5.59883Z" fill="#05498B"/>
<path d="M444.756 5.59883C444.35 5.59883 444.021 5.25158 444.021 4.82322C444.021 4.39486 444.35 4.04761 444.756 4.04761C445.162 4.04761 445.49 4.39486 445.49 4.82322C445.49 5.25158 445.162 5.59883 444.756 5.59883Z" fill="#05498B"/>
<path d="M438.679 5.59883C438.273 5.59883 437.944 5.25158 437.944 4.82322C437.944 4.39486 438.273 4.04761 438.679 4.04761C439.085 4.04761 439.413 4.39486 439.413 4.82322C439.413 5.25158 439.085 5.59883 438.679 5.59883Z" fill="#05498B"/>
<path d="M432.67 5.59883C432.264 5.59883 431.935 5.25158 431.935 4.82322C431.935 4.39486 432.264 4.04761 432.67 4.04761C433.075 4.04761 433.404 4.39486 433.404 4.82322C433.404 5.25158 433.075 5.59883 432.67 5.59883Z" fill="#05498B"/>
<path d="M426.593 5.59883C426.188 5.59883 425.859 5.25158 425.859 4.82322C425.859 4.39486 426.188 4.04761 426.593 4.04761C426.999 4.04761 427.328 4.39486 427.328 4.82322C427.328 5.25158 426.999 5.59883 426.593 5.59883Z" fill="#05498B"/>
<path d="M420.584 5.59883C420.179 5.59883 419.85 5.25158 419.85 4.82322C419.85 4.39486 420.179 4.04761 420.584 4.04761C420.99 4.04761 421.319 4.39486 421.319 4.82322C421.319 5.25158 420.99 5.59883 420.584 5.59883Z" fill="#05498B"/>
<path d="M456.842 12.0146C456.436 12.0146 456.107 11.6674 456.107 11.2391C456.107 10.8108 456.436 10.4636 456.842 10.4636C457.247 10.4636 457.576 10.8108 457.576 11.2391C457.576 11.6674 457.247 12.0146 456.842 12.0146Z" fill="#05498B"/>
<path d="M450.766 12.0146C450.36 12.0146 450.031 11.6674 450.031 11.2391C450.031 10.8108 450.36 10.4636 450.766 10.4636C451.171 10.4636 451.5 10.8108 451.5 11.2391C451.5 11.6674 451.171 12.0146 450.766 12.0146Z" fill="#05498B"/>
<path d="M444.756 12.0146C444.35 12.0146 444.021 11.6674 444.021 11.2391C444.021 10.8108 444.35 10.4636 444.756 10.4636C445.162 10.4636 445.49 10.8108 445.49 11.2391C445.49 11.6674 445.162 12.0146 444.756 12.0146Z" fill="#05498B"/>
<path d="M438.679 12.0146C438.273 12.0146 437.944 11.6674 437.944 11.2391C437.944 10.8108 438.273 10.4636 438.679 10.4636C439.085 10.4636 439.413 10.8108 439.413 11.2391C439.413 11.6674 439.085 12.0146 438.679 12.0146Z" fill="#05498B"/>
<path d="M432.67 12.0146C432.264 12.0146 431.935 11.6674 431.935 11.2391C431.935 10.8108 432.264 10.4636 432.67 10.4636C433.075 10.4636 433.404 10.8108 433.404 11.2391C433.404 11.6674 433.075 12.0146 432.67 12.0146Z" fill="#05498B"/>
<path d="M426.593 12.0146C426.188 12.0146 425.859 11.6674 425.859 11.2391C425.859 10.8108 426.188 10.4636 426.593 10.4636C426.999 10.4636 427.328 10.8108 427.328 11.2391C427.328 11.6674 426.999 12.0146 426.593 12.0146Z" fill="#05498B"/>
<path d="M420.584 12.0146C420.179 12.0146 419.85 11.6674 419.85 11.2391C419.85 10.8108 420.179 10.4636 420.584 10.4636C420.99 10.4636 421.319 10.8108 421.319 11.2391C421.319 11.6674 420.99 12.0146 420.584 12.0146Z" fill="#05498B"/>
<path d="M456.842 18.3606C456.436 18.3606 456.107 18.0133 456.107 17.585C456.107 17.1566 456.436 16.8094 456.842 16.8094C457.247 16.8094 457.576 17.1566 457.576 17.585C457.576 18.0133 457.247 18.3606 456.842 18.3606Z" fill="#05498B"/>
<path d="M450.766 18.3606C450.36 18.3606 450.031 18.0133 450.031 17.585C450.031 17.1566 450.36 16.8094 450.766 16.8094C451.171 16.8094 451.5 17.1566 451.5 17.585C451.5 18.0133 451.171 18.3606 450.766 18.3606Z" fill="#05498B"/>
<path d="M444.756 18.3606C444.35 18.3606 444.021 18.0133 444.021 17.585C444.021 17.1566 444.35 16.8094 444.756 16.8094C445.162 16.8094 445.49 17.1566 445.49 17.585C445.49 18.0133 445.162 18.3606 444.756 18.3606Z" fill="#05498B"/>
<path d="M438.679 18.3606C438.273 18.3606 437.944 18.0133 437.944 17.585C437.944 17.1566 438.273 16.8094 438.679 16.8094C439.085 16.8094 439.413 17.1566 439.413 17.585C439.413 18.0133 439.085 18.3606 438.679 18.3606Z" fill="#05498B"/>
<path d="M432.67 18.3606C432.264 18.3606 431.935 18.0133 431.935 17.585C431.935 17.1566 432.264 16.8094 432.67 16.8094C433.075 16.8094 433.404 17.1566 433.404 17.585C433.404 18.0133 433.075 18.3606 432.67 18.3606Z" fill="#05498B"/>
<path d="M426.593 18.3606C426.188 18.3606 425.859 18.0133 425.859 17.585C425.859 17.1566 426.188 16.8094 426.593 16.8094C426.999 16.8094 427.328 17.1566 427.328 17.585C427.328 18.0133 426.999 18.3606 426.593 18.3606Z" fill="#05498B"/>
<path d="M420.584 18.3606C420.179 18.3606 419.85 18.0133 419.85 17.585C419.85 17.1566 420.179 16.8094 420.584 16.8094C420.99 16.8094 421.319 17.1566 421.319 17.585C421.319 18.0133 420.99 18.3606 420.584 18.3606Z" fill="#05498B"/>
<path d="M456.842 24.7766C456.436 24.7766 456.107 24.4293 456.107 24.0009C456.107 23.5725 456.436 23.2252 456.842 23.2252C457.247 23.2252 457.576 23.5725 457.576 24.0009C457.576 24.4293 457.247 24.7766 456.842 24.7766Z" fill="#05498B"/>
<path d="M450.766 24.7766C450.36 24.7766 450.031 24.4293 450.031 24.0009C450.031 23.5725 450.36 23.2252 450.766 23.2252C451.171 23.2252 451.5 23.5725 451.5 24.0009C451.5 24.4293 451.171 24.7766 450.766 24.7766Z" fill="#05498B"/>
<path d="M444.756 24.7766C444.35 24.7766 444.021 24.4293 444.021 24.0009C444.021 23.5725 444.35 23.2252 444.756 23.2252C445.162 23.2252 445.49 23.5725 445.49 24.0009C445.49 24.4293 445.162 24.7766 444.756 24.7766Z" fill="#05498B"/>
<path d="M438.679 24.7766C438.273 24.7766 437.944 24.4293 437.944 24.0009C437.944 23.5725 438.273 23.2252 438.679 23.2252C439.085 23.2252 439.413 23.5725 439.413 24.0009C439.413 24.4293 439.085 24.7766 438.679 24.7766Z" fill="#05498B"/>
<path d="M432.67 24.7766C432.264 24.7766 431.935 24.4293 431.935 24.0009C431.935 23.5725 432.264 23.2252 432.67 23.2252C433.075 23.2252 433.404 23.5725 433.404 24.0009C433.404 24.4293 433.075 24.7766 432.67 24.7766Z" fill="#05498B"/>
<path d="M426.593 24.7766C426.188 24.7766 425.859 24.4293 425.859 24.0009C425.859 23.5725 426.188 23.2252 426.593 23.2252C426.999 23.2252 427.328 23.5725 427.328 24.0009C427.328 24.4293 426.999 24.7766 426.593 24.7766Z" fill="#05498B"/>
<path d="M420.584 24.7766C420.179 24.7766 419.85 24.4293 419.85 24.0009C419.85 23.5725 420.179 23.2252 420.584 23.2252C420.99 23.2252 421.319 23.5725 421.319 24.0009C421.319 24.4293 420.99 24.7766 420.584 24.7766Z" fill="#05498B"/>
<path d="M456.842 31.1223C456.436 31.1223 456.107 30.7751 456.107 30.3468C456.107 29.9185 456.436 29.5712 456.842 29.5712C457.247 29.5712 457.576 29.9185 457.576 30.3468C457.576 30.7751 457.247 31.1223 456.842 31.1223Z" fill="#05498B"/>
<path d="M450.766 31.1223C450.36 31.1223 450.031 30.7751 450.031 30.3468C450.031 29.9185 450.36 29.5712 450.766 29.5712C451.171 29.5712 451.5 29.9185 451.5 30.3468C451.5 30.7751 451.171 31.1223 450.766 31.1223Z" fill="#05498B"/>
<path d="M444.756 31.1223C444.35 31.1223 444.021 30.7751 444.021 30.3468C444.021 29.9185 444.35 29.5712 444.756 29.5712C445.162 29.5712 445.49 29.9185 445.49 30.3468C445.49 30.7751 445.162 31.1223 444.756 31.1223Z" fill="#05498B"/>
<path d="M438.679 31.1223C438.273 31.1223 437.944 30.7751 437.944 30.3468C437.944 29.9185 438.273 29.5712 438.679 29.5712C439.085 29.5712 439.413 29.9185 439.413 30.3468C439.413 30.7751 439.085 31.1223 438.679 31.1223Z" fill="#05498B"/>
<path d="M432.67 31.1223C432.264 31.1223 431.935 30.7751 431.935 30.3468C431.935 29.9185 432.264 29.5712 432.67 29.5712C433.075 29.5712 433.404 29.9185 433.404 30.3468C433.404 30.7751 433.075 31.1223 432.67 31.1223Z" fill="#05498B"/>
<path d="M426.593 31.1223C426.188 31.1223 425.859 30.7751 425.859 30.3468C425.859 29.9185 426.188 29.5712 426.593 29.5712C426.999 29.5712 427.328 29.9185 427.328 30.3468C427.328 30.7751 426.999 31.1223 426.593 31.1223Z" fill="#05498B"/>
<path d="M420.584 31.1223C420.179 31.1223 419.85 30.7751 419.85 30.3468C419.85 29.9185 420.179 29.5712 420.584 29.5712C420.99 29.5712 421.319 29.9185 421.319 30.3468C421.319 30.7751 420.99 31.1223 420.584 31.1223Z" fill="#05498B"/>
<path d="M414.508 5.59883C414.102 5.59883 413.773 5.25158 413.773 4.82322C413.773 4.39486 414.102 4.04761 414.508 4.04761C414.913 4.04761 415.242 4.39486 415.242 4.82322C415.242 5.25158 414.913 5.59883 414.508 5.59883Z" fill="#05498B"/>
<path d="M408.498 5.59883C408.093 5.59883 407.764 5.25158 407.764 4.82322C407.764 4.39486 408.093 4.04761 408.498 4.04761C408.904 4.04761 409.233 4.39486 409.233 4.82322C409.233 5.25158 408.904 5.59883 408.498 5.59883Z" fill="#05498B"/>
<path d="M402.488 5.59883C402.083 5.59883 401.754 5.25158 401.754 4.82322C401.754 4.39486 402.083 4.04761 402.488 4.04761C402.894 4.04761 403.223 4.39486 403.223 4.82322C403.223 5.25158 402.894 5.59883 402.488 5.59883Z" fill="#05498B"/>
<path d="M396.412 5.59883C396.007 5.59883 395.678 5.25158 395.678 4.82322C395.678 4.39486 396.007 4.04761 396.412 4.04761C396.818 4.04761 397.147 4.39486 397.147 4.82322C397.147 5.25158 396.818 5.59883 396.412 5.59883Z" fill="#05498B"/>
<path d="M390.402 5.59883C389.997 5.59883 389.668 5.25158 389.668 4.82322C389.668 4.39486 389.997 4.04761 390.402 4.04761C390.808 4.04761 391.137 4.39486 391.137 4.82322C391.137 5.25158 390.808 5.59883 390.402 5.59883Z" fill="#05498B"/>
<path d="M384.326 5.59883C383.92 5.59883 383.591 5.25158 383.591 4.82322C383.591 4.39486 383.92 4.04761 384.326 4.04761C384.731 4.04761 385.06 4.39486 385.06 4.82322C385.06 5.25158 384.731 5.59883 384.326 5.59883Z" fill="#05498B"/>
<path d="M414.508 12.0146C414.102 12.0146 413.773 11.6674 413.773 11.2391C413.773 10.8108 414.102 10.4636 414.508 10.4636C414.913 10.4636 415.242 10.8108 415.242 11.2391C415.242 11.6674 414.913 12.0146 414.508 12.0146Z" fill="#05498B"/>
<path d="M408.498 12.0146C408.093 12.0146 407.764 11.6674 407.764 11.2391C407.764 10.8108 408.093 10.4636 408.498 10.4636C408.904 10.4636 409.233 10.8108 409.233 11.2391C409.233 11.6674 408.904 12.0146 408.498 12.0146Z" fill="#05498B"/>
<path d="M402.488 12.0146C402.083 12.0146 401.754 11.6674 401.754 11.2391C401.754 10.8108 402.083 10.4636 402.488 10.4636C402.894 10.4636 403.223 10.8108 403.223 11.2391C403.223 11.6674 402.894 12.0146 402.488 12.0146Z" fill="#05498B"/>
<path d="M396.412 12.0146C396.007 12.0146 395.678 11.6674 395.678 11.2391C395.678 10.8108 396.007 10.4636 396.412 10.4636C396.818 10.4636 397.147 10.8108 397.147 11.2391C397.147 11.6674 396.818 12.0146 396.412 12.0146Z" fill="#05498B"/>
<path d="M390.402 12.0146C389.997 12.0146 389.668 11.6674 389.668 11.2391C389.668 10.8108 389.997 10.4636 390.402 10.4636C390.808 10.4636 391.137 10.8108 391.137 11.2391C391.137 11.6674 390.808 12.0146 390.402 12.0146Z" fill="#05498B"/>
<path d="M384.326 12.0146C383.92 12.0146 383.591 11.6674 383.591 11.2391C383.591 10.8108 383.92 10.4636 384.326 10.4636C384.731 10.4636 385.06 10.8108 385.06 11.2391C385.06 11.6674 384.731 12.0146 384.326 12.0146Z" fill="#05498B"/>
<path d="M414.508 18.3606C414.102 18.3606 413.773 18.0133 413.773 17.585C413.773 17.1566 414.102 16.8094 414.508 16.8094C414.913 16.8094 415.242 17.1566 415.242 17.585C415.242 18.0133 414.913 18.3606 414.508 18.3606Z" fill="#05498B"/>
<path d="M408.498 18.3606C408.093 18.3606 407.764 18.0133 407.764 17.585C407.764 17.1566 408.093 16.8094 408.498 16.8094C408.904 16.8094 409.233 17.1566 409.233 17.585C409.233 18.0133 408.904 18.3606 408.498 18.3606Z" fill="#05498B"/>
<path d="M402.488 18.3606C402.083 18.3606 401.754 18.0133 401.754 17.585C401.754 17.1566 402.083 16.8094 402.488 16.8094C402.894 16.8094 403.223 17.1566 403.223 17.585C403.223 18.0133 402.894 18.3606 402.488 18.3606Z" fill="#05498B"/>
<path d="M396.412 18.3606C396.007 18.3606 395.678 18.0133 395.678 17.585C395.678 17.1566 396.007 16.8094 396.412 16.8094C396.818 16.8094 397.147 17.1566 397.147 17.585C397.147 18.0133 396.818 18.3606 396.412 18.3606Z" fill="#05498B"/>
<path d="M390.402 18.3606C389.997 18.3606 389.668 18.0133 389.668 17.585C389.668 17.1566 389.997 16.8094 390.402 16.8094C390.808 16.8094 391.137 17.1566 391.137 17.585C391.137 18.0133 390.808 18.3606 390.402 18.3606Z" fill="#05498B"/>
<path d="M384.326 18.3606C383.92 18.3606 383.591 18.0133 383.591 17.585C383.591 17.1566 383.92 16.8094 384.326 16.8094C384.731 16.8094 385.06 17.1566 385.06 17.585C385.06 18.0133 384.731 18.3606 384.326 18.3606Z" fill="#05498B"/>
<path d="M414.486 25.1438C414.081 25.1438 413.752 24.7965 413.752 24.3681C413.752 23.9398 414.081 23.5925 414.486 23.5925C414.892 23.5925 415.221 23.9398 415.221 24.3681C415.221 24.7965 414.892 25.1438 414.486 25.1438Z" fill="#05498B"/>
<path d="M408.498 24.7766C408.093 24.7766 407.764 24.4293 407.764 24.0009C407.764 23.5725 408.093 23.2252 408.498 23.2252C408.904 23.2252 409.233 23.5725 409.233 24.0009C409.233 24.4293 408.904 24.7766 408.498 24.7766Z" fill="#05498B"/>
<path d="M402.488 24.7766C402.083 24.7766 401.754 24.4293 401.754 24.0009C401.754 23.5725 402.083 23.2252 402.488 23.2252C402.894 23.2252 403.223 23.5725 403.223 24.0009C403.223 24.4293 402.894 24.7766 402.488 24.7766Z" fill="#05498B"/>
<path d="M396.412 24.7766C396.007 24.7766 395.678 24.4293 395.678 24.0009C395.678 23.5725 396.007 23.2252 396.412 23.2252C396.818 23.2252 397.147 23.5725 397.147 24.0009C397.147 24.4293 396.818 24.7766 396.412 24.7766Z" fill="#05498B"/>
<path d="M390.402 24.7766C389.997 24.7766 389.668 24.4293 389.668 24.0009C389.668 23.5725 389.997 23.2252 390.402 23.2252C390.808 23.2252 391.137 23.5725 391.137 24.0009C391.137 24.4293 390.808 24.7766 390.402 24.7766Z" fill="#05498B"/>
<path d="M384.326 24.7766C383.92 24.7766 383.591 24.4293 383.591 24.0009C383.591 23.5725 383.92 23.2252 384.326 23.2252C384.731 23.2252 385.06 23.5725 385.06 24.0009C385.06 24.4293 384.731 24.7766 384.326 24.7766Z" fill="#05498B"/>
<path d="M414.508 31.1223C414.102 31.1223 413.773 30.7751 413.773 30.3468C413.773 29.9185 414.102 29.5712 414.508 29.5712C414.913 29.5712 415.242 29.9185 415.242 30.3468C415.242 30.7751 414.913 31.1223 414.508 31.1223Z" fill="#05498B"/>
<path d="M408.498 31.1223C408.093 31.1223 407.764 30.7751 407.764 30.3468C407.764 29.9185 408.093 29.5712 408.498 29.5712C408.904 29.5712 409.233 29.9185 409.233 30.3468C409.233 30.7751 408.904 31.1223 408.498 31.1223Z" fill="#05498B"/>
<path d="M402.488 31.1223C402.083 31.1223 401.754 30.7751 401.754 30.3468C401.754 29.9185 402.083 29.5712 402.488 29.5712C402.894 29.5712 403.223 29.9185 403.223 30.3468C403.223 30.7751 402.894 31.1223 402.488 31.1223Z" fill="#05498B"/>
<path d="M396.412 31.1223C396.007 31.1223 395.678 30.7751 395.678 30.3468C395.678 29.9185 396.007 29.5712 396.412 29.5712C396.818 29.5712 397.147 29.9185 397.147 30.3468C397.147 30.7751 396.818 31.1223 396.412 31.1223Z" fill="#05498B"/>
<path d="M390.402 31.1223C389.997 31.1223 389.668 30.7751 389.668 30.3468C389.668 29.9185 389.997 29.5712 390.402 29.5712C390.808 29.5712 391.137 29.9185 391.137 30.3468C391.137 30.7751 390.808 31.1223 390.402 31.1223Z" fill="#05498B"/>
<path d="M384.326 31.1223C383.92 31.1223 383.591 30.7751 383.591 30.3468C383.591 29.9185 383.92 29.5712 384.326 29.5712C384.731 29.5712 385.06 29.9185 385.06 30.3468C385.06 30.7751 384.731 31.1223 384.326 31.1223Z" fill="#05498B"/>
<path d="M402.251 5.59889C401.845 5.59889 401.516 5.25164 401.516 4.82328C401.516 4.39492 401.845 4.04767 402.251 4.04767C402.656 4.04767 402.985 4.39492 402.985 4.82328C402.985 5.25164 402.656 5.59889 402.251 5.59889Z" fill="#05498B"/>
<path d="M396.174 5.59889C395.768 5.59889 395.44 5.25164 395.44 4.82328C395.44 4.39492 395.768 4.04767 396.174 4.04767C396.58 4.04767 396.909 4.39492 396.909 4.82328C396.909 5.25164 396.58 5.59889 396.174 5.59889Z" fill="#05498B"/>
<path d="M390.165 5.59889C389.759 5.59889 389.43 5.25164 389.43 4.82328C389.43 4.39492 389.759 4.04767 390.165 4.04767C390.57 4.04767 390.899 4.39492 390.899 4.82328C390.899 5.25164 390.57 5.59889 390.165 5.59889Z" fill="#05498B"/>
<path d="M384.088 5.59889C383.682 5.59889 383.353 5.25164 383.353 4.82328C383.353 4.39492 383.682 4.04767 384.088 4.04767C384.494 4.04767 384.822 4.39492 384.822 4.82328C384.822 5.25164 384.494 5.59889 384.088 5.59889Z" fill="#05498B"/>
<path d="M378.079 5.59889C377.673 5.59889 377.344 5.25164 377.344 4.82328C377.344 4.39492 377.673 4.04767 378.079 4.04767C378.484 4.04767 378.813 4.39492 378.813 4.82328C378.813 5.25164 378.484 5.59889 378.079 5.59889Z" fill="#05498B"/>
<path d="M372.002 5.59889C371.597 5.59889 371.268 5.25164 371.268 4.82328C371.268 4.39492 371.597 4.04767 372.002 4.04767C372.408 4.04767 372.737 4.39492 372.737 4.82328C372.737 5.25164 372.408 5.59889 372.002 5.59889Z" fill="#05498B"/>
<path d="M365.993 5.59889C365.588 5.59889 365.259 5.25164 365.259 4.82328C365.259 4.39492 365.588 4.04767 365.993 4.04767C366.399 4.04767 366.728 4.39492 366.728 4.82328C366.728 5.25164 366.399 5.59889 365.993 5.59889Z" fill="#05498B"/>
<path d="M402.251 12.0146C401.845 12.0146 401.516 11.6674 401.516 11.2391C401.516 10.8108 401.845 10.4636 402.251 10.4636C402.656 10.4636 402.985 10.8108 402.985 11.2391C402.985 11.6674 402.656 12.0146 402.251 12.0146Z" fill="#05498B"/>
<path d="M396.174 12.0146C395.768 12.0146 395.44 11.6674 395.44 11.2391C395.44 10.8108 395.768 10.4636 396.174 10.4636C396.58 10.4636 396.909 10.8108 396.909 11.2391C396.909 11.6674 396.58 12.0146 396.174 12.0146Z" fill="#05498B"/>
<path d="M390.165 12.0146C389.759 12.0146 389.43 11.6674 389.43 11.2391C389.43 10.8108 389.759 10.4636 390.165 10.4636C390.57 10.4636 390.899 10.8108 390.899 11.2391C390.899 11.6674 390.57 12.0146 390.165 12.0146Z" fill="#05498B"/>
<path d="M384.088 12.0146C383.682 12.0146 383.353 11.6674 383.353 11.2391C383.353 10.8108 383.682 10.4636 384.088 10.4636C384.494 10.4636 384.822 10.8108 384.822 11.2391C384.822 11.6674 384.494 12.0146 384.088 12.0146Z" fill="#05498B"/>
<path d="M378.079 12.0146C377.673 12.0146 377.344 11.6674 377.344 11.2391C377.344 10.8108 377.673 10.4636 378.079 10.4636C378.484 10.4636 378.813 10.8108 378.813 11.2391C378.813 11.6674 378.484 12.0146 378.079 12.0146Z" fill="#05498B"/>
<path d="M372.002 12.0146C371.597 12.0146 371.268 11.6674 371.268 11.2391C371.268 10.8108 371.597 10.4636 372.002 10.4636C372.408 10.4636 372.737 10.8108 372.737 11.2391C372.737 11.6674 372.408 12.0146 372.002 12.0146Z" fill="#05498B"/>
<path d="M365.993 12.0146C365.588 12.0146 365.259 11.6674 365.259 11.2391C365.259 10.8108 365.588 10.4636 365.993 10.4636C366.399 10.4636 366.728 10.8108 366.728 11.2391C366.728 11.6674 366.399 12.0146 365.993 12.0146Z" fill="#05498B"/>
<path d="M402.251 18.3606C401.845 18.3606 401.516 18.0133 401.516 17.585C401.516 17.1566 401.845 16.8094 402.251 16.8094C402.656 16.8094 402.985 17.1566 402.985 17.585C402.985 18.0133 402.656 18.3606 402.251 18.3606Z" fill="#05498B"/>
<path d="M396.174 18.3606C395.768 18.3606 395.44 18.0133 395.44 17.585C395.44 17.1566 395.768 16.8094 396.174 16.8094C396.58 16.8094 396.909 17.1566 396.909 17.585C396.909 18.0133 396.58 18.3606 396.174 18.3606Z" fill="#05498B"/>
<path d="M390.165 18.3606C389.759 18.3606 389.43 18.0133 389.43 17.585C389.43 17.1566 389.759 16.8094 390.165 16.8094C390.57 16.8094 390.899 17.1566 390.899 17.585C390.899 18.0133 390.57 18.3606 390.165 18.3606Z" fill="#05498B"/>
<path d="M384.088 18.3606C383.682 18.3606 383.353 18.0133 383.353 17.585C383.353 17.1566 383.682 16.8094 384.088 16.8094C384.494 16.8094 384.822 17.1566 384.822 17.585C384.822 18.0133 384.494 18.3606 384.088 18.3606Z" fill="#05498B"/>
<path d="M378.079 18.3606C377.673 18.3606 377.344 18.0133 377.344 17.585C377.344 17.1566 377.673 16.8094 378.079 16.8094C378.484 16.8094 378.813 17.1566 378.813 17.585C378.813 18.0133 378.484 18.3606 378.079 18.3606Z" fill="#05498B"/>
<path d="M372.002 18.3606C371.597 18.3606 371.268 18.0133 371.268 17.585C371.268 17.1566 371.597 16.8094 372.002 16.8094C372.408 16.8094 372.737 17.1566 372.737 17.585C372.737 18.0133 372.408 18.3606 372.002 18.3606Z" fill="#05498B"/>
<path d="M365.993 18.3606C365.588 18.3606 365.259 18.0133 365.259 17.585C365.259 17.1566 365.588 16.8094 365.993 16.8094C366.399 16.8094 366.728 17.1566 366.728 17.585C366.728 18.0133 366.399 18.3606 365.993 18.3606Z" fill="#05498B"/>
<path d="M402.251 24.7765C401.845 24.7765 401.516 24.4292 401.516 24.0008C401.516 23.5724 401.845 23.2252 402.251 23.2252C402.656 23.2252 402.985 23.5724 402.985 24.0008C402.985 24.4292 402.656 24.7765 402.251 24.7765Z" fill="#05498B"/>
<path d="M396.174 24.7765C395.768 24.7765 395.44 24.4292 395.44 24.0008C395.44 23.5724 395.768 23.2252 396.174 23.2252C396.58 23.2252 396.909 23.5724 396.909 24.0008C396.909 24.4292 396.58 24.7765 396.174 24.7765Z" fill="#05498B"/>
<path d="M390.165 24.7765C389.759 24.7765 389.43 24.4292 389.43 24.0008C389.43 23.5724 389.759 23.2252 390.165 23.2252C390.57 23.2252 390.899 23.5724 390.899 24.0008C390.899 24.4292 390.57 24.7765 390.165 24.7765Z" fill="#05498B"/>
<path d="M384.088 24.7765C383.682 24.7765 383.353 24.4292 383.353 24.0008C383.353 23.5724 383.682 23.2252 384.088 23.2252C384.494 23.2252 384.822 23.5724 384.822 24.0008C384.822 24.4292 384.494 24.7765 384.088 24.7765Z" fill="#05498B"/>
<path d="M378.079 24.7765C377.673 24.7765 377.344 24.4292 377.344 24.0008C377.344 23.5724 377.673 23.2252 378.079 23.2252C378.484 23.2252 378.813 23.5724 378.813 24.0008C378.813 24.4292 378.484 24.7765 378.079 24.7765Z" fill="#05498B"/>
<path d="M372.002 24.7765C371.597 24.7765 371.268 24.4292 371.268 24.0008C371.268 23.5724 371.597 23.2252 372.002 23.2252C372.408 23.2252 372.737 23.5724 372.737 24.0008C372.737 24.4292 372.408 24.7765 372.002 24.7765Z" fill="#05498B"/>
<path d="M365.993 24.7765C365.588 24.7765 365.259 24.4292 365.259 24.0008C365.259 23.5724 365.588 23.2252 365.993 23.2252C366.399 23.2252 366.728 23.5724 366.728 24.0008C366.728 24.4292 366.399 24.7765 365.993 24.7765Z" fill="#05498B"/>
<path d="M402.251 31.1224C401.845 31.1224 401.516 30.7752 401.516 30.3468C401.516 29.9185 401.845 29.5713 402.251 29.5713C402.656 29.5713 402.985 29.9185 402.985 30.3468C402.985 30.7752 402.656 31.1224 402.251 31.1224Z" fill="#05498B"/>
<path d="M396.174 31.1224C395.768 31.1224 395.44 30.7752 395.44 30.3468C395.44 29.9185 395.768 29.5713 396.174 29.5713C396.58 29.5713 396.909 29.9185 396.909 30.3468C396.909 30.7752 396.58 31.1224 396.174 31.1224Z" fill="#05498B"/>
<path d="M390.165 31.1224C389.759 31.1224 389.43 30.7752 389.43 30.3468C389.43 29.9185 389.759 29.5713 390.165 29.5713C390.57 29.5713 390.899 29.9185 390.899 30.3468C390.899 30.7752 390.57 31.1224 390.165 31.1224Z" fill="#05498B"/>
<path d="M384.088 31.1224C383.682 31.1224 383.353 30.7752 383.353 30.3468C383.353 29.9185 383.682 29.5713 384.088 29.5713C384.494 29.5713 384.822 29.9185 384.822 30.3468C384.822 30.7752 384.494 31.1224 384.088 31.1224Z" fill="#05498B"/>
<path d="M378.079 31.1224C377.673 31.1224 377.344 30.7752 377.344 30.3468C377.344 29.9185 377.673 29.5713 378.079 29.5713C378.484 29.5713 378.813 29.9185 378.813 30.3468C378.813 30.7752 378.484 31.1224 378.079 31.1224Z" fill="#05498B"/>
<path d="M372.002 31.1224C371.597 31.1224 371.268 30.7752 371.268 30.3468C371.268 29.9185 371.597 29.5713 372.002 29.5713C372.408 29.5713 372.737 29.9185 372.737 30.3468C372.737 30.7752 372.408 31.1224 372.002 31.1224Z" fill="#05498B"/>
<path d="M365.993 31.1224C365.588 31.1224 365.259 30.7752 365.259 30.3468C365.259 29.9185 365.588 29.5713 365.993 29.5713C366.399 29.5713 366.728 29.9185 366.728 30.3468C366.728 30.7752 366.399 31.1224 365.993 31.1224Z" fill="#05498B"/>
<path d="M359.916 5.59889C359.511 5.59889 359.182 5.25164 359.182 4.82328C359.182 4.39492 359.511 4.04767 359.916 4.04767C360.322 4.04767 360.651 4.39492 360.651 4.82328C360.651 5.25164 360.322 5.59889 359.916 5.59889Z" fill="#05498B"/>
<path d="M353.907 5.59889C353.501 5.59889 353.172 5.25164 353.172 4.82328C353.172 4.39492 353.501 4.04767 353.907 4.04767C354.312 4.04767 354.641 4.39492 354.641 4.82328C354.641 5.25164 354.312 5.59889 353.907 5.59889Z" fill="#05498B"/>
<path d="M347.897 5.59889C347.491 5.59889 347.163 5.25164 347.163 4.82328C347.163 4.39492 347.491 4.04767 347.897 4.04767C348.303 4.04767 348.632 4.39492 348.632 4.82328C348.632 5.25164 348.303 5.59889 347.897 5.59889Z" fill="#05498B"/>
<path d="M341.821 5.59889C341.415 5.59889 341.087 5.25164 341.087 4.82328C341.087 4.39492 341.415 4.04767 341.821 4.04767C342.227 4.04767 342.556 4.39492 342.556 4.82328C342.556 5.25164 342.227 5.59889 341.821 5.59889Z" fill="#05498B"/>
<path d="M335.811 5.59889C335.406 5.59889 335.077 5.25164 335.077 4.82328C335.077 4.39492 335.406 4.04767 335.811 4.04767C336.217 4.04767 336.546 4.39492 336.546 4.82328C336.546 5.25164 336.217 5.59889 335.811 5.59889Z" fill="#05498B"/>
<path d="M329.735 5.59889C329.329 5.59889 329 5.25164 329 4.82328C329 4.39492 329.329 4.04767 329.735 4.04767C330.14 4.04767 330.469 4.39492 330.469 4.82328C330.469 5.25164 330.14 5.59889 329.735 5.59889Z" fill="#05498B"/>
<path d="M359.916 12.0146C359.511 12.0146 359.182 11.6674 359.182 11.2391C359.182 10.8108 359.511 10.4636 359.916 10.4636C360.322 10.4636 360.651 10.8108 360.651 11.2391C360.651 11.6674 360.322 12.0146 359.916 12.0146Z" fill="#05498B"/>
<path d="M353.907 12.0146C353.501 12.0146 353.172 11.6674 353.172 11.2391C353.172 10.8108 353.501 10.4636 353.907 10.4636C354.312 10.4636 354.641 10.8108 354.641 11.2391C354.641 11.6674 354.312 12.0146 353.907 12.0146Z" fill="#05498B"/>
<path d="M347.897 12.0146C347.491 12.0146 347.163 11.6674 347.163 11.2391C347.163 10.8108 347.491 10.4636 347.897 10.4636C348.303 10.4636 348.632 10.8108 348.632 11.2391C348.632 11.6674 348.303 12.0146 347.897 12.0146Z" fill="#05498B"/>
<path d="M341.821 12.0146C341.415 12.0146 341.087 11.6674 341.087 11.2391C341.087 10.8108 341.415 10.4636 341.821 10.4636C342.227 10.4636 342.556 10.8108 342.556 11.2391C342.556 11.6674 342.227 12.0146 341.821 12.0146Z" fill="#05498B"/>
<path d="M335.811 12.0146C335.406 12.0146 335.077 11.6674 335.077 11.2391C335.077 10.8108 335.406 10.4636 335.811 10.4636C336.217 10.4636 336.546 10.8108 336.546 11.2391C336.546 11.6674 336.217 12.0146 335.811 12.0146Z" fill="#05498B"/>
<path d="M329.735 12.0146C329.329 12.0146 329 11.6674 329 11.2391C329 10.8108 329.329 10.4636 329.735 10.4636C330.14 10.4636 330.469 10.8108 330.469 11.2391C330.469 11.6674 330.14 12.0146 329.735 12.0146Z" fill="#05498B"/>
<path d="M359.916 18.3606C359.511 18.3606 359.182 18.0133 359.182 17.585C359.182 17.1566 359.511 16.8094 359.916 16.8094C360.322 16.8094 360.651 17.1566 360.651 17.585C360.651 18.0133 360.322 18.3606 359.916 18.3606Z" fill="#05498B"/>
<path d="M353.907 18.3606C353.501 18.3606 353.172 18.0133 353.172 17.585C353.172 17.1566 353.501 16.8094 353.907 16.8094C354.312 16.8094 354.641 17.1566 354.641 17.585C354.641 18.0133 354.312 18.3606 353.907 18.3606Z" fill="#05498B"/>
<path d="M347.897 18.3606C347.491 18.3606 347.163 18.0133 347.163 17.585C347.163 17.1566 347.491 16.8094 347.897 16.8094C348.303 16.8094 348.632 17.1566 348.632 17.585C348.632 18.0133 348.303 18.3606 347.897 18.3606Z" fill="#05498B"/>
<path d="M341.821 18.3606C341.415 18.3606 341.087 18.0133 341.087 17.585C341.087 17.1566 341.415 16.8094 341.821 16.8094C342.227 16.8094 342.556 17.1566 342.556 17.585C342.556 18.0133 342.227 18.3606 341.821 18.3606Z" fill="#05498B"/>
<path d="M335.811 18.3606C335.406 18.3606 335.077 18.0133 335.077 17.585C335.077 17.1566 335.406 16.8094 335.811 16.8094C336.217 16.8094 336.546 17.1566 336.546 17.585C336.546 18.0133 336.217 18.3606 335.811 18.3606Z" fill="#05498B"/>
<path d="M329.735 18.3606C329.329 18.3606 329 18.0133 329 17.585C329 17.1566 329.329 16.8094 329.735 16.8094C330.14 16.8094 330.469 17.1566 330.469 17.585C330.469 18.0133 330.14 18.3606 329.735 18.3606Z" fill="#05498B"/>
<path d="M359.895 25.1438C359.489 25.1438 359.16 24.7965 359.16 24.3681C359.16 23.9398 359.489 23.5925 359.895 23.5925C360.3 23.5925 360.629 23.9398 360.629 24.3681C360.629 24.7965 360.3 25.1438 359.895 25.1438Z" fill="#05498B"/>
<path d="M353.907 24.7765C353.501 24.7765 353.172 24.4292 353.172 24.0008C353.172 23.5724 353.501 23.2252 353.907 23.2252C354.312 23.2252 354.641 23.5724 354.641 24.0008C354.641 24.4292 354.312 24.7765 353.907 24.7765Z" fill="#05498B"/>
<path d="M347.897 24.7765C347.491 24.7765 347.163 24.4292 347.163 24.0008C347.163 23.5724 347.491 23.2252 347.897 23.2252C348.303 23.2252 348.632 23.5724 348.632 24.0008C348.632 24.4292 348.303 24.7765 347.897 24.7765Z" fill="#05498B"/>
<path d="M341.821 24.7765C341.415 24.7765 341.087 24.4292 341.087 24.0008C341.087 23.5724 341.415 23.2252 341.821 23.2252C342.227 23.2252 342.556 23.5724 342.556 24.0008C342.556 24.4292 342.227 24.7765 341.821 24.7765Z" fill="#05498B"/>
<path d="M335.811 24.7765C335.406 24.7765 335.077 24.4292 335.077 24.0008C335.077 23.5724 335.406 23.2252 335.811 23.2252C336.217 23.2252 336.546 23.5724 336.546 24.0008C336.546 24.4292 336.217 24.7765 335.811 24.7765Z" fill="#05498B"/>
<path d="M329.735 24.7765C329.329 24.7765 329 24.4292 329 24.0008C329 23.5724 329.329 23.2252 329.735 23.2252C330.14 23.2252 330.469 23.5724 330.469 24.0008C330.469 24.4292 330.14 24.7765 329.735 24.7765Z" fill="#05498B"/>
<path d="M359.916 31.1224C359.511 31.1224 359.182 30.7752 359.182 30.3468C359.182 29.9185 359.511 29.5713 359.916 29.5713C360.322 29.5713 360.651 29.9185 360.651 30.3468C360.651 30.7752 360.322 31.1224 359.916 31.1224Z" fill="#05498B"/>
<path d="M353.907 31.1224C353.501 31.1224 353.172 30.7752 353.172 30.3468C353.172 29.9185 353.501 29.5713 353.907 29.5713C354.312 29.5713 354.641 29.9185 354.641 30.3468C354.641 30.7752 354.312 31.1224 353.907 31.1224Z" fill="#05498B"/>
<path d="M347.897 31.1224C347.491 31.1224 347.163 30.7752 347.163 30.3468C347.163 29.9185 347.491 29.5713 347.897 29.5713C348.303 29.5713 348.632 29.9185 348.632 30.3468C348.632 30.7752 348.303 31.1224 347.897 31.1224Z" fill="#05498B"/>
<path d="M341.821 31.1224C341.415 31.1224 341.087 30.7752 341.087 30.3468C341.087 29.9185 341.415 29.5713 341.821 29.5713C342.227 29.5713 342.556 29.9185 342.556 30.3468C342.556 30.7752 342.227 31.1224 341.821 31.1224Z" fill="#05498B"/>
<path d="M335.811 31.1224C335.406 31.1224 335.077 30.7752 335.077 30.3468C335.077 29.9185 335.406 29.5713 335.811 29.5713C336.217 29.5713 336.546 29.9185 336.546 30.3468C336.546 30.7752 336.217 31.1224 335.811 31.1224Z" fill="#05498B"/>
<path d="M329.735 31.1224C329.329 31.1224 329 30.7752 329 30.3468C329 29.9185 329.329 29.5713 329.735 29.5713C330.14 29.5713 330.469 29.9185 330.469 30.3468C330.469 30.7752 330.14 31.1224 329.735 31.1224Z" fill="#05498B"/>
<path d="M867.128 502.171L860.111 520.432C858.941 523.478 861.506 526.648 864.73 526.139L884.052 523.086C887.275 522.577 888.738 518.769 886.686 516.233L874.38 501.025C872.328 498.489 868.299 499.126 867.128 502.171Z" stroke="#0053A4" stroke-width="2.82585"/>
<path d="M5.61542 371.668L-7.07558 417.843C-7.94034 420.989 -5.07481 423.892 -1.91762 423.067L44.4166 410.971C47.5738 410.146 48.6547 406.214 46.3623 403.891L12.7191 369.813C10.4267 367.491 6.48018 368.522 5.61542 371.668Z" stroke="#05498B" stroke-width="2.82585"/>
<circle opacity="0.9" r="40.2684" transform="matrix(-1 0 0 1 1210.27 400.268)" fill="#05498B"/>
<path d="M45.8457 172.131H19.7066" stroke="#0053A4" stroke-width="8.47755"/>
<line y1="-4.23878" x2="32.4973" y2="-4.23878" transform="matrix(4.37114e-08 -1 -1 -4.37114e-08 573 549.497)" stroke="#0053A4" stroke-width="8.47755"/>
<path opacity="0.25" d="M1197.49 -29C1231.24 -29 1258.59 -2.43812 1258.59 30.3291C1258.59 63.0963 1231.24 89.6582 1197.49 89.6582C1163.74 89.6582 1136.39 63.0963 1136.39 30.3291C1136.39 -2.43812 1163.74 -29 1197.49 -29ZM1197.49 59.8469C1214.28 59.8469 1227.89 46.6303 1227.89 30.3291C1227.89 14.0279 1214.28 0.811305 1197.49 0.811305C1180.7 0.811306 1167.09 14.0279 1167.09 30.3291C1167.09 46.6329 1180.7 59.8469 1197.49 59.8469Z" fill="white"/>
<path d="M968.717 63.7246L961.526 89.8875C960.661 93.0338 963.527 95.9364 966.684 95.1121L992.937 88.2581C996.094 87.4338 997.175 83.5009 994.883 81.1788L975.82 61.87C973.528 59.5479 969.581 60.5782 968.717 63.7246Z" stroke="#0053A4" stroke-width="2.82585"/>
<path d="M1195.53 491.329C1194.92 491.329 1194.43 490.807 1194.43 490.164C1194.43 489.521 1194.92 489 1195.53 489C1196.14 489 1196.63 489.521 1196.63 490.164C1196.63 490.807 1196.14 491.329 1195.53 491.329Z" fill="#0053A4"/>
<path d="M1195.53 500.96C1194.92 500.96 1194.43 500.439 1194.43 499.796C1194.43 499.153 1194.92 498.632 1195.53 498.632C1196.14 498.632 1196.63 499.153 1196.63 499.796C1196.63 500.439 1196.14 500.96 1195.53 500.96Z" fill="#0053A4"/>
<path d="M1195.53 510.486C1194.92 510.486 1194.43 509.965 1194.43 509.322C1194.43 508.679 1194.92 508.157 1195.53 508.157C1196.14 508.157 1196.63 508.679 1196.63 509.322C1196.63 509.965 1196.14 510.486 1195.53 510.486Z" fill="#0053A4"/>
<path d="M1195.53 520.118C1194.92 520.118 1194.43 519.596 1194.43 518.953C1194.43 518.31 1194.92 517.789 1195.53 517.789C1196.14 517.789 1196.63 518.31 1196.63 518.953C1196.63 519.596 1196.14 520.118 1195.53 520.118Z" fill="#0053A4"/>
<path d="M1195.53 529.643C1194.92 529.643 1194.43 529.122 1194.43 528.479C1194.43 527.836 1194.92 527.315 1195.53 527.315C1196.14 527.315 1196.63 527.836 1196.63 528.479C1196.63 529.122 1196.14 529.643 1195.53 529.643Z" fill="#0053A4"/>
<path d="M1186.41 491.329C1185.8 491.329 1185.31 490.807 1185.31 490.164C1185.31 489.521 1185.8 489 1186.41 489C1187.02 489 1187.51 489.521 1187.51 490.164C1187.51 490.807 1187.02 491.329 1186.41 491.329Z" fill="#0053A4"/>
<path d="M1177.39 491.329C1176.78 491.329 1176.29 490.807 1176.29 490.164C1176.29 489.521 1176.78 489 1177.39 489C1178 489 1178.49 489.521 1178.49 490.164C1178.49 490.807 1178 491.329 1177.39 491.329Z" fill="#0053A4"/>
<path d="M1168.37 491.329C1167.76 491.329 1167.26 490.807 1167.26 490.164C1167.26 489.521 1167.76 489 1168.37 489C1168.98 489 1169.47 489.521 1169.47 490.164C1169.47 490.807 1168.98 491.329 1168.37 491.329Z" fill="#0053A4"/>
<path d="M1159.25 491.329C1158.64 491.329 1158.14 490.807 1158.14 490.164C1158.14 489.521 1158.64 489 1159.25 489C1159.85 489 1160.35 489.521 1160.35 490.164C1160.35 490.807 1159.85 491.329 1159.25 491.329Z" fill="#0053A4"/>
<path d="M1150.22 491.329C1149.62 491.329 1149.12 490.807 1149.12 490.164C1149.12 489.521 1149.62 489 1150.22 489C1150.83 489 1151.33 489.521 1151.33 490.164C1151.33 490.807 1150.83 491.329 1150.22 491.329Z" fill="#0053A4"/>
<path d="M1141.1 491.329C1140.49 491.329 1140 490.807 1140 490.164C1140 489.521 1140.49 489 1141.1 489C1141.71 489 1142.21 489.521 1142.21 490.164C1142.21 490.807 1141.71 491.329 1141.1 491.329Z" fill="#0053A4"/>
<path d="M1186.41 500.96C1185.8 500.96 1185.31 500.439 1185.31 499.796C1185.31 499.153 1185.8 498.632 1186.41 498.632C1187.02 498.632 1187.51 499.153 1187.51 499.796C1187.51 500.439 1187.02 500.96 1186.41 500.96Z" fill="#0053A4"/>
<path d="M1177.39 500.96C1176.78 500.96 1176.29 500.439 1176.29 499.796C1176.29 499.153 1176.78 498.632 1177.39 498.632C1178 498.632 1178.49 499.153 1178.49 499.796C1178.49 500.439 1178 500.96 1177.39 500.96Z" fill="#0053A4"/>
<path d="M1168.37 500.96C1167.76 500.96 1167.26 500.439 1167.26 499.796C1167.26 499.153 1167.76 498.632 1168.37 498.632C1168.98 498.632 1169.47 499.153 1169.47 499.796C1169.47 500.439 1168.98 500.96 1168.37 500.96Z" fill="#0053A4"/>
<path d="M1159.25 500.96C1158.64 500.96 1158.14 500.439 1158.14 499.796C1158.14 499.153 1158.64 498.632 1159.25 498.632C1159.85 498.632 1160.35 499.153 1160.35 499.796C1160.35 500.439 1159.85 500.96 1159.25 500.96Z" fill="#0053A4"/>
<path d="M1150.22 500.96C1149.62 500.96 1149.12 500.439 1149.12 499.796C1149.12 499.153 1149.62 498.632 1150.22 498.632C1150.83 498.632 1151.33 499.153 1151.33 499.796C1151.33 500.439 1150.83 500.96 1150.22 500.96Z" fill="#0053A4"/>
<path d="M1141.1 500.96C1140.49 500.96 1140 500.439 1140 499.796C1140 499.153 1140.49 498.632 1141.1 498.632C1141.71 498.632 1142.21 499.153 1142.21 499.796C1142.21 500.439 1141.71 500.96 1141.1 500.96Z" fill="#0053A4"/>
<path d="M1186.41 510.486C1185.8 510.486 1185.31 509.965 1185.31 509.322C1185.31 508.679 1185.8 508.157 1186.41 508.157C1187.02 508.157 1187.51 508.679 1187.51 509.322C1187.51 509.965 1187.02 510.486 1186.41 510.486Z" fill="#0053A4"/>
<path d="M1177.39 510.486C1176.78 510.486 1176.29 509.965 1176.29 509.322C1176.29 508.679 1176.78 508.157 1177.39 508.157C1178 508.157 1178.49 508.679 1178.49 509.322C1178.49 509.965 1178 510.486 1177.39 510.486Z" fill="#0053A4"/>
<path d="M1168.37 510.486C1167.76 510.486 1167.26 509.965 1167.26 509.322C1167.26 508.679 1167.76 508.157 1168.37 508.157C1168.98 508.157 1169.47 508.679 1169.47 509.322C1169.47 509.965 1168.98 510.486 1168.37 510.486Z" fill="#0053A4"/>
<path d="M1159.25 510.486C1158.64 510.486 1158.14 509.965 1158.14 509.322C1158.14 508.679 1158.64 508.157 1159.25 508.157C1159.85 508.157 1160.35 508.679 1160.35 509.322C1160.35 509.965 1159.85 510.486 1159.25 510.486Z" fill="#0053A4"/>
<path d="M1150.22 510.486C1149.62 510.486 1149.12 509.965 1149.12 509.322C1149.12 508.679 1149.62 508.157 1150.22 508.157C1150.83 508.157 1151.33 508.679 1151.33 509.322C1151.33 509.965 1150.83 510.486 1150.22 510.486Z" fill="#0053A4"/>
<path d="M1141.1 510.486C1140.49 510.486 1140 509.965 1140 509.322C1140 508.679 1140.49 508.157 1141.1 508.157C1141.71 508.157 1142.21 508.679 1142.21 509.322C1142.21 509.965 1141.71 510.486 1141.1 510.486Z" fill="#0053A4"/>
<path d="M1186.41 520.118C1185.8 520.118 1185.31 519.596 1185.31 518.953C1185.31 518.31 1185.8 517.789 1186.41 517.789C1187.02 517.789 1187.51 518.31 1187.51 518.953C1187.51 519.596 1187.02 520.118 1186.41 520.118Z" fill="#0053A4"/>
<path d="M1177.39 520.118C1176.78 520.118 1176.29 519.596 1176.29 518.953C1176.29 518.31 1176.78 517.789 1177.39 517.789C1178 517.789 1178.49 518.31 1178.49 518.953C1178.49 519.596 1178 520.118 1177.39 520.118Z" fill="#0053A4"/>
<path d="M1168.37 520.118C1167.76 520.118 1167.26 519.596 1167.26 518.953C1167.26 518.31 1167.76 517.789 1168.37 517.789C1168.98 517.789 1169.47 518.31 1169.47 518.953C1169.47 519.596 1168.98 520.118 1168.37 520.118Z" fill="#0053A4"/>
<path d="M1159.25 520.118C1158.64 520.118 1158.14 519.596 1158.14 518.953C1158.14 518.31 1158.64 517.789 1159.25 517.789C1159.85 517.789 1160.35 518.31 1160.35 518.953C1160.35 519.596 1159.85 520.118 1159.25 520.118Z" fill="#0053A4"/>
<path d="M1150.22 520.118C1149.62 520.118 1149.12 519.596 1149.12 518.953C1149.12 518.31 1149.62 517.789 1150.22 517.789C1150.83 517.789 1151.33 518.31 1151.33 518.953C1151.33 519.596 1150.83 520.118 1150.22 520.118Z" fill="#0053A4"/>
<path d="M1141.1 520.118C1140.49 520.118 1140 519.596 1140 518.953C1140 518.31 1140.49 517.789 1141.1 517.789C1141.71 517.789 1142.21 518.31 1142.21 518.953C1142.21 519.596 1141.71 520.118 1141.1 520.118Z" fill="#0053A4"/>
<path d="M1186.41 529.643C1185.8 529.643 1185.31 529.122 1185.31 528.479C1185.31 527.836 1185.8 527.315 1186.41 527.315C1187.02 527.315 1187.51 527.836 1187.51 528.479C1187.51 529.122 1187.02 529.643 1186.41 529.643Z" fill="#0053A4"/>
<path d="M1177.39 529.643C1176.78 529.643 1176.29 529.122 1176.29 528.479C1176.29 527.836 1176.78 527.315 1177.39 527.315C1178 527.315 1178.49 527.836 1178.49 528.479C1178.49 529.122 1178 529.643 1177.39 529.643Z" fill="#0053A4"/>
<path d="M1168.37 529.643C1167.76 529.643 1167.26 529.122 1167.26 528.479C1167.26 527.836 1167.76 527.315 1168.37 527.315C1168.98 527.315 1169.47 527.836 1169.47 528.479C1169.47 529.122 1168.98 529.643 1168.37 529.643Z" fill="#0053A4"/>
<path d="M1159.25 529.643C1158.64 529.643 1158.14 529.122 1158.14 528.479C1158.14 527.836 1158.64 527.315 1159.25 527.315C1159.85 527.315 1160.35 527.836 1160.35 528.479C1160.35 529.122 1159.85 529.643 1159.25 529.643Z" fill="#0053A4"/>
<path d="M1150.22 529.643C1149.62 529.643 1149.12 529.122 1149.12 528.479C1149.12 527.836 1149.62 527.315 1150.22 527.315C1150.83 527.315 1151.33 527.836 1151.33 528.479C1151.33 529.122 1150.83 529.643 1150.22 529.643Z" fill="#0053A4"/>
<path d="M1141.1 529.643C1140.49 529.643 1140 529.122 1140 528.479C1140 527.836 1140.49 527.315 1141.1 527.315C1141.71 527.315 1142.21 527.836 1142.21 528.479C1142.21 529.122 1141.71 529.643 1141.1 529.643Z" fill="#0053A4"/>
</g>
<defs>
<clipPath id="clip0_175_472">
<rect width="1200" height="534" fill="white"/>
</clipPath>
</defs>
</svg>
