<svg width="66" height="72" viewBox="0 0 66 72" fill="none" xmlns="http://www.w3.org/2000/svg">
<path d="M41.6489 30.6388L40.8805 31.4767H42.0174H62.1628C63.9686 31.4767 65.5 33.0877 65.5 35.1628C65.5 37.2439 63.969 38.8488 62.1628 38.8488H41.6397H40.5031L41.2711 39.6867L55.5461 55.2594C56.8643 56.7032 56.8647 59.059 55.5471 60.5033C54.885 61.2193 54.0406 61.5647 53.1993 61.5647C52.3573 61.5647 51.5133 61.2188 50.8579 60.5037L36.4383 44.7733L35.5698 43.8258V45.1112V67.814C35.5698 69.8951 34.0388 71.5 32.2326 71.5C30.4263 71.5 28.8953 69.8951 28.8953 67.814V45.8372V44.5518L28.0268 45.4994L14.2728 60.5037C13.6173 61.2188 12.7734 61.5647 11.9313 61.5647C11.0884 61.5647 10.2388 61.2181 9.58387 60.5037C8.2602 59.0597 8.2602 56.7041 9.58387 55.2601L23.8595 39.6867L24.6275 38.8488H23.4909H3.83721C2.03096 38.8488 0.5 37.2439 0.5 35.1628C0.5 33.0877 2.03144 31.4767 3.83721 31.4767H23.1132H24.2501L23.4817 30.6388L9.58387 15.4841C8.2602 14.0401 8.2602 11.6845 9.58387 10.2405C10.8846 8.82149 12.972 8.82149 14.2728 10.2405L14.2729 10.2406L28.0268 25.2384L28.8953 26.1854V24.9004V4.18605C28.8953 2.11095 30.4268 0.5 32.2326 0.5C34.0383 0.5 35.5698 2.11095 35.5698 4.18605V25.6265V26.9115L36.4383 25.9644L50.8578 10.2406L50.8585 10.2397C52.1526 8.82235 54.2451 8.82105 55.5462 10.2399C56.8647 11.6842 56.8646 14.0407 55.5461 15.4848L41.6489 30.6388Z" stroke="#E10613"/>
</svg>
