<svg width="48" height="48" viewBox="0 0 48 48" fill="none" xmlns="http://www.w3.org/2000/svg">
<path d="M45.2093 20.6512H30.5581L40.6657 10.548C41.7515 9.45785 41.7515 7.69186 40.6657 6.60174C39.5756 5.51163 37.8052 5.51163 36.7195 6.60174L26.2326 17.0843V2.7907C26.2326 1.25145 24.9855 0 23.4419 0C21.8983 0 20.6512 1.25145 20.6512 2.7907V16.6003L10.6483 6.60174C9.55814 5.51163 7.79215 5.51163 6.70203 6.60174C5.61192 7.69186 5.61192 9.45785 6.70203 10.548L16.8096 20.6512H2.7907C1.24709 20.6512 0 21.9026 0 23.4419C0 24.9855 1.24709 26.2326 2.7907 26.2326H17.0843L6.70203 36.6148C5.61192 37.7049 5.61192 39.4709 6.70203 40.5611C7.24709 41.1061 7.96221 41.3765 8.67733 41.3765C9.39244 41.3765 10.1032 41.1061 10.6483 40.5611L20.6512 30.5581V45.2093C20.6512 46.7529 21.8983 48 23.4419 48C24.9855 48 26.2326 46.7529 26.2326 45.2093V30.0741L36.7195 40.5611C37.2645 41.1061 37.9753 41.3765 38.6904 41.3765C39.4055 41.3765 40.1163 41.1061 40.6657 40.5611C41.7515 39.4709 41.7515 37.7049 40.6657 36.6148L30.2834 26.2326H45.2093C46.7529 26.2326 48 24.9855 48 23.4419C48 21.9026 46.7529 20.6512 45.2093 20.6512Z" fill="#E10613"/>
</svg>
