<svg width="63" height="98" viewBox="0 0 63 98" fill="none" xmlns="http://www.w3.org/2000/svg">
<path d="M57.3023 42.1628H27.3895L48.0258 21.5354C50.2425 19.3098 50.2425 15.7042 48.0258 13.4786C45.8001 11.2529 42.1857 11.2529 39.9689 13.4786L18.5581 34.8804V5.69767C18.5581 2.55505 16.012 0 12.8605 0C9.70894 0 7.16279 2.55505 7.16279 5.69767V33.8923L-13.2598 13.4786C-15.4855 11.2529 -19.091 11.2529 -21.3167 13.4786C-23.5423 15.7042 -23.5423 19.3098 -21.3167 21.5354L-0.680416 42.1628H-29.3023C-32.4539 42.1628 -35 44.7178 -35 47.8605C-35 51.012 -32.4539 53.5581 -29.3023 53.5581H-0.119549L-21.3167 74.7553C-23.5423 76.9809 -23.5423 80.5865 -21.3167 82.8121C-20.2039 83.925 -18.7438 84.4769 -17.2838 84.4769C-15.8238 84.4769 -14.3726 83.925 -13.2598 82.8121L7.16279 62.3895V92.3023C7.16279 95.4538 9.70894 98 12.8605 98C16.012 98 18.5581 95.4538 18.5581 92.3023V61.4013L39.9689 82.8121C41.0818 83.925 42.5329 84.4769 43.9929 84.4769C45.4529 84.4769 46.9041 83.925 48.0258 82.8121C50.2425 80.5865 50.2425 76.9809 48.0258 74.7553L26.8287 53.5581H57.3023C60.4538 53.5581 63 51.012 63 47.8605C63 44.7178 60.4538 42.1628 57.3023 42.1628Z" fill="#E10613"/>
</svg>
