<svg width="173" height="194" viewBox="0 0 173 194" fill="none" xmlns="http://www.w3.org/2000/svg">
<path d="M7.99955 185.815L8.10104 193.814L3.10144 193.878L2.99996 185.878L7.99955 185.815ZM7.79658 169.816L7.89807 177.816L2.89847 177.879L2.79698 169.88L7.79658 169.816ZM7.59361 153.818L7.6951 161.817L2.6955 161.88L2.59401 153.881L7.59361 153.818ZM7.39064 137.819L7.49213 145.818L2.49253 145.882L2.39104 137.882L7.39064 137.819ZM7.18767 121.82L7.28916 129.819L2.28956 129.883L2.18807 121.884L7.18767 121.82ZM6.9847 105.821L7.08619 113.821L2.08659 113.884L1.9851 105.885L6.9847 105.821ZM6.78173 89.8227L6.88322 97.822L1.88362 97.8855L1.78213 89.8861L6.78173 89.8227ZM6.57876 73.824L6.68025 81.8233L1.68065 81.8868L1.57916 73.8874L6.57876 73.824ZM6.37579 57.8253L6.47728 65.8246L1.47768 65.888L1.37619 57.8887L6.37579 57.8253ZM6.17282 41.8265L6.27431 49.8259L1.27471 49.8893L1.17322 41.89L6.17282 41.8265ZM5.96985 25.8278L6.07133 33.8272L1.07174 33.8906L0.970252 25.8913L5.96985 25.8278ZM5.76688 9.82912L5.86836 17.8285L0.868767 17.8919L0.767282 9.89255L5.76688 9.82912ZM14.6774 2.71552L14.7408 7.71511L6.74143 7.8166L6.678 2.817L14.6774 2.71552ZM30.6761 2.51255L30.7395 7.51214L22.7401 7.61363L22.6767 2.61403L30.6761 2.51255ZM46.6748 2.30958L46.7382 7.30917L38.7389 7.41066L38.6754 2.41106L46.6748 2.30958ZM62.6735 2.10661L62.7369 7.1062L54.7376 7.20769L54.6741 2.20809L62.6735 2.10661ZM78.6722 1.90364L78.7356 6.90323L70.7363 7.00472L70.6728 2.00512L78.6722 1.90364ZM94.6709 1.70066L94.7343 6.70026L86.735 6.80175L86.6716 1.80215L94.6709 1.70066ZM110.67 1.49769L110.733 6.49729L102.734 6.59878L102.67 1.59918L110.67 1.49769ZM126.668 1.29472L126.732 6.29432L118.732 6.39581L118.669 1.39621L126.668 1.29472ZM142.667 1.09175L142.73 6.09135L134.731 6.19284L134.668 1.19324L142.667 1.09175ZM158.666 0.888784L158.729 5.88838L150.73 5.98987L150.666 0.990269L158.666 0.888784ZM172.665 0.711184L172.728 5.71078L166.729 5.7869L166.665 0.787298L172.665 0.711184Z" fill="#E10613"/>
</svg>
